SplineFontDB: 3.0
FontName: Vishasita
FullName: Vishasita
FamilyName: Vishasita
Weight: Regular
Copyright: Created by Devajyoti Sarkar,,, with FontForge 2.0 (http://fontforge.sf.net)
UComments: "2017-2-5: Created." 
Version: 0.1
ItalicAngle: 0
UnderlinePosition: -202
UnderlineWidth: 100
Ascent: 1638
Descent: 410
LayerCount: 2
Layer: 0 1 "Back"  1
Layer: 1 1 "Fore"  0
XUID: [1021 512 423454595 12185763]
FSType: 0
OS2Version: 0
OS2_WeightWidthSlopeOnly: 0
OS2_UseTypoMetrics: 1
CreationTime: 1486267212
ModificationTime: 1486362736
OS2TypoAscent: 0
OS2TypoAOffset: 1
OS2TypoDescent: 0
OS2TypoDOffset: 1
OS2TypoLinegap: 184
OS2WinAscent: 0
OS2WinAOffset: 1
OS2WinDescent: 0
OS2WinDOffset: 1
HheadAscent: 0
HheadAOffset: 1
HheadDescent: 0
HheadDOffset: 1
OS2Vendor: 'PfEd'
MarkAttachClasses: 1
DEI: 91125

StartChar: unie001
Encoding: 256 57345 0
Width: 715
VWidth: 0
Flags: W
HStem: 0 43G<50 189 526 665>
VStem: 255 205<573 750> 296 123<922 1229>
LayerCount: 2
Fore
SplineSet
296 1229 m 1,0,-1
 419 1229 l 1,1,-1
 419 922 l 1,2,-1
 665 717 l 1,3,-1
 665 573 l 1,4,5
 464 750 464 750 460 750 c 1,6,-1
 460 573 l 1,7,-1
 665 0 l 1,8,-1
 542 0 l 1,9,-1
 358 479 l 1,10,-1
 173 0 l 1,11,-1
 50 0 l 1,12,-1
 255 573 l 1,13,-1
 255 750 l 1,14,-1
 50 573 l 1,15,-1
 50 717 l 1,16,-1
 296 922 l 1,17,-1
 296 956 l 1,18,-1
 296 1151 l 1,19,-1
 296 1229 l 1,0,-1
EndSplineSet
EndChar

StartChar: unie002
Encoding: 257 57346 1
Width: 1227
VWidth: 0
Flags: W
HStem: 0 43G<50 161 306 445 782 919 1066 1177>
VStem: 50 111<2 1221> 511 205<573 750> 552 123<922 1229> 1066 111<2 1221>
LayerCount: 2
Fore
SplineSet
552 1229 m 1,0,-1
 675 1229 l 1,1,-1
 675 922 l 1,2,-1
 919 717 l 1,3,-1
 919 573 l 1,4,5
 718 750 718 750 716 750 c 1,6,-1
 716 573 l 1,7,-1
 919 0 l 1,8,-1
 798 0 l 1,9,-1
 614 479 l 1,10,-1
 429 0 l 1,11,-1
 306 0 l 1,12,-1
 511 573 l 1,13,-1
 511 750 l 1,14,-1
 306 573 l 1,15,-1
 306 717 l 1,16,-1
 552 922 l 1,17,-1
 552 956 l 1,18,-1
 552 1151 l 1,19,-1
 552 1229 l 1,0,-1
1066 1221 m 1,20,-1
 1177 1221 l 1,21,-1
 1177 2 l 1,22,-1
 1066 2 l 1,23,-1
 1066 1221 l 1,20,-1
50 1221 m 1,24,-1
 161 1221 l 1,25,-1
 161 2 l 1,26,-1
 50 2 l 1,27,-1
 50 1221 l 1,24,-1
EndSplineSet
EndChar

StartChar: unie003
Encoding: 258 57347 2
Width: 715
VWidth: 0
Flags: W
HStem: 0 43G<50 189 526 665> 68 203<317 399>
VStem: 255 205<573 750> 296 123<922 1229> 317 82<68 270>
LayerCount: 2
Fore
SplineSet
296 1229 m 1,0,-1
 419 1229 l 1,1,-1
 419 922 l 1,2,-1
 665 717 l 1,3,-1
 665 573 l 1,4,5
 464 750 464 750 460 750 c 1,6,-1
 460 573 l 1,7,-1
 665 0 l 1,8,-1
 542 0 l 1,9,-1
 358 479 l 1,10,-1
 173 0 l 1,11,-1
 50 0 l 1,12,-1
 255 573 l 1,13,-1
 255 750 l 1,14,-1
 50 573 l 1,15,-1
 50 717 l 1,16,-1
 296 922 l 1,17,-1
 296 956 l 1,18,-1
 296 1151 l 1,19,-1
 296 1229 l 1,0,-1
317 270 m 1,20,-1
 399 270 l 1,21,-1
 399 68 l 1,22,-1
 317 68 l 1,23,-1
 317 270 l 1,20,-1
EndSplineSet
EndChar

StartChar: unie004
Encoding: 259 57348 3
Width: 711
VWidth: 0
Flags: W
HStem: 0 43G<50 180 498 630> 1014 49<399 450>
VStem: 243 195<573 750> 282 117<922 1014 1063 1157 1227 1229>
LayerCount: 2
Fore
SplineSet
505 1096 m 1,0,-1
 491 1053 l 1,1,-1
 591 1044 l 1,2,-1
 505 1096 l 1,0,-1
399 1157 m 1,3,-1
 399 1063 l 1,4,-1
 450 1057 l 1,5,-1
 466 1116 l 1,6,-1
 399 1157 l 1,3,-1
282 1229 m 1,7,-1
 399 1229 l 1,8,-1
 399 1227 l 1,9,-1
 661 1014 l 1,10,-1
 399 1014 l 1,11,-1
 399 922 l 1,12,-1
 630 717 l 1,13,-1
 630 573 l 1,14,15
 441 750 441 750 437 750 c 1,16,-1
 437 573 l 1,17,-1
 630 0 l 1,18,-1
 513 0 l 1,19,-1
 339 479 l 1,20,-1
 165 0 l 1,21,-1
 50 0 l 1,22,-1
 243 573 l 1,23,-1
 243 750 l 1,24,-1
 50 573 l 1,25,-1
 50 717 l 1,26,-1
 282 922 l 1,27,-1
 282 956 l 1,28,-1
 282 1151 l 1,29,-1
 282 1229 l 1,7,-1
EndSplineSet
EndChar

StartChar: unie005
Encoding: 260 57349 4
Width: 1120
VWidth: 0
Flags: W
HStem: 0 43G<265 399 723 855>
VStem: 300 39<1042 1120> 462 197<573 750 1028 1176> 501 119<922 990 1218 1229> 696 39<1042 1151> 782 39<1042 1120>
LayerCount: 2
Fore
SplineSet
501 1229 m 1,0,-1
 620 1229 l 1,1,-1
 620 1227 l 1,2,3
 664 1222 664 1222 747 1188 c 0,4,5
 813 1161 813 1161 863 1130 c 1,6,7
 910 1103 910 1103 956 1057 c 0,8,9
 1001 1012 1001 1012 1013 991 c 0,10,11
 1031 960 1031 960 1070 903 c 1,12,13
 924 981 924 981 868 995 c 1,14,15
 819 1006 819 1006 788 1006 c 0,16,17
 699 1006 699 1006 620 975 c 1,18,-1
 620 922 l 1,19,-1
 855 717 l 1,20,-1
 855 573 l 1,21,22
 660 750 660 750 659 750 c 1,23,-1
 659 573 l 1,24,-1
 855 0 l 1,25,-1
 739 0 l 1,26,-1
 560 479 l 1,27,-1
 384 0 l 1,28,-1
 265 0 l 1,29,-1
 462 573 l 1,30,-1
 462 750 l 1,31,-1
 265 573 l 1,32,-1
 265 717 l 1,33,-1
 501 922 l 1,34,-1
 501 975 l 1,35,36
 422 1006 422 1006 333 1006 c 0,37,38
 302 1006 302 1006 253 995 c 1,39,40
 190 978 190 978 50 905 c 1,41,42
 56 914 56 914 71 938 c 0,43,44
 77 948 77 948 84.5 958 c 128,-1,45
 92 968 92 968 93 969 c 0,46,47
 96 973 96 973 114 995 c 0,48,49
 119 1001 119 1001 126 1012 c 128,-1,50
 133 1023 133 1023 136 1026 c 0,51,52
 138 1029 138 1029 146.5 1038.5 c 128,-1,53
 155 1048 155 1048 161 1053 c 0,54,55
 166 1058 166 1058 176 1067.5 c 128,-1,56
 186 1077 186 1077 190 1081 c 0,57,58
 209 1100 209 1100 218 1106 c 0,59,60
 236 1118 236 1118 257 1130 c 0,61,62
 305 1160 305 1160 374 1188 c 0,63,64
 457 1222 457 1222 501 1227 c 1,65,-1
 501 1229 l 1,0,-1
470 1176 m 1,66,67
 466 1176 466 1176 460 1174 c 0,68,69
 456 1173 456 1173 452 1171.5 c 128,-1,70
 448 1170 448 1170 444 1169 c 128,-1,71
 440 1168 440 1168 435.5 1167 c 128,-1,72
 431 1166 431 1166 427 1165 c 1,73,-1
 419 1038 l 1,74,75
 454 1034 454 1034 468 1028 c 1,76,-1
 470 1176 l 1,66,67
653 1176 m 1,77,-1
 653 1028 l 1,78,79
 667 1034 667 1034 702 1038 c 1,80,-1
 696 1163 l 1,81,82
 669 1172 669 1172 653 1176 c 1,77,-1
386 1153 m 1,83,84
 374 1149 374 1149 364 1145 c 0,85,86
 359 1143 359 1143 352 1140.5 c 128,-1,87
 345 1138 345 1138 343 1137 c 1,88,-1
 339 1042 l 1,89,-1
 380 1042 l 1,90,-1
 386 1153 l 1,83,84
734 1151 m 1,91,-1
 741 1042 l 1,92,-1
 782 1042 l 1,93,-1
 779 1137 l 1,94,95
 767 1141 767 1141 759 1143 c 0,96,97
 753 1145 753 1145 744 1148 c 2,98,-1
 734 1151 l 1,91,-1
302 1120 m 1,99,-1
 300 1120 l 1,100,101
 288 1112 288 1112 263 1096 c 1,102,-1
 270 1030 l 1,103,-1
 294 1036 l 2,104,105
 296 1036 296 1036 298 1038 c 1,106,-1
 300 1038 l 1,107,-1
 302 1120 l 1,99,-1
818 1120 m 1,108,-1
 820 1036 l 1,109,-1
 827 1036 l 1,110,-1
 839 1032 l 2,111,112
 841 1031 841 1031 844 1030.5 c 128,-1,113
 847 1030 847 1030 848.5 1029.5 c 128,-1,114
 850 1029 850 1029 851 1028 c 1,115,-1
 857 1096 l 1,116,117
 856 1097 856 1097 851 1100.5 c 128,-1,118
 846 1104 846 1104 841 1106 c 0,119,120
 837 1108 837 1108 830.5 1112.5 c 128,-1,121
 824 1117 824 1117 822 1118 c 1,122,-1
 820 1118 l 1,123,124
 820 1120 820 1120 818 1120 c 1,108,-1
227 1071 m 1,125,126
 219 1067 219 1067 210 1061 c 0,127,128
 204 1057 204 1057 196 1049 c 1,129,-1
 206 1010 l 1,130,131
 209 1013 209 1013 218 1016 c 0,132,133
 224 1018 224 1018 231 1018 c 1,134,-1
 227 1071 l 1,125,126
894 1071 m 1,135,-1
 890 1016 l 1,136,-1
 902 1012 l 2,137,138
 914 1008 914 1008 917 1008 c 1,139,-1
 925 1047 l 1,140,-1
 894 1071 l 1,135,-1
163 1020 m 1,141,142
 135 996 135 996 128 981 c 1,143,144
 129 982 129 982 133.5 983.5 c 128,-1,145
 138 985 138 985 148.5 989 c 128,-1,146
 159 993 159 993 169 997 c 1,147,-1
 163 1020 l 1,141,142
958 1020 m 1,148,-1
 952 995 l 1,149,-1
 992 979 l 1,150,151
 979 1002 979 1002 958 1020 c 1,148,-1
EndSplineSet
EndChar

StartChar: unie006
Encoding: 261 57350 5
Width: 715
VWidth: 0
Flags: W
HStem: 0 43G<50 189 526 665>
VStem: 255 205<573 750> 296 123<922 1083>
LayerCount: 2
Fore
SplineSet
296 1229 m 1,0,-1
 419 1229 l 1,1,-1
 665 1024 l 1,2,-1
 665 881 l 1,3,-1
 419 1083 l 1,4,-1
 419 922 l 1,5,-1
 665 717 l 1,6,-1
 665 573 l 1,7,8
 464 750 464 750 460 750 c 1,9,-1
 460 573 l 1,10,-1
 665 0 l 1,11,-1
 542 0 l 1,12,-1
 358 479 l 1,13,-1
 173 0 l 1,14,-1
 50 0 l 1,15,-1
 255 573 l 1,16,-1
 255 750 l 1,17,-1
 50 573 l 1,18,-1
 50 717 l 1,19,-1
 296 922 l 1,20,-1
 296 956 l 1,21,-1
 296 1151 l 1,22,-1
 296 1229 l 1,0,-1
EndSplineSet
EndChar

StartChar: unie007
Encoding: 262 57351 6
Width: 715
VWidth: 0
Flags: W
HStem: 0 43G<50 189 526 665>
VStem: 255 205<573 750> 296 123<993 1229>
LayerCount: 2
Fore
SplineSet
296 1229 m 1,0,-1
 419 1229 l 1,1,-1
 419 993 l 1,2,-1
 587 1133 l 1,3,-1
 661 1049 l 1,4,-1
 468 879 l 1,5,-1
 665 717 l 1,6,-1
 665 573 l 1,7,8
 464 750 464 750 460 750 c 1,9,-1
 460 573 l 1,10,-1
 665 0 l 1,11,-1
 542 0 l 1,12,-1
 358 479 l 1,13,-1
 173 0 l 1,14,-1
 50 0 l 1,15,-1
 255 573 l 1,16,-1
 255 750 l 1,17,-1
 50 573 l 1,18,-1
 50 717 l 1,19,-1
 296 922 l 1,20,-1
 296 956 l 1,21,-1
 296 1151 l 1,22,-1
 296 1229 l 1,0,-1
EndSplineSet
EndChar

StartChar: unie008
Encoding: 263 57352 7
Width: 809
VWidth: 0
Flags: W
HStem: 0 43G<98 236 571 710>
VStem: 50 104<1020 1169> 300 205<573 750> 341 123<924 1229> 655 104<1024 1167>
LayerCount: 2
Fore
SplineSet
341 1229 m 1,0,-1
 464 1229 l 1,1,-1
 464 922 l 1,2,3
 510 939 510 939 556 967 c 0,4,5
 595 991 595 991 622 1038 c 0,6,7
 652 1090 652 1090 655 1167 c 1,8,-1
 759 1169 l 1,9,10
 735 933 735 933 558 844 c 1,11,-1
 710 717 l 1,12,-1
 710 573 l 1,13,14
 509 750 509 750 505 750 c 1,15,-1
 505 573 l 1,16,-1
 710 0 l 1,17,-1
 587 0 l 1,18,-1
 403 479 l 1,19,-1
 220 0 l 1,20,-1
 98 0 l 1,21,-1
 300 573 l 1,22,-1
 300 750 l 1,23,-1
 98 573 l 1,24,-1
 98 717 l 1,25,-1
 251 846 l 1,26,27
 74 935 74 935 50 1171 c 1,28,-1
 155 1169 l 1,29,30
 158 1064 158 1064 206 1010 c 0,31,32
 251 959 251 959 341 924 c 1,33,-1
 341 963 l 1,34,-1
 341 1153 l 1,35,-1
 341 1229 l 1,0,-1
EndSplineSet
EndChar

StartChar: unie009
Encoding: 264 57353 8
Width: 1530
VWidth: 0
Flags: W
HStem: 0 43G<50 239 456 592 930 1068 1156 1345>
VStem: 253 121<372 841> 409 104<1020 1169> 659 205<573 750> 700 123<924 1227> 1013 104<1020 1167> 1359 121<372 841>
LayerCount: 2
Fore
SplineSet
700 1227 m 1,0,-1
 822 1227 l 1,1,-1
 822 922 l 1,2,3
 873 941 873 941 915 967 c 0,4,5
 952 990 952 990 980 1038 c 0,6,7
 1010 1090 1010 1090 1013 1167 c 1,8,-1
 1117 1169 l 1,9,10
 1093 935 1093 935 915 844 c 1,11,-1
 1068 717 l 1,12,-1
 1068 573 l 1,13,14
 867 750 867 750 863 750 c 1,15,-1
 863 573 l 1,16,-1
 1068 0 l 1,17,-1
 945 0 l 1,18,-1
 761 479 l 1,19,-1
 577 0 l 1,20,-1
 456 0 l 1,21,-1
 659 573 l 1,22,-1
 659 750 l 1,23,-1
 456 573 l 1,24,-1
 456 717 l 1,25,-1
 610 846 l 1,26,27
 433 935 433 935 409 1171 c 1,28,-1
 513 1169 l 1,29,30
 516 1064 516 1064 564 1010 c 0,31,32
 609 960 609 960 700 924 c 1,33,-1
 700 963 l 1,34,-1
 700 1151 l 1,35,-1
 700 1227 l 1,0,-1
1156 1229 m 1,36,-1
 1277 1229 l 1,37,38
 1317 1150 1317 1150 1373 1036 c 0,39,40
 1410 960 1410 960 1443 852 c 0,41,42
 1480 731 1480 731 1480 631 c 2,43,-1
 1480 614 l 1,44,-1
 1480 588 l 2,45,46
 1480 341 1480 341 1277 0 c 1,47,-1
 1156 0 l 1,48,49
 1167 28 1167 28 1222 147 c 0,50,51
 1275 263 1275 263 1289 299 c 0,52,53
 1317 374 1317 374 1334 442 c 0,54,55
 1356 532 1356 532 1359 614 c 1,56,57
 1356 682 1356 682 1332 776 c 0,58,59
 1315 844 1315 844 1287 920 c 0,60,61
 1270 967 1270 967 1214 1094 c 0,62,63
 1161 1215 1161 1215 1156 1229 c 1,36,-1
50 1229 m 1,64,-1
 171 1229 l 1,65,66
 211 1150 211 1150 267 1036 c 0,67,68
 304 960 304 960 337 852 c 0,69,70
 374 731 374 731 374 631 c 2,71,-1
 374 614 l 1,72,-1
 374 588 l 2,73,74
 374 341 374 341 171 0 c 1,75,-1
 50 0 l 1,76,77
 61 28 61 28 116 147 c 0,78,79
 175 275 175 275 184 299 c 0,80,81
 212 373 212 373 229 442 c 0,82,83
 250 527 250 527 253 614 c 1,84,85
 250 686 250 686 227 776 c 0,86,87
 212 834 212 834 181 920 c 0,88,89
 164 967 164 967 108 1094 c 0,90,91
 55 1215 55 1215 50 1229 c 1,64,-1
EndSplineSet
EndChar

StartChar: unie00a
Encoding: 265 57354 9
Width: 715
VWidth: 0
Flags: W
HStem: 0 43G<50 189 526 665> 1012 80<130 296 419 583>
VStem: 50 80<782 1012> 255 205<573 750> 296 123<922 1012 1092 1229> 583 80<784 1012>
LayerCount: 2
Fore
SplineSet
419 1012 m 1,0,-1
 419 922 l 1,1,-1
 583 784 l 1,2,-1
 583 1012 l 1,3,-1
 419 1012 l 1,0,-1
130 1012 m 1,4,-1
 130 782 l 1,5,-1
 296 922 l 1,6,-1
 296 1012 l 1,7,-1
 130 1012 l 1,4,-1
296 1229 m 1,8,-1
 419 1229 l 1,9,-1
 419 1092 l 1,10,-1
 663 1092 l 1,11,-1
 663 1012 l 1,12,-1
 663 717 l 1,13,-1
 665 717 l 1,14,-1
 665 573 l 1,15,16
 464 750 464 750 460 750 c 1,17,-1
 460 573 l 1,18,-1
 665 0 l 1,19,-1
 542 0 l 1,20,-1
 358 479 l 1,21,-1
 173 0 l 1,22,-1
 50 0 l 1,23,-1
 255 573 l 1,24,-1
 255 750 l 1,25,-1
 50 573 l 1,26,-1
 50 682 l 1,27,-1
 50 1012 l 1,28,-1
 50 1092 l 1,29,-1
 296 1092 l 1,30,-1
 296 1229 l 1,8,-1
EndSplineSet
EndChar

StartChar: unie00b
Encoding: 266 57355 10
Width: 1018
VWidth: 0
Flags: W
HStem: 2 43G<153 344 704 837> 823 59<141 327 415 448 571 601 691 878>
LayerCount: 2
Fore
SplineSet
691 823 m 1,0,-1
 786 616 l 1,1,-1
 878 823 l 1,2,-1
 691 823 l 1,0,-1
141 823 m 1,3,-1
 233 618 l 1,4,-1
 327 823 l 1,5,-1
 141 823 l 1,3,-1
509 1087 m 1,6,-1
 415 883 l 1,7,-1
 601 883 l 1,8,-1
 509 1087 l 1,6,-1
509 1227 m 1,9,-1
 665 883 l 1,10,-1
 968 883 l 1,11,-1
 786 475 l 1,12,-1
 628 823 l 1,13,-1
 571 823 l 1,14,15
 602 633 602 633 624 532 c 0,16,17
 652 403 652 403 714 254 c 0,18,19
 778 99 778 99 866 2 c 1,20,-1
 704 6 l 1,21,22
 619 143 619 143 579 262 c 0,23,24
 534 395 534 395 509 555 c 1,25,26
 491 392 491 392 448 270 c 128,-1,27
 405 148 405 148 315 2 c 1,28,-1
 153 2 l 1,29,30
 194 47 194 47 218 86 c 0,31,32
 251 140 251 140 276 203 c 0,33,34
 282 218 282 218 298 257.5 c 128,-1,35
 314 297 314 297 321 315 c 0,36,37
 334 349 334 349 362 455 c 0,38,39
 371 488 371 488 380 528.5 c 128,-1,40
 389 569 389 569 392 578 c 0,41,42
 404 616 404 616 423 711 c 0,43,44
 443 808 443 808 448 823 c 1,45,-1
 390 823 l 1,46,-1
 233 479 l 1,47,-1
 50 883 l 1,48,-1
 351 883 l 1,49,-1
 509 1227 l 1,9,-1
EndSplineSet
EndChar

StartChar: unie00c
Encoding: 267 57356 11
Width: 1223
VWidth: 0
Flags: W
HStem: 0 43G<407 544 679 816> 41 96<183 282 953 1051> 909 117<181 216> 977 90<427 550 673 771>
VStem: 50 78<230 829> 335 72<236 596> 550 123<428 688 803 977 1067 1227> 816 80<216 595> 1101 72<229 806>
LayerCount: 2
Fore
SplineSet
995 901 m 128,-1,1
 952 901 952 901 925 786 c 0,2,3
 896 664 896 664 896 518 c 2,4,-1
 896 504 l 1,5,6
 899 338 899 338 927 238 c 0,7,8
 936 206 936 206 951.5 184 c 128,-1,9
 967 162 967 162 982.5 148.5 c 128,-1,10
 998 135 998 135 1001 129 c 1,11,12
 1045 129 1045 129 1072 246 c 0,13,14
 1101 372 1101 372 1101 528 c 1,15,16
 1098 692 1098 692 1068 797 c 0,17,0
 1038 901 1038 901 995 901 c 128,-1,1
227 909 m 0,18,19
 184 909 184 909 157 795 c 0,20,21
 128 673 128 673 128 526 c 2,22,-1
 128 512 l 1,23,24
 131 358 131 358 159 246 c 0,25,26
 186 137 186 137 231 137 c 2,27,-1
 233 137 l 1,28,29
 279 140 279 140 306 254 c 0,30,31
 335 376 335 376 335 535 c 1,32,33
 332 703 332 703 300 803 c 0,34,35
 266 909 266 909 227 909 c 0,18,19
673 977 m 1,36,-1
 673 803 l 1,37,-1
 829 711 l 1,38,39
 856 898 856 898 917 977 c 1,40,-1
 673 977 l 1,36,-1
292 977 m 1,41,42
 362 887 362 887 392 709 c 1,43,-1
 550 803 l 1,44,-1
 550 977 l 1,45,-1
 292 977 l 1,41,42
552 1227 m 1,46,-1
 673 1227 l 1,47,-1
 673 1067 l 1,48,-1
 995 1020 l 1,49,50
 1062 1012 1062 1012 1115 877 c 0,51,52
 1170 738 1170 738 1173 543 c 1,53,54
 1173 328 1173 328 1124 182 c 0,55,56
 1074 35 1074 35 999 35 c 2,57,-1
 997 35 l 1,58,59
 922 38 922 38 870 174 c 0,60,61
 819 308 819 308 816 512 c 0,62,63
 816 578 816 578 818 596 c 1,64,-1
 673 688 l 1,65,-1
 673 428 l 1,66,-1
 816 0 l 1,67,-1
 693 0 l 1,68,-1
 612 236 l 1,69,-1
 530 0 l 1,70,-1
 407 0 l 1,71,-1
 550 428 l 1,72,-1
 550 688 l 1,73,-1
 405 596 l 2,74,75
 405 595 405 595 406 588 c 128,-1,76
 407 581 407 581 407 575 c 2,77,-1
 407 555 l 1,78,-1
 407 545 l 2,79,80
 407 334 407 334 358 188 c 0,81,82
 308 41 308 41 235 41 c 0,83,84
 164 41 164 41 108 176 c 0,85,86
 53 310 53 310 50 512 c 1,87,-1
 50 532 l 2,88,89
 50 729 50 729 100 877 c 0,90,91
 149 1023 149 1023 216 1026 c 1,92,-1
 216 1028 l 1,93,-1
 550 1067 l 1,94,-1
 552 1067 l 1,95,-1
 552 1227 l 1,46,-1
EndSplineSet
EndChar

StartChar: unie00d
Encoding: 268 57357 12
Width: 1227
VWidth: 0
Flags: W
HStem: 0 43G<409 492 583 648 735 818> 33 96<186 281 954 1051> 901 117<182 278> 969 90<435 552>
VStem: 50 80<229 824> 337 70<241 592> 552 123<424 682 795 969 1059 1229> 583 66<0 186> 820 78<216 592> 1103 74<222 803>
LayerCount: 2
Fore
SplineSet
997 895 m 128,-1,1
 954 895 954 895 927 782 c 0,2,3
 898 660 898 660 898 514 c 2,4,-1
 898 500 l 1,5,6
 901 344 901 344 931 236 c 0,7,8
 961 129 961 129 1003 129 c 0,9,10
 1047 129 1047 129 1074 242 c 0,11,12
 1103 364 1103 364 1103 522 c 1,13,14
 1100 686 1100 686 1070 791 c 0,15,0
 1040 895 1040 895 997 895 c 128,-1,1
229 901 m 0,16,17
 186 901 186 901 159 788 c 0,18,19
 130 666 130 666 130 522 c 2,20,-1
 130 508 l 1,21,22
 133 354 133 354 161 242 c 0,23,24
 188 135 188 135 233 135 c 2,25,-1
 235 135 l 1,26,27
 281 138 281 138 308 250 c 0,28,29
 337 372 337 372 337 530 c 1,30,31
 334 700 334 700 302 797 c 0,32,33
 268 901 268 901 229 901 c 0,16,17
552 1229 m 1,34,-1
 677 1229 l 1,35,-1
 677 1059 l 1,36,-1
 997 1012 l 2,37,38
 1065 1003 1065 1003 1119 868 c 0,39,40
 1174 729 1174 729 1177 539 c 1,41,42
 1177 326 1177 326 1128 180 c 0,43,44
 1078 33 1078 33 1003 33 c 2,45,-1
 1001 33 l 1,46,47
 927 36 927 36 874 172 c 0,48,49
 823 303 823 303 820 508 c 1,50,-1
 820 565 l 1,51,-1
 820 592 l 1,52,-1
 675 682 l 1,53,-1
 675 424 l 1,54,-1
 818 0 l 1,55,-1
 751 0 l 1,56,-1
 614 356 l 1,57,-1
 476 0 l 1,58,-1
 409 0 l 1,59,-1
 552 424 l 1,60,-1
 552 682 l 1,61,-1
 407 592 l 1,62,-1
 407 571 l 2,63,64
 407 565 407 565 408 558.5 c 128,-1,65
 409 552 409 552 409 551 c 2,66,-1
 409 541 l 2,67,68
 409 338 409 338 358 188 c 0,69,70
 308 41 308 41 237 41 c 0,71,72
 164 41 164 41 108 176 c 0,73,74
 53 309 53 309 50 508 c 1,75,-1
 50 528 l 2,76,77
 50 725 50 725 100 870 c 128,-1,78
 150 1015 150 1015 218 1018 c 1,79,-1
 552 1059 l 1,80,-1
 552 1229 l 1,34,-1
675 969 m 1,81,-1
 675 795 l 1,82,-1
 833 707 l 1,83,84
 860 895 860 895 919 969 c 1,85,-1
 675 969 l 1,81,-1
294 969 m 1,86,87
 368 873 368 873 394 702 c 1,88,-1
 552 795 l 1,89,-1
 552 969 l 1,90,-1
 294 969 l 1,86,87
583 186 m 1,91,-1
 648 186 l 1,92,-1
 648 0 l 1,93,-1
 583 0 l 1,94,-1
 583 186 l 1,91,-1
EndSplineSet
EndChar

StartChar: unie00e
Encoding: 269 57358 13
Width: 1223
VWidth: 0
Flags: W
HStem: 2 43G<407 546 677 816> 35 84<182 284 946 1053> 782 102<177 280> 842 76<542 550 673 681>
VStem: 50 78<197 713> 335 72<205 514> 550 123<369 592 690 842> 816 80<192 513> 1101 72<196 693>
LayerCount: 2
Fore
SplineSet
292 842 m 1,0,1
 366 756 366 756 392 610 c 1,2,-1
 550 690 l 1,3,-1
 550 842 l 1,4,-1
 292 842 l 1,0,1
673 842 m 1,5,-1
 673 690 l 1,6,-1
 831 612 l 1,7,8
 858 777 858 777 917 842 c 1,9,-1
 673 842 l 1,5,-1
227 782 m 0,10,11
 184 782 184 782 157 684 c 0,12,13
 128 578 128 578 128 453 c 2,14,-1
 128 440 l 1,15,16
 131 303 131 303 161 211 c 128,-1,17
 191 119 191 119 233 119 c 0,18,19
 279 119 279 119 306 217 c 0,20,21
 335 323 335 323 335 461 c 1,22,23
 332 608 332 608 300 692 c 0,24,25
 266 782 266 782 227 782 c 0,10,11
995 776 m 0,26,27
 952 776 952 776 925 678 c 0,28,29
 896 572 896 572 896 446 c 2,30,-1
 896 434 l 1,31,32
 899 290 899 290 927 205 c 0,33,34
 957 113 957 113 1001 113 c 128,-1,35
 1045 113 1045 113 1072 211 c 0,36,37
 1101 317 1101 317 1101 455 c 1,38,39
 1098 598 1098 598 1068 686 c 0,40,41
 1037 776 1037 776 995 776 c 0,26,27
612 1227 m 1,42,-1
 777 905 l 1,43,-1
 995 879 l 1,44,45
 1062 870 1062 870 1115 756 c 0,46,47
 1170 636 1170 636 1173 467 c 1,48,49
 1173 281 1173 281 1124 156 c 0,50,51
 1074 29 1074 29 1001 29 c 2,52,-1
 999 29 l 1,53,54
 924 32 924 32 872 150 c 0,55,56
 819 271 819 271 816 440 c 1,57,58
 816 498 816 498 818 514 c 1,59,-1
 673 592 l 1,60,-1
 673 369 l 1,61,-1
 816 2 l 1,62,-1
 693 2 l 1,63,-1
 612 203 l 1,64,-1
 530 2 l 1,65,-1
 407 2 l 1,66,-1
 550 369 l 1,67,-1
 550 592 l 1,68,-1
 405 514 l 2,69,70
 405 513 405 513 406 505.5 c 128,-1,71
 407 498 407 498 407 492 c 2,72,-1
 407 469 l 2,73,74
 407 292 407 292 358 164 c 0,75,76
 309 35 309 35 235 35 c 0,77,78
 164 35 164 35 108 152 c 0,79,80
 53 268 53 268 50 442 c 1,81,-1
 50 461 l 2,82,83
 50 631 50 631 100 758 c 0,84,85
 149 882 149 882 216 885 c 1,86,-1
 446 907 l 1,87,-1
 612 1227 l 1,42,-1
612 1047 m 1,88,-1
 542 918 l 1,89,-1
 681 918 l 1,90,-1
 612 1047 l 1,88,-1
EndSplineSet
EndChar

StartChar: unie00f
Encoding: 270 57359 14
Width: 1124
VWidth: 0
Flags: W
HStem: 0 43G<376 505 620 749> 27 78<184 260 875 958> 737 96<166 262> 793 72<365 507 618 732> 1010 74<229 415 712 896> 1155 74<229 446 687 896>
VStem: 50 74<187 681> 310 63<191 483> 413 80<951 1010> 507 111<346 557 651 793> 632 82<944 1060> 749 72<182 483> 1009 66<187 651>
LayerCount: 2
Fore
SplineSet
515 1229 m 1,0,-1
 493 1016 l 1,1,-1
 493 1006 l 2,2,3
 493 971 493 971 509 950 c 0,4,5
 526 928 526 928 562 928 c 0,6,7
 599 928 599 928 616 954 c 0,8,9
 632 978 632 978 632 1016 c 1,10,11
 629 1129 629 1129 610 1229 c 1,12,-1
 896 1229 l 1,13,-1
 896 1155 l 1,14,-1
 687 1155 l 1,15,-1
 702 1081 l 1,16,-1
 896 1083 l 1,17,-1
 896 1010 l 1,18,-1
 712 1010 l 1,19,20
 714 996 714 996 714 965 c 0,21,22
 714 939 714 939 702 924 c 0,23,24
 654 870 654 870 579 864 c 1,25,-1
 618 864 l 1,26,-1
 911 827 l 2,27,28
 972 819 972 819 1021 711 c 0,29,30
 1071 602 1071 602 1074 440 c 1,31,32
 1074 263 1074 263 1029 147 c 0,33,34
 982 27 982 27 917 27 c 2,35,-1
 915 27 l 1,36,37
 848 30 848 30 800 141 c 128,-1,38
 752 252 752 252 749 416 c 0,39,40
 749 469 749 469 751 483 c 1,41,-1
 618 557 l 1,42,-1
 618 346 l 1,43,-1
 749 0 l 1,44,-1
 636 0 l 1,45,-1
 562 190 l 1,46,-1
 489 0 l 1,47,-1
 376 0 l 1,48,-1
 507 346 l 1,49,-1
 507 557 l 1,50,-1
 374 483 l 1,51,-1
 374 463 l 2,52,53
 374 458 374 458 375 450 c 128,-1,54
 376 442 376 442 376 440 c 0,55,56
 376 273 376 273 329 152 c 0,57,58
 283 33 283 33 220 33 c 0,59,60
 153 33 153 33 104 143 c 0,61,62
 53 258 53 258 50 416 c 1,63,-1
 50 434 l 2,64,65
 50 589 50 589 95 713 c 0,66,67
 138 831 138 831 202 834 c 1,68,-1
 507 864 l 1,69,-1
 546 864 l 1,70,71
 504 867 504 867 468 889 c 0,72,73
 433 910 433 910 425 924 c 1,74,75
 413 939 413 939 413 965 c 0,76,77
 413 996 413 996 415 1010 c 1,78,-1
 229 1010 l 1,79,-1
 229 1083 l 1,80,-1
 423 1081 l 1,81,-1
 446 1155 l 1,82,-1
 229 1155 l 1,83,-1
 229 1227 l 1,84,-1
 515 1229 l 1,0,-1
272 793 m 1,85,86
 337 716 337 716 364 573 c 1,87,-1
 507 651 l 1,88,-1
 507 793 l 1,89,-1
 272 793 l 1,85,86
618 793 m 1,90,-1
 618 651 l 1,91,-1
 761 578 l 1,92,93
 782 725 782 725 841 793 c 1,94,-1
 618 793 l 1,90,-1
212 737 m 0,95,96
 173 737 173 737 149 645 c 0,97,98
 124 550 124 550 124 428 c 2,99,-1
 124 416 l 1,100,101
 127 284 127 284 153 199 c 0,102,103
 161 173 161 173 174 155.5 c 128,-1,104
 187 138 187 138 201 126.5 c 128,-1,105
 215 115 215 115 218 111 c 1,106,107
 259 111 259 111 284 205 c 0,108,109
 310 304 310 304 310 434 c 1,110,111
 307 575 307 575 280 651 c 0,112,113
 250 737 250 737 212 737 c 0,95,96
911 731 m 0,114,115
 874 731 874 731 847 639 c 0,116,117
 820 548 820 548 820 422 c 2,118,-1
 820 410 l 1,119,120
 823 278 823 278 849 193 c 0,121,122
 857 167 857 167 870 149 c 128,-1,123
 883 131 883 131 897.5 119.5 c 128,-1,124
 912 108 912 108 915 104 c 1,125,126
 953 104 953 104 980 199 c 0,127,128
 1009 301 1009 301 1009 428 c 1,129,130
 1006 558 1006 558 978 647 c 0,131,132
 951 731 951 731 911 731 c 0,114,115
EndSplineSet
EndChar

StartChar: unie010
Encoding: 271 57360 15
Width: 1428
VWidth: 0
Flags: W
HStem: 2 43G<124 281 523 590 788 944 1187 1254> 139 74<657 771> 279 57<669 759> 401 57<683 747> 524 57<696 734> 823 59<116 249 315 337 427 450 515 648 779 913 978 1001 1091 1113 1179 1312>
LayerCount: 2
Fore
SplineSet
382 1087 m 1,0,-1
 315 883 l 1,1,-1
 450 883 l 1,2,-1
 382 1087 l 1,0,-1
116 823 m 1,3,-1
 184 618 l 1,4,-1
 249 823 l 1,5,-1
 116 823 l 1,3,-1
515 823 m 1,6,-1
 583 616 l 1,7,-1
 648 823 l 1,8,-1
 515 823 l 1,6,-1
1046 1087 m 1,9,-1
 978 883 l 1,10,-1
 1113 883 l 1,11,-1
 1046 1087 l 1,9,-1
779 823 m 1,12,-1
 847 618 l 1,13,-1
 913 823 l 1,14,-1
 779 823 l 1,12,-1
1179 823 m 1,15,-1
 1246 616 l 1,16,-1
 1312 823 l 1,17,-1
 1179 823 l 1,15,-1
382 1227 m 1,18,-1
 495 883 l 1,19,-1
 714 883 l 1,20,-1
 716 883 l 1,21,-1
 933 883 l 1,22,-1
 1046 1227 l 1,23,-1
 1158 883 l 1,24,-1
 1378 883 l 1,25,-1
 1246 477 l 1,26,-1
 1132 823 l 1,27,-1
 1091 823 l 1,28,29
 1156 227 1156 227 1304 2 c 1,30,-1
 1187 6 l 1,31,32
 1090 219 1090 219 1046 557 c 1,33,34
 1023 263 1023 263 906 2 c 1,35,-1
 788 2 l 1,36,37
 820 54 820 54 843 111 c 0,38,39
 861 156 861 156 886 233 c 0,40,41
 903 286 903 286 925 389 c 128,-1,42
 947 492 947 492 952 532 c 0,43,44
 954 545 954 545 957.5 568 c 128,-1,45
 961 591 961 591 967 626 c 128,-1,46
 973 661 973 661 978 692 c 0,47,48
 983 726 983 726 988.5 755.5 c 128,-1,49
 994 785 994 785 997.5 803 c 128,-1,50
 1001 821 1001 821 1001 823 c 1,51,-1
 960 823 l 1,52,-1
 847 479 l 1,53,-1
 716 879 l 1,54,-1
 822 139 l 1,55,-1
 610 139 l 1,56,57
 634 315 634 315 661 512 c 128,-1,58
 688 709 688 709 698.5 786 c 128,-1,59
 709 863 709 863 712 879 c 1,60,-1
 583 477 l 1,61,-1
 468 823 l 1,62,-1
 427 823 l 1,63,64
 492 227 492 227 640 2 c 1,65,-1
 523 6 l 1,66,67
 426 219 426 219 382 557 c 1,68,69
 358 260 358 260 243 2 c 1,70,-1
 124 2 l 1,71,72
 156 54 156 54 179 111 c 0,73,74
 197 156 197 156 222 233 c 0,75,76
 239 286 239 286 261 389 c 128,-1,77
 283 492 283 492 288 532 c 0,78,79
 290 547 290 547 299.5 600.5 c 128,-1,80
 309 654 309 654 315 692 c 0,81,82
 320 726 320 726 325 755 c 128,-1,83
 330 784 330 784 333.5 803 c 128,-1,84
 337 822 337 822 337 823 c 1,85,-1
 296 823 l 1,86,-1
 184 479 l 1,87,-1
 50 883 l 1,88,-1
 270 883 l 1,89,-1
 382 1227 l 1,18,-1
734 582 m 1,90,-1
 728 647 l 1,91,-1
 702 647 l 1,92,-1
 696 582 l 1,93,-1
 734 582 l 1,90,-1
747 459 m 1,94,-1
 741 524 l 1,95,-1
 689 524 l 1,96,-1
 683 459 l 1,97,-1
 747 459 l 1,94,-1
759 336 m 1,98,-1
 753 401 l 1,99,-1
 677 401 l 1,100,-1
 669 336 l 1,101,-1
 759 336 l 1,98,-1
771 213 m 1,102,-1
 765 279 l 1,103,-1
 665 279 l 1,104,-1
 657 213 l 1,105,-1
 771 213 l 1,102,-1
EndSplineSet
EndChar

StartChar: unie011
Encoding: 272 57361 16
Width: 918
VWidth: 0
Flags: W
HStem: 0 43G<190 335 514 667> 461 74<116 145>
VStem: 476 49<1047 1219> 530 137<0 91>
LayerCount: 2
Fore
SplineSet
476 1227 m 1,0,-1
 526 1219 l 1,1,2
 535 1037 535 1037 612 854 c 1,3,4
 630 815 630 815 655 766 c 0,5,6
 665 746 665 746 708 680 c 0,7,8
 709 678 709 678 755 614 c 0,9,10
 789 566 789 566 812 537 c 0,11,12
 847 493 847 493 863 471 c 1,13,-1
 868 469 l 1,14,-1
 863 469 l 2,15,16
 725 469 725 469 474 676 c 1,17,-1
 462 590 l 1,18,19
 505 424 505 424 517 385 c 0,20,21
 534 326 534 326 579 201 c 0,22,23
 616 98 616 98 667 0 c 1,24,-1
 530 0 l 1,25,26
 488 160 488 160 452 516 c 1,27,28
 430 352 430 352 427 332 c 0,29,30
 418 276 418 276 386 166 c 0,31,32
 357 63 357 63 323 0 c 1,33,-1
 190 0 l 1,34,35
 317 200 317 200 444 598 c 1,36,37
 444 619 444 619 442 633 c 2,38,39
 437 668 l 1,40,41
 383 574 383 574 313 504 c 1,42,43
 264 461 264 461 151 461 c 2,44,-1
 112 461 l 1,45,-1
 116 524 l 1,46,-1
 112 526 l 1,47,48
 112 528 112 528 114 530 c 2,49,-1
 116 532 l 1,50,-1
 116 535 l 1,51,-1
 118 535 l 1,52,53
 216 651 216 651 302 836 c 1,54,55
 298 840 298 840 270 872 c 0,56,57
 159 999 159 999 50 1200 c 1,58,-1
 200 1210 l 1,59,60
 284 995 284 995 339 920 c 1,61,62
 354 956 354 956 394 1051 c 0,63,64
 415 1102 415 1102 446 1171 c 0,65,66
 464 1211 464 1211 476 1223 c 1,67,-1
 476 1227 l 1,0,-1
476 1210 m 1,68,69
 438 1043 438 1043 376 870 c 1,70,71
 407 831 407 831 472 766 c 1,72,73
 482 776 482 776 491 791 c 128,-1,74
 500 806 500 806 509 815 c 1,75,76
 507 813 507 813 497 782 c 0,77,78
 490 762 490 762 485 754 c 1,79,80
 613 626 613 626 759 532 c 1,81,82
 734 557 734 557 700 586 c 0,83,84
 653 626 653 626 636 643 c 0,85,86
 610 669 610 669 581 717 c 0,87,88
 545 777 545 777 526 825 c 1,89,90
 513 854 513 854 505 885 c 0,91,92
 502 898 502 898 498.5 916.5 c 128,-1,93
 495 935 495 935 493 942 c 0,94,95
 489 960 489 960 485 1012 c 0,96,97
 484 1025 484 1025 482 1045 c 128,-1,98
 480 1065 480 1065 480 1073 c 0,99,100
 480 1077 480 1077 478 1101 c 128,-1,101
 476 1125 476 1125 476 1145 c 2,102,-1
 476 1210 l 1,68,69
347 791 m 1,103,104
 289 648 289 648 239 557 c 1,105,106
 278 574 278 574 286 580 c 0,107,108
 339 617 339 617 427 715 c 1,109,110
 391 747 391 747 347 791 c 1,103,104
452 694 m 1,111,112
 450 692 450 692 446 684 c 128,-1,113
 442 676 442 676 440 674 c 1,114,115
 446 656 446 656 448 651 c 0,116,117
 450 645 450 645 451.5 637 c 128,-1,118
 453 629 453 629 454 627 c 1,119,120
 455 629 455 629 457.5 637.5 c 128,-1,121
 460 646 460 646 462 653 c 128,-1,122
 464 660 464 660 466.5 669 c 128,-1,123
 469 678 469 678 470 680 c 1,124,-1
 462 688 l 2,125,126
 460 690 460 690 456.5 691.5 c 128,-1,127
 453 693 453 693 452 694 c 1,111,112
EndSplineSet
EndChar

StartChar: unie012
Encoding: 273 57362 17
Width: 715
VWidth: 0
Flags: W
HStem: 0 43G<50 189 526 665>
VStem: 255 205<573 750> 296 123<922 1229> 564 100<799 1157>
LayerCount: 2
Fore
SplineSet
296 1229 m 1,0,-1
 419 1229 l 1,1,-1
 419 922 l 1,2,-1
 564 799 l 1,3,-1
 564 1157 l 1,4,-1
 665 1157 l 1,5,-1
 665 668 l 1,6,-1
 665 573 l 1,7,8
 464 750 464 750 460 750 c 1,9,-1
 460 573 l 1,10,-1
 665 0 l 1,11,-1
 542 0 l 1,12,-1
 358 479 l 1,13,-1
 173 0 l 1,14,-1
 50 0 l 1,15,-1
 255 573 l 1,16,-1
 255 750 l 1,17,-1
 50 573 l 1,18,-1
 50 717 l 1,19,-1
 296 922 l 1,20,-1
 296 956 l 1,21,-1
 296 1151 l 1,22,-1
 296 1229 l 1,0,-1
EndSplineSet
EndChar

StartChar: unie013
Encoding: 274 57363 18
Width: 1120
VWidth: 0
Flags: W
HStem: 2 43G<50 189 530 671>
VStem: 257 207<573 750> 298 125<922 1227>
LayerCount: 2
Fore
SplineSet
298 1227 m 1,0,-1
 423 1227 l 1,1,-1
 423 922 l 1,2,-1
 669 719 l 1,3,-1
 759 850 l 1,4,-1
 610 936 l 1,5,-1
 712 1114 l 1,6,-1
 755 1090 l 1,7,-1
 679 961 l 1,8,-1
 720 936 l 1,9,-1
 796 1065 l 1,10,-1
 833 1044 l 1,11,-1
 757 915 l 1,12,-1
 798 891 l 1,13,-1
 874 1022 l 1,14,-1
 911 1001 l 1,15,-1
 835 870 l 1,16,-1
 876 848 l 1,17,-1
 952 977 l 1,18,-1
 988 956 l 1,19,-1
 913 827 l 1,20,-1
 954 803 l 1,21,-1
 1029 932 l 1,22,-1
 1070 909 l 1,23,-1
 968 731 l 1,24,-1
 825 813 l 1,25,-1
 671 578 l 1,26,-1
 671 573 l 1,27,-1
 669 575 l 1,28,-1
 667 573 l 1,29,-1
 667 575 l 1,30,31
 660 580 l 2,32,33
 653 586 653 586 640 597.5 c 128,-1,34
 627 609 627 609 612 623 c 0,35,36
 571 662 571 662 513 709 c 0,37,38
 499 720 499 720 486.5 731 c 128,-1,39
 474 742 474 742 469.5 746 c 128,-1,40
 465 750 465 750 464 750 c 1,41,-1
 464 573 l 1,42,-1
 671 2 l 1,43,-1
 546 2 l 1,44,-1
 360 479 l 1,45,-1
 173 2 l 1,46,-1
 50 2 l 1,47,-1
 257 573 l 1,48,-1
 257 750 l 1,49,-1
 50 573 l 1,50,-1
 50 717 l 1,51,-1
 298 922 l 1,52,-1
 298 956 l 1,53,-1
 298 1149 l 1,54,-1
 298 1227 l 1,0,-1
EndSplineSet
EndChar

StartChar: unie014
Encoding: 275 57364 19
Width: 1120
VWidth: 0
Flags: W
HStem: 0 43G<50 189 530 671> 66 203<319 399>
VStem: 257 207<573 750> 298 125<922 1227> 319 80<66 268>
LayerCount: 2
Fore
SplineSet
298 1227 m 1,0,-1
 423 1227 l 1,1,-1
 423 922 l 1,2,-1
 669 719 l 1,3,-1
 759 850 l 1,4,-1
 610 936 l 1,5,-1
 712 1112 l 1,6,-1
 755 1090 l 1,7,-1
 679 958 l 1,8,-1
 720 936 l 1,9,-1
 796 1065 l 1,10,-1
 833 1044 l 1,11,-1
 757 915 l 1,12,-1
 798 891 l 1,13,-1
 874 1022 l 1,14,-1
 911 1001 l 1,15,-1
 835 870 l 1,16,-1
 876 848 l 1,17,-1
 952 977 l 1,18,-1
 988 956 l 1,19,-1
 913 827 l 1,20,-1
 954 803 l 1,21,-1
 1029 932 l 1,22,-1
 1070 909 l 1,23,-1
 968 731 l 1,24,-1
 825 813 l 1,25,-1
 671 578 l 1,26,-1
 671 573 l 1,27,-1
 669 575 l 1,28,-1
 667 573 l 1,29,-1
 667 575 l 1,30,31
 660 580 l 2,32,33
 653 586 653 586 640 597.5 c 128,-1,34
 627 609 627 609 612 623 c 0,35,36
 571 662 571 662 513 709 c 0,37,38
 499 720 499 720 486.5 731 c 128,-1,39
 474 742 474 742 469.5 746 c 128,-1,40
 465 750 465 750 464 750 c 1,41,-1
 464 573 l 1,42,-1
 671 0 l 1,43,-1
 546 0 l 1,44,-1
 360 479 l 1,45,-1
 173 0 l 1,46,-1
 50 0 l 1,47,-1
 257 573 l 1,48,-1
 257 750 l 1,49,-1
 50 573 l 1,50,-1
 50 717 l 1,51,-1
 298 922 l 1,52,-1
 298 956 l 1,53,-1
 298 1149 l 1,54,-1
 298 1227 l 1,0,-1
319 268 m 1,55,-1
 399 268 l 1,56,-1
 399 66 l 1,57,-1
 319 66 l 1,58,-1
 319 268 l 1,55,-1
EndSplineSet
EndChar

StartChar: unie015
Encoding: 276 57365 20
Width: 1120
VWidth: 0
Flags: W
HStem: 0 43G<50 180 498 630>
VStem: 243 193<573 750> 282 117<922 1229> 667 82<962 1085>
LayerCount: 2
Fore
SplineSet
282 1229 m 1,0,-1
 399 1229 l 1,1,-1
 399 922 l 1,2,-1
 628 719 l 1,3,-1
 667 764 l 1,4,-1
 667 1133 l 1,5,-1
 749 1075 l 1,6,-1
 720 848 l 1,7,-1
 829 1018 l 1,8,-1
 909 961 l 1,9,-1
 802 791 l 1,10,-1
 990 903 l 1,11,-1
 1070 846 l 1,12,-1
 747 707 l 1,13,-1
 630 575 l 1,14,-1
 630 573 l 1,15,16
 438 750 438 750 435 750 c 1,17,-1
 435 573 l 1,18,-1
 630 0 l 1,19,-1
 513 0 l 1,20,-1
 339 479 l 1,21,-1
 165 0 l 1,22,-1
 50 0 l 1,23,-1
 243 573 l 1,24,-1
 243 750 l 1,25,-1
 50 573 l 1,26,-1
 50 717 l 1,27,-1
 282 922 l 1,28,-1
 282 956 l 1,29,-1
 282 1151 l 1,30,-1
 282 1229 l 1,0,-1
EndSplineSet
EndChar

StartChar: unie016
Encoding: 277 57366 21
Width: 1018
VWidth: 0
Flags: W
HStem: 0 43G<50 184 510 644>
VStem: 249 197<573 750> 288 119<922 1229>
LayerCount: 2
Fore
SplineSet
288 1229 m 1,0,-1
 407 1229 l 1,1,-1
 407 922 l 1,2,-1
 642 719 l 1,3,-1
 653 729 l 1,4,-1
 532 831 l 1,5,-1
 564 868 l 1,6,-1
 702 748 l 1,7,-1
 741 793 l 1,8,-1
 603 913 l 1,9,-1
 634 952 l 1,10,-1
 773 831 l 1,11,-1
 810 877 l 1,12,-1
 673 997 l 1,13,-1
 706 1036 l 1,14,-1
 843 913 l 1,15,-1
 880 958 l 1,16,-1
 743 1081 l 1,17,-1
 782 1126 l 1,18,-1
 968 961 l 1,19,-1
 644 573 l 1,20,-1
 456 741 l 1,21,-1
 458 741 l 1,22,-1
 446 750 l 1,23,-1
 446 573 l 1,24,-1
 644 0 l 1,25,-1
 526 0 l 1,26,-1
 347 479 l 1,27,-1
 169 0 l 1,28,-1
 50 0 l 1,29,-1
 249 573 l 1,30,-1
 249 750 l 1,31,-1
 50 573 l 1,32,-1
 50 717 l 1,33,-1
 288 922 l 1,34,-1
 288 956 l 1,35,-1
 288 1151 l 1,36,-1
 288 1229 l 1,0,-1
EndSplineSet
EndChar

StartChar: unie017
Encoding: 278 57367 22
Width: 1079
VWidth: 0
Flags: W
HStem: 0 43G<50 189 526 665>
VStem: 255 205<573 750> 296 123<922 1229>
LayerCount: 2
Fore
SplineSet
296 1229 m 1,0,-1
 419 1229 l 1,1,-1
 419 922 l 1,2,-1
 663 717 l 1,3,-1
 663 719 l 1,4,-1
 683 737 l 1,5,-1
 691 729 l 1,6,-1
 710 748 l 1,7,-1
 632 827 l 1,8,-1
 667 862 l 1,9,-1
 747 784 l 1,10,-1
 784 821 l 1,11,-1
 704 899 l 1,12,-1
 741 934 l 1,13,-1
 818 856 l 1,14,-1
 855 893 l 1,15,-1
 777 971 l 1,16,-1
 812 1008 l 1,17,-1
 890 930 l 1,18,-1
 945 983 l 1,19,-1
 1003 926 l 1,20,-1
 947 872 l 1,21,-1
 1029 791 l 1,22,-1
 992 756 l 1,23,-1
 913 836 l 1,24,-1
 876 799 l 1,25,-1
 956 719 l 1,26,-1
 921 682 l 1,27,-1
 841 764 l 1,28,-1
 804 727 l 1,29,-1
 884 645 l 1,30,-1
 849 610 l 1,31,-1
 767 692 l 1,32,-1
 749 672 l 1,33,-1
 757 666 l 1,34,-1
 663 575 l 1,35,-1
 663 573 l 1,36,37
 462 750 462 750 460 750 c 1,38,-1
 460 573 l 1,39,-1
 665 0 l 1,40,-1
 542 0 l 1,41,-1
 358 479 l 1,42,-1
 173 0 l 1,43,-1
 50 0 l 1,44,-1
 255 573 l 1,45,-1
 255 750 l 1,46,-1
 50 573 l 1,47,-1
 50 717 l 1,48,-1
 296 922 l 1,49,-1
 296 956 l 1,50,-1
 296 1151 l 1,51,-1
 296 1229 l 1,0,-1
EndSplineSet
EndChar

StartChar: unie018
Encoding: 279 57368 23
Width: 1325
VWidth: 0
Flags: W
HStem: 0 43G<382 509 816 941>
VStem: 569 186<529 750> 605 113<922 1227>
LayerCount: 2
Fore
SplineSet
605 1227 m 1,0,-1
 718 1227 l 1,1,-1
 718 922 l 1,2,-1
 941 717 l 1,3,-1
 960 735 l 1,4,-1
 968 729 l 1,5,-1
 984 748 l 1,6,-1
 915 827 l 1,7,-1
 945 862 l 1,8,-1
 1017 784 l 1,9,-1
 1052 821 l 1,10,-1
 980 899 l 1,11,-1
 1013 934 l 1,12,-1
 1083 856 l 1,13,-1
 1117 893 l 1,14,-1
 1046 971 l 1,15,-1
 1078 1008 l 1,16,-1
 1150 928 l 1,17,-1
 1199 983 l 1,18,-1
 1251 926 l 1,19,-1
 1201 870 l 1,20,-1
 1275 791 l 1,21,-1
 1244 756 l 1,22,-1
 1169 836 l 1,23,-1
 1136 799 l 1,24,-1
 1210 719 l 1,25,-1
 1177 682 l 1,26,-1
 1103 764 l 1,27,-1
 1070 727 l 1,28,-1
 1144 645 l 1,29,-1
 1111 610 l 1,30,-1
 1038 690 l 1,31,-1
 1019 672 l 1,32,-1
 1027 664 l 1,33,-1
 941 573 l 1,34,35
 758 750 758 750 755 750 c 1,36,-1
 755 573 l 1,37,-1
 941 0 l 1,38,-1
 831 0 l 1,39,-1
 663 479 l 1,40,-1
 495 0 l 1,41,-1
 382 0 l 1,42,-1
 569 573 l 1,43,-1
 569 750 l 1,44,-1
 384 575 l 1,45,-1
 382 573 l 1,46,-1
 382 575 l 1,47,-1
 298 664 l 1,48,-1
 306 672 l 1,49,-1
 288 690 l 1,50,-1
 214 610 l 1,51,-1
 181 645 l 1,52,-1
 255 727 l 1,53,-1
 222 764 l 1,54,-1
 149 682 l 1,55,-1
 116 719 l 1,56,-1
 190 799 l 1,57,-1
 157 836 l 1,58,-1
 81 756 l 1,59,-1
 50 791 l 1,60,-1
 124 872 l 1,61,-1
 75 926 l 1,62,-1
 126 983 l 1,63,-1
 175 928 l 1,64,-1
 247 1008 l 1,65,-1
 280 971 l 1,66,-1
 208 893 l 1,67,-1
 243 856 l 1,68,-1
 313 934 l 1,69,-1
 345 899 l 1,70,-1
 274 821 l 1,71,-1
 308 784 l 1,72,-1
 380 862 l 1,73,-1
 411 827 l 1,74,-1
 341 748 l 1,75,-1
 358 729 l 1,76,-1
 366 735 l 1,77,-1
 384 717 l 1,78,-1
 605 922 l 1,79,-1
 605 1227 l 1,0,-1
EndSplineSet
EndChar

StartChar: unie019
Encoding: 280 57369 24
Width: 918
VWidth: 0
Flags: W
HStem: 0 43G<50 178 491 620 765 868>
VStem: 241 188<573 750> 278 115<922 1229> 765 102<0 711 850 1221>
LayerCount: 2
Fore
SplineSet
278 1229 m 1,0,-1
 392 1229 l 1,1,-1
 392 922 l 1,2,-1
 618 719 l 1,3,-1
 765 850 l 1,4,-1
 765 1221 l 1,5,-1
 868 1221 l 1,6,-1
 868 0 l 1,7,-1
 765 0 l 1,8,-1
 765 711 l 1,9,-1
 620 575 l 1,10,-1
 620 573 l 1,11,12
 431 750 431 750 429 750 c 1,13,-1
 429 573 l 1,14,-1
 620 0 l 1,15,-1
 505 0 l 1,16,-1
 335 479 l 1,17,-1
 163 0 l 1,18,-1
 50 0 l 1,19,-1
 241 573 l 1,20,-1
 241 750 l 1,21,-1
 50 573 l 1,22,-1
 50 717 l 1,23,-1
 278 922 l 1,24,-1
 278 956 l 1,25,-1
 278 1151 l 1,26,-1
 278 1229 l 1,0,-1
EndSplineSet
EndChar

StartChar: unie01a
Encoding: 281 57370 25
Width: 1124
VWidth: 0
Flags: W
HStem: 0 307<52 151 976 1074> 924 305<50 149 974 1072>
VStem: 52 98<0 307 924 1229> 233 92<0 50> 386 154<520 750> 417 92<922 1229> 599 92<0 50> 808 82<0 711 850 1221> 976 98<0 307 924 1229>
LayerCount: 2
Fore
SplineSet
52 307 m 1,0,-1
 151 307 l 1,1,-1
 151 0 l 1,2,-1
 52 0 l 1,3,-1
 52 307 l 1,0,-1
50 1229 m 1,4,-1
 149 1229 l 1,5,-1
 149 924 l 1,6,-1
 50 924 l 1,7,-1
 50 1229 l 1,4,-1
976 307 m 1,8,-1
 1074 307 l 1,9,-1
 1074 0 l 1,10,-1
 976 0 l 1,11,-1
 976 307 l 1,8,-1
974 1229 m 1,12,-1
 1072 1229 l 1,13,-1
 1072 924 l 1,14,-1
 974 924 l 1,15,-1
 974 1229 l 1,12,-1
417 1229 m 1,16,-1
 509 1229 l 1,17,-1
 509 922 l 1,18,-1
 691 719 l 1,19,-1
 808 850 l 1,20,-1
 808 1221 l 1,21,-1
 890 1221 l 1,22,-1
 890 0 l 1,23,-1
 808 0 l 1,24,-1
 808 711 l 1,25,-1
 691 575 l 1,26,-1
 691 573 l 1,27,-1
 540 750 l 1,28,-1
 540 573 l 1,29,-1
 691 0 l 1,30,-1
 599 0 l 1,31,-1
 462 479 l 1,32,-1
 325 0 l 1,33,-1
 233 0 l 1,34,-1
 386 573 l 1,35,-1
 386 750 l 1,36,-1
 233 573 l 1,37,-1
 233 717 l 1,38,-1
 417 922 l 1,39,-1
 417 956 l 1,40,-1
 417 1151 l 1,41,-1
 417 1229 l 1,16,-1
EndSplineSet
EndChar

StartChar: unie01b
Encoding: 282 57371 26
Width: 1018
VWidth: 0
Flags: W
HStem: 0 43G<50 182 500 632>
VStem: 243 195<573 750> 282 117<922 1229> 894 74<549 881>
LayerCount: 2
Fore
SplineSet
282 1229 m 1,0,-1
 399 1229 l 1,1,-1
 399 922 l 1,2,-1
 630 717 l 1,3,-1
 808 961 l 1,4,5
 752 1029 752 1029 669 1057 c 1,6,-1
 667 1182 l 1,7,8
 815 1097 815 1097 890 997 c 128,-1,9
 965 897 965 897 968 719 c 1,10,11
 962 536 962 536 886 438 c 128,-1,12
 810 340 810 340 677 287 c 1,13,-1
 677 399 l 1,14,15
 785 453 785 453 837 516 c 0,16,17
 894 585 894 585 894 696 c 2,18,-1
 894 702 l 1,19,-1
 894 715 l 2,20,21
 894 802 894 802 855 887 c 1,22,-1
 632 573 l 1,23,24
 440 750 440 750 437 750 c 1,25,-1
 437 573 l 1,26,-1
 632 0 l 1,27,-1
 515 0 l 1,28,-1
 341 479 l 1,29,-1
 167 0 l 1,30,-1
 50 0 l 1,31,-1
 243 573 l 1,32,-1
 243 750 l 1,33,-1
 50 573 l 1,34,-1
 50 717 l 1,35,-1
 282 922 l 1,36,-1
 282 1229 l 1,0,-1
EndSplineSet
EndChar

StartChar: unie01c
Encoding: 283 57372 27
Width: 1120
VWidth: 0
Flags: W
HStem: 0 43G<50 184 510 646>
VStem: 249 199<573 750> 288 119<922 1229> 644 78<385 611 758 965> 868 76<496 785>
LayerCount: 2
Fore
SplineSet
847 786 m 1,0,-1
 718 629 l 1,1,-1
 722 385 l 1,2,3
 868 481 868 481 868 641 c 0,4,5
 868 722 868 722 847 786 c 1,0,-1
714 965 m 1,6,-1
 716 758 l 1,7,-1
 806 868 l 1,8,9
 763 930 763 930 714 965 c 1,6,-1
288 1229 m 1,10,-1
 407 1229 l 1,11,-1
 407 922 l 1,12,-1
 640 721 l 1,13,-1
 636 1047 l 1,14,-1
 634 1128 l 1,15,16
 794 1042 794 1042 863 940 c 1,17,-1
 1013 1124 l 1,18,-1
 1070 1061 l 1,19,-1
 906 860 l 1,20,21
 943 773 943 773 943 664 c 1,22,23
 937 485 937 485 857 385 c 0,24,25
 774 282 774 282 644 231 c 1,26,-1
 644 264 l 1,27,-1
 642 578 l 1,28,29
 618 602 618 602 542 668 c 0,30,31
 518 689 518 689 492.5 711.5 c 128,-1,32
 467 734 467 734 458 742 c 128,-1,33
 449 750 449 750 448 750 c 1,34,-1
 448 573 l 1,35,-1
 646 0 l 1,36,-1
 526 0 l 1,37,-1
 347 479 l 1,38,-1
 169 0 l 1,39,-1
 50 0 l 1,40,-1
 249 573 l 1,41,-1
 249 750 l 1,42,-1
 50 573 l 1,43,-1
 50 717 l 1,44,-1
 288 922 l 1,45,-1
 288 956 l 1,46,-1
 288 1151 l 1,47,-1
 288 1229 l 1,10,-1
EndSplineSet
EndChar

StartChar: unie01d
Encoding: 284 57373 28
Width: 1530
VWidth: 0
Flags: W
HStem: 0 43G<466 600 930 1064>
VStem: 177 78<524 813> 401 78<414 588 786 993> 665 201<573 750> 706 119<922 1229> 1052 78<414 617 786 993> 1275 78<524 813>
LayerCount: 2
Fore
SplineSet
706 1229 m 1,0,-1
 825 1229 l 1,1,-1
 825 922 l 1,2,-1
 1048 731 l 1,3,-1
 1044 1075 l 1,4,-1
 1042 1157 l 1,5,6
 1206 1066 1206 1066 1273 969 c 1,7,-1
 1423 1153 l 1,8,-1
 1480 1090 l 1,9,-1
 1316 889 l 1,10,11
 1353 802 1353 802 1353 692 c 1,12,13
 1347 512 1347 512 1267 412 c 0,14,15
 1187 313 1187 313 1052 260 c 1,16,-1
 1052 293 l 1,17,-1
 1050 588 l 1,18,19
 870 750 870 750 866 750 c 1,20,-1
 866 573 l 1,21,-1
 1064 0 l 1,22,-1
 945 0 l 1,23,-1
 765 479 l 1,24,-1
 585 0 l 1,25,-1
 466 0 l 1,26,-1
 665 573 l 1,27,-1
 665 750 l 1,28,-1
 480 588 l 1,29,-1
 478 293 l 1,30,-1
 478 260 l 1,31,32
 343 313 343 313 263 412 c 0,33,34
 183 512 183 512 177 692 c 1,35,36
 177 802 177 802 214 889 c 1,37,-1
 50 1090 l 1,38,-1
 108 1153 l 1,39,-1
 257 969 l 1,40,41
 323 1065 323 1065 489 1157 c 1,42,-1
 487 1075 l 1,43,-1
 483 731 l 1,44,-1
 706 922 l 1,45,-1
 706 956 l 1,46,-1
 706 1151 l 1,47,-1
 706 1229 l 1,0,-1
409 993 m 1,48,49
 351 953 351 953 315 897 c 1,50,-1
 407 786 l 1,51,-1
 409 993 l 1,48,49
1122 993 m 1,52,-1
 1124 786 l 1,53,-1
 1216 897 l 1,54,55
 1180 953 1180 953 1122 993 c 1,52,-1
276 815 m 1,56,57
 255 750 255 750 255 670 c 0,58,59
 255 510 255 510 401 414 c 1,60,-1
 405 657 l 1,61,-1
 276 815 l 1,56,57
1255 815 m 1,62,-1
 1126 657 l 1,63,-1
 1130 414 l 1,64,65
 1275 509 1275 509 1275 670 c 0,66,67
 1275 754 1275 754 1255 815 c 1,62,-1
EndSplineSet
EndChar

StartChar: unie01e
Encoding: 285 57374 29
Width: 1120
VWidth: 0
Flags: W
HStem: 2 43G<50 189 526 665>
VStem: 255 205<573 750> 296 123<922 1227>
LayerCount: 2
Fore
SplineSet
296 1227 m 1,0,-1
 419 1227 l 1,1,-1
 419 922 l 1,2,-1
 661 719 l 1,3,-1
 710 786 l 1,4,-1
 624 905 l 1,5,-1
 847 1214 l 1,6,-1
 1070 905 l 1,7,-1
 847 600 l 1,8,-1
 763 717 l 1,9,-1
 665 580 l 1,10,-1
 665 573 l 1,11,-1
 661 578 l 2,12,13
 660 579 660 579 654.5 584 c 128,-1,14
 649 589 649 589 635.5 600.5 c 128,-1,15
 622 612 622 612 607 625 c 0,16,17
 588 642 588 642 554.5 670 c 128,-1,18
 521 698 521 698 509 709 c 0,19,20
 462 750 462 750 460 750 c 1,21,-1
 460 573 l 1,22,-1
 665 2 l 1,23,-1
 542 2 l 1,24,-1
 358 479 l 1,25,-1
 173 2 l 1,26,-1
 50 2 l 1,27,-1
 255 573 l 1,28,-1
 255 750 l 1,29,-1
 50 573 l 1,30,-1
 50 717 l 1,31,-1
 296 922 l 1,32,-1
 296 956 l 1,33,-1
 296 1149 l 1,34,-1
 296 1227 l 1,0,-1
847 1090 m 1,35,-1
 716 905 l 1,36,-1
 847 725 l 1,37,-1
 980 905 l 1,38,-1
 847 1090 l 1,35,-1
EndSplineSet
EndChar

StartChar: unie01f
Encoding: 286 57375 30
Width: 1325
VWidth: 0
Flags: W
HStem: 2 43G<50 196 556 702> 264 102<880 1091> 469 51<934 1038> 827 51<931 1038> 981 102<882 1090>
VStem: 267 217<573 750> 310 131<922 1227> 837 37<597 747> 1093 37<599 749> 1203 72<517 831>
LayerCount: 2
Fore
SplineSet
984 827 m 0,0,1
 948 827 948 827 911 778 c 128,-1,2
 874 729 874 729 874 666 c 0,3,4
 874 619 874 619 909 569 c 0,5,6
 919 554 919 554 934.5 544 c 128,-1,7
 950 534 950 534 965.5 528 c 128,-1,8
 981 522 981 522 984 520 c 1,9,10
 1024 520 1024 520 1058 569 c 0,11,12
 1093 619 1093 619 1093 670 c 0,13,14
 1093 728 1093 728 1058 778 c 0,15,16
 1024 827 1024 827 984 827 c 0,0,1
984 879 m 0,17,18
 1035 879 1035 879 1083 815 c 0,19,20
 1130 753 1130 753 1130 674 c 2,21,-1
 1130 670 l 2,22,23
 1130 596 1130 596 1087 532 c 0,24,25
 1045 469 1045 469 984 469 c 0,26,27
 929 469 929 469 884 532 c 0,28,29
 837 597 837 597 837 662 c 0,30,31
 837 743 837 743 884 811 c 128,-1,32
 931 879 931 879 984 879 c 0,17,18
984 981 m 1,33,34
 902 978 902 978 833 881 c 0,35,36
 763 783 763 783 763 655 c 0,37,38
 763 557 763 557 833 463 c 0,39,40
 905 367 905 367 982 367 c 2,41,-1
 984 367 l 1,42,-1
 986 367 l 2,43,44
 1072 367 1072 367 1138 463 c 0,45,46
 1203 558 1203 558 1203 670 c 2,47,-1
 1203 674 l 1,48,-1
 1203 678 l 2,49,50
 1203 799 1203 799 1134 889 c 0,51,52
 1063 981 1063 981 984 981 c 1,33,34
310 1227 m 1,53,-1
 442 1227 l 1,54,-1
 442 922 l 1,55,-1
 696 721 l 1,56,57
 718 870 718 870 804 975 c 128,-1,58
 890 1080 890 1080 984 1083 c 1,59,60
 1090 1083 1090 1083 1183 958 c 0,61,62
 1275 834 1275 834 1275 678 c 2,63,-1
 1275 674 l 1,64,-1
 1275 666 l 2,65,66
 1275 516 1275 516 1189 389 c 0,67,68
 1104 264 1104 264 986 264 c 2,69,-1
 984 264 l 1,70,-1
 982 264 l 2,71,72
 892 264 892 264 808 360 c 0,73,74
 728 452 728 452 700 575 c 1,75,76
 681 594 681 594 644 623 c 0,77,78
 603 655 603 655 538 709 c 0,79,80
 489 750 489 750 485 750 c 1,81,-1
 485 573 l 1,82,-1
 702 2 l 1,83,-1
 573 2 l 1,84,-1
 376 479 l 1,85,-1
 179 2 l 1,86,-1
 50 2 l 1,87,-1
 267 573 l 1,88,-1
 267 750 l 1,89,-1
 50 573 l 1,90,-1
 50 717 l 1,91,-1
 310 922 l 1,92,-1
 310 956 l 1,93,-1
 310 1149 l 1,94,-1
 310 1227 l 1,53,-1
EndSplineSet
EndChar

StartChar: unie020
Encoding: 287 57376 31
Width: 993
VWidth: 0
Flags: W
HStem: 0 43G<50 189 526 663> 311 76<742 861>
VStem: 255 205<573 750> 296 123<922 1229> 657 61<414 605 723 924> 882 61<412 924>
LayerCount: 2
Fore
SplineSet
296 1229 m 1,0,-1
 419 1229 l 1,1,-1
 419 922 l 1,2,-1
 657 723 l 1,3,-1
 657 924 l 1,4,-1
 718 924 l 1,5,-1
 718 516 l 1,6,-1
 718 510 l 2,7,8
 718 470 718 470 741 426 c 0,9,10
 761 387 761 387 800 387 c 1,11,12
 879 390 879 390 882 516 c 1,13,-1
 882 651 l 1,14,-1
 882 924 l 1,15,-1
 943 924 l 1,16,-1
 943 651 l 1,17,-1
 943 516 l 1,18,-1
 943 512 l 2,19,20
 943 423 943 423 898 369 c 0,21,22
 849 311 849 311 800 311 c 0,23,24
 747 311 747 311 702 369 c 0,25,26
 659 424 659 424 659 510 c 2,27,-1
 659 514 l 2,28,29
 659 516 659 516 658 527.5 c 128,-1,30
 657 539 657 539 657 547 c 2,31,-1
 657 580 l 1,32,33
 463 750 463 750 460 750 c 1,34,-1
 460 573 l 1,35,-1
 663 0 l 1,36,-1
 542 0 l 1,37,-1
 358 479 l 1,38,-1
 173 0 l 1,39,-1
 50 0 l 1,40,-1
 255 573 l 1,41,-1
 255 750 l 1,42,-1
 50 573 l 1,43,-1
 50 717 l 1,44,-1
 296 922 l 1,45,-1
 296 956 l 1,46,-1
 296 1151 l 1,47,-1
 296 1229 l 1,0,-1
EndSplineSet
EndChar

StartChar: unie021
Encoding: 288 57377 32
Width: 1327
VWidth: 0
Flags: W
HStem: 0 43G<433 565 883 1013> 311 76<1088 1200> 350 78<172 324> 887 78<175 319>
VStem: 50 49<538 766> 628 193<573 750> 667 115<922 1229> 1007 57<417 603 723 924> 1220 57<412 924>
LayerCount: 2
Fore
SplineSet
667 1229 m 1,0,-1
 782 1229 l 1,1,-1
 782 922 l 1,2,-1
 1007 723 l 1,3,-1
 1007 924 l 1,4,-1
 1066 924 l 1,5,-1
 1064 516 l 1,6,-1
 1064 510 l 2,7,8
 1064 470 1064 470 1087 426 c 0,9,10
 1107 387 1107 387 1142 387 c 1,11,12
 1217 390 1217 390 1220 516 c 1,13,-1
 1220 651 l 1,14,-1
 1220 924 l 1,15,-1
 1277 924 l 1,16,-1
 1277 651 l 1,17,-1
 1277 516 l 1,18,-1
 1277 512 l 2,19,20
 1277 424 1277 424 1234 369 c 0,21,22
 1189 311 1189 311 1142 311 c 0,23,24
 1091 311 1091 311 1050 367 c 128,-1,25
 1009 423 1009 423 1009 508 c 2,26,-1
 1009 514 l 1,27,-1
 1009 547 l 2,28,29
 1009 555 1009 555 1008 566.5 c 128,-1,30
 1007 578 1007 578 1007 580 c 1,31,32
 1001 583 1001 583 954 627 c 0,33,34
 939 641 939 641 910 669 c 128,-1,35
 881 697 881 697 866 711 c 0,36,37
 824 750 824 750 820 750 c 1,38,-1
 820 573 l 1,39,-1
 1013 0 l 1,40,-1
 898 0 l 1,41,-1
 724 479 l 1,42,-1
 550 0 l 1,43,-1
 433 0 l 1,44,-1
 628 573 l 1,45,-1
 628 750 l 1,46,-1
 433 573 l 1,47,-1
 433 582 l 1,48,49
 414 482 414 482 364 418 c 0,50,51
 311 350 311 350 249 350 c 2,52,-1
 247 350 l 1,53,-1
 245 350 l 2,54,55
 174 350 174 350 112 446 c 0,56,57
 50 541 50 541 50 639 c 0,58,59
 50 766 50 766 114 864 c 128,-1,60
 178 962 178 962 247 965 c 1,61,62
 312 965 312 965 366 893 c 0,63,64
 420 822 420 822 435 719 c 1,65,-1
 667 922 l 1,66,-1
 667 956 l 1,67,-1
 667 1151 l 1,68,-1
 667 1229 l 1,0,-1
247 887 m 0,69,70
 195 887 195 887 147 811 c 0,71,72
 100 737 100 737 100 643 c 0,73,74
 100 568 100 568 145 500 c 0,75,76
 192 428 192 428 245 428 c 2,77,-1
 247 428 l 1,78,-1
 249 428 l 2,79,80
 305 428 305 428 349 500 c 0,81,82
 392 570 392 570 392 653 c 2,83,-1
 392 657 l 2,84,85
 392 744 392 744 345 815 c 0,86,87
 298 887 298 887 247 887 c 0,69,70
EndSplineSet
EndChar

StartChar: unie022
Encoding: 289 57378 33
Width: 995
VWidth: 0
Flags: W
HStem: 0 43G<50 189 526 665> 416 76<744 863> 594 63<788 818>
VStem: 255 205<573 750> 296 123<922 1229> 661 61<721 1028> 747 41<658 716> 773 61<717 1004> 818 41<658 716> 884 61<516 1028>
LayerCount: 2
Fore
SplineSet
804 717 m 0,0,1
 791 717 791 717 788 688 c 1,2,3
 788 657 788 657 804 657 c 0,4,5
 818 657 818 657 818 688 c 0,6,7
 818 717 818 717 804 717 c 0,0,1
753 1028 m 1,8,-1
 853 1028 l 1,9,10
 843 1018 l 2,11,12
 837 1012 837 1012 833 1004 c 1,13,14
 833 846 833 846 835 799 c 0,15,16
 835 786 835 786 847 737 c 0,17,18
 859 687 859 687 859 670 c 0,19,20
 859 648 859 648 841 621 c 128,-1,21
 823 594 823 594 802 594 c 2,22,-1
 800 594 l 2,23,24
 778 594 778 594 763 621 c 0,25,26
 747 650 747 650 747 672 c 0,27,28
 747 688 747 688 759 737 c 0,29,30
 773 795 773 795 773 799 c 2,31,-1
 773 1004 l 1,32,-1
 753 1028 l 1,8,-1
296 1229 m 1,33,-1
 419 1229 l 1,34,-1
 419 922 l 1,35,-1
 661 721 l 1,36,-1
 661 1028 l 1,37,-1
 722 1028 l 1,38,-1
 722 621 l 1,39,-1
 722 614 l 2,40,41
 722 570 722 570 743 530 c 0,42,43
 763 492 763 492 802 492 c 1,44,45
 881 495 881 495 884 621 c 1,46,-1
 884 756 l 1,47,-1
 884 1028 l 1,48,-1
 945 1028 l 1,49,-1
 945 756 l 1,50,-1
 945 621 l 1,51,-1
 945 616 l 2,52,53
 945 525 945 525 900 471 c 0,54,55
 854 416 854 416 802 416 c 0,56,57
 754 416 754 416 714 459 c 128,-1,58
 674 502 674 502 665 573 c 1,59,60
 650 588 650 588 562 664 c 0,61,62
 462 750 462 750 460 750 c 1,63,-1
 460 573 l 1,64,-1
 665 0 l 1,65,-1
 542 0 l 1,66,-1
 358 479 l 1,67,-1
 173 0 l 1,68,-1
 50 0 l 1,69,-1
 255 573 l 1,70,-1
 255 750 l 1,71,-1
 50 573 l 1,72,-1
 50 717 l 1,73,-1
 296 922 l 1,74,-1
 296 956 l 1,75,-1
 296 1151 l 1,76,-1
 296 1229 l 1,33,-1
EndSplineSet
EndChar

StartChar: unie023
Encoding: 290 57379 34
Width: 1018
VWidth: 0
Flags: W
HStem: 0 43G<50 182 500 632>
VStem: 245 193<573 750> 284 115<922 1229> 630 80<563 612 752 1096> 759 33<633 709> 841 33<756 776> 894 74<887 1023>
LayerCount: 2
Fore
SplineSet
284 1229 m 1,0,-1
 399 1229 l 1,1,-1
 399 922 l 1,2,-1
 630 719 l 1,3,-1
 628 1096 l 1,4,-1
 708 1096 l 1,5,-1
 708 752 l 1,6,7
 763 768 763 768 800 811 c 0,8,9
 833 849 833 849 851 891 c 0,10,11
 868 929 868 929 894 1004 c 1,12,-1
 894 1096 l 1,13,-1
 968 1006 l 1,14,15
 953 783 953 783 868 625 c 1,16,17
 780 496 780 496 630 481 c 1,18,-1
 630 575 l 1,19,20
 601 604 601 604 530 668 c 0,21,22
 439 750 439 750 437 750 c 1,23,-1
 437 573 l 1,24,-1
 632 0 l 1,25,-1
 515 0 l 1,26,-1
 341 479 l 1,27,-1
 167 0 l 1,28,-1
 50 0 l 1,29,-1
 245 573 l 1,30,-1
 245 750 l 1,31,-1
 50 573 l 1,32,-1
 50 717 l 1,33,-1
 284 922 l 1,34,-1
 284 956 l 1,35,-1
 284 1151 l 1,36,-1
 284 1229 l 1,0,-1
909 897 m 1,37,38
 905 885 905 885 874 825 c 1,39,-1
 874 756 l 1,40,41
 901 828 901 828 909 897 c 1,37,38
841 776 m 1,42,43
 819 751 819 751 792 733 c 1,44,-1
 792 633 l 1,45,46
 812 653 812 653 841 690 c 1,47,-1
 841 776 l 1,42,43
759 709 m 1,48,49
 736 693 736 693 710 684 c 1,50,-1
 710 563 l 1,51,52
 712 565 712 565 719.5 571.5 c 128,-1,53
 727 578 727 578 734 582 c 0,54,55
 749 592 749 592 759 602 c 1,56,-1
 759 709 l 1,48,49
EndSplineSet
EndChar

StartChar: unie024
Encoding: 291 57380 35
Width: 1428
VWidth: 0
Flags: W
HStem: 0 43G<50 189 526 665>
VStem: 255 205<573 750> 296 123<922 1229> 763 70<754 844>
LayerCount: 2
Fore
SplineSet
833 844 m 1,0,-1
 833 612 l 1,1,-1
 954 729 l 1,2,-1
 833 844 l 1,0,-1
296 1229 m 1,3,-1
 419 1229 l 1,4,-1
 419 922 l 1,5,-1
 665 717 l 1,6,-1
 763 754 l 1,7,-1
 763 1034 l 1,8,-1
 1019 791 l 1,9,-1
 1273 1036 l 1,10,-1
 1378 864 l 1,11,-1
 1302 801 l 1,12,-1
 1253 885 l 1,13,-1
 1087 727 l 1,14,-1
 1253 569 l 1,15,-1
 1302 657 l 1,16,-1
 1378 592 l 1,17,-1
 1273 424 l 1,18,-1
 1019 666 l 1,19,-1
 763 424 l 1,20,-1
 763 594 l 1,21,-1
 665 571 l 1,22,-1
 665 573 l 1,23,24
 464 750 464 750 460 750 c 1,25,-1
 460 573 l 1,26,-1
 665 0 l 1,27,-1
 542 0 l 1,28,-1
 358 479 l 1,29,-1
 173 0 l 1,30,-1
 50 0 l 1,31,-1
 255 573 l 1,32,-1
 255 750 l 1,33,-1
 50 573 l 1,34,-1
 50 717 l 1,35,-1
 296 922 l 1,36,-1
 296 956 l 1,37,-1
 296 1151 l 1,38,-1
 296 1229 l 1,3,-1
EndSplineSet
EndChar

StartChar: unie025
Encoding: 292 57381 36
Width: 1325
VWidth: 0
Flags: W
HStem: 0 43G<50 184 508 642> 756 70<892 1052> 895 70<892 1119> 1057 63<863 1169>
VStem: 247 199<573 750> 286 119<922 1229> 814 80<821 895>
LayerCount: 2
Fore
SplineSet
796 514 m 1,0,1
 776 460 776 460 761 442 c 1,2,3
 803 464 803 464 843 504 c 1,4,-1
 796 514 l 1,0,1
839 627 m 1,5,6
 836 618 l 2,7,8
 833 608 833 608 831 602 c 0,9,10
 829 595 829 595 826 590 c 0,11,12
 823 583 823 583 822 580 c 1,13,-1
 902 561 l 1,14,15
 907 566 907 566 927 590 c 0,16,17
 932 595 932 595 939 605 c 128,-1,18
 946 615 946 615 949 618 c 1,19,-1
 839 627 l 1,5,6
1052 756 m 1,20,-1
 882 752 l 2,21,22
 882 751 882 751 881 747 c 0,23,24
 879 744 879 744 878 741 c 0,25,26
 875 733 875 733 872 724 c 0,27,28
 869 714 869 714 867 707 c 128,-1,29
 865 700 865 700 863 696 c 1,30,-1
 1001 684 l 1,31,32
 1003 687 1003 687 1010.5 696 c 128,-1,33
 1018 705 1018 705 1023 713 c 2,34,-1
 1048 748 l 2,35,36
 1050 750 1050 750 1050 752 c 128,-1,37
 1050 754 1050 754 1052 756 c 1,20,-1
1119 905 m 1,38,-1
 892 895 l 2,39,40
 892 894 892 894 893 888 c 128,-1,41
 894 882 894 882 894 877 c 2,42,-1
 894 858 l 1,43,-1
 894 840 l 2,44,45
 894 836 894 836 893 829 c 128,-1,46
 892 822 892 822 892 821 c 2,47,-1
 1087 825 l 1,48,49
 1112 883 1112 883 1119 905 c 1,38,-1
863 1057 m 1,50,51
 876 1017 876 1017 886 965 c 1,52,-1
 1144 977 l 1,53,54
 1145 981 1145 981 1154 1008 c 0,55,56
 1156 1014 1156 1014 1160 1023 c 128,-1,57
 1164 1032 1164 1032 1165 1036 c 128,-1,58
 1166 1040 1166 1040 1167 1046 c 128,-1,59
 1168 1052 1168 1052 1169 1055 c 1,60,-1
 863 1057 l 1,50,51
286 1229 m 1,61,-1
 405 1229 l 1,62,-1
 405 922 l 1,63,-1
 640 719 l 1,64,-1
 814 801 l 1,65,-1
 814 813 l 2,66,67
 814 974 814 974 753 1120 c 1,68,-1
 1275 1116 l 1,69,70
 1260 1025 1260 1025 1195 889 c 0,71,72
 1123 738 1123 738 1074 674 c 1,73,74
 1052 640 1052 640 1021 604 c 0,75,76
 994 573 994 573 970 549 c 0,77,78
 941 520 941 520 911 496 c 0,79,80
 897 485 897 485 878.5 471.5 c 128,-1,81
 860 458 860 458 857 455 c 0,82,83
 832 435 832 435 796 414 c 0,84,85
 761 394 761 394 739 379 c 0,86,87
 737 377 737 377 728.5 372.5 c 128,-1,88
 720 368 720 368 704 359 c 128,-1,89
 688 350 688 350 671 340 c 0,90,91
 613 306 613 306 605 303 c 1,92,93
 608 309 608 309 622 331.5 c 128,-1,94
 636 354 636 354 646 371 c 0,95,96
 664 402 664 402 689 442 c 0,97,98
 711 478 711 478 726 506 c 0,99,100
 755 562 755 562 763 582 c 0,101,102
 781 627 781 627 790 655 c 1,103,-1
 642 575 l 1,104,-1
 642 573 l 1,105,106
 447 750 447 750 446 750 c 1,107,-1
 446 573 l 1,108,-1
 642 0 l 1,109,-1
 523 0 l 1,110,-1
 345 479 l 1,111,-1
 169 0 l 1,112,-1
 50 0 l 1,113,-1
 247 573 l 1,114,-1
 247 750 l 1,115,-1
 50 573 l 1,116,-1
 50 717 l 1,117,-1
 286 922 l 1,118,-1
 286 956 l 1,119,-1
 286 1151 l 1,120,-1
 286 1229 l 1,61,-1
EndSplineSet
EndChar

StartChar: unie026
Encoding: 293 57382 37
Width: 715
VWidth: 0
Flags: W
HStem: 0 43G<50 194 521 665> 479 162<52 124 196 257 460 521 593 665> 598 43<124 196 257 306 409 460 521 593>
VStem: 52 72<479 598> 196 61<479 598> 306 102<471 598 641 891 1024 1229> 460 61<479 598> 593 72<479 598>
LayerCount: 2
Fore
SplineSet
296 1229 m 1,0,-1
 419 1229 l 1,1,-1
 419 1024 l 1,2,-1
 665 860 l 1,3,-1
 663 717 l 1,4,5
 416 891 416 891 409 891 c 1,6,-1
 409 641 l 1,7,-1
 665 641 l 1,8,-1
 665 479 l 1,9,-1
 593 479 l 1,10,-1
 593 598 l 1,11,-1
 521 598 l 1,12,-1
 521 479 l 1,13,-1
 460 479 l 1,14,-1
 460 598 l 1,15,-1
 409 598 l 1,16,-1
 409 471 l 1,17,-1
 665 0 l 1,18,-1
 542 0 l 1,19,-1
 358 369 l 1,20,-1
 173 0 l 1,21,-1
 50 0 l 1,22,-1
 306 471 l 1,23,-1
 306 598 l 1,24,-1
 257 598 l 1,25,-1
 257 479 l 1,26,-1
 196 479 l 1,27,-1
 196 598 l 1,28,-1
 124 598 l 1,29,-1
 124 479 l 1,30,-1
 52 479 l 1,31,-1
 52 641 l 1,32,-1
 306 641 l 1,33,-1
 306 893 l 1,34,-1
 50 717 l 1,35,-1
 50 860 l 1,36,-1
 296 1024 l 1,37,-1
 296 1049 l 1,38,-1
 296 1161 l 1,39,-1
 296 1229 l 1,0,-1
EndSplineSet
EndChar

StartChar: unie027
Encoding: 294 57383 38
Width: 813
VWidth: 0
Flags: W
HStem: 0 43G<50 189 524 663>
VStem: 253 205<573 750> 294 123<922 1229>
LayerCount: 2
Fore
SplineSet
294 1229 m 1,0,-1
 417 1229 l 1,1,-1
 417 922 l 1,2,-1
 663 717 l 1,3,-1
 663 573 l 1,4,5
 462 750 462 750 458 750 c 1,6,-1
 458 573 l 1,7,-1
 462 561 l 1,8,-1
 464 567 l 1,9,-1
 763 365 l 1,10,-1
 726 303 l 1,11,-1
 497 469 l 1,12,-1
 663 0 l 1,13,-1
 540 0 l 1,14,-1
 356 479 l 1,15,-1
 173 0 l 1,16,-1
 50 0 l 1,17,-1
 253 573 l 1,18,-1
 253 750 l 1,19,-1
 50 573 l 1,20,-1
 50 717 l 1,21,-1
 294 922 l 1,22,-1
 294 956 l 1,23,-1
 294 1151 l 1,24,-1
 294 1229 l 1,0,-1
EndSplineSet
EndChar

StartChar: unie028
Encoding: 295 57384 39
Width: 711
VWidth: 0
Flags: W
HStem: 0 43G<50 173 475 599>
VStem: 233 182<529 750> 270 109<922 1229>
LayerCount: 2
Fore
SplineSet
409 236 m 1,0,-1
 333 197 l 1,1,-1
 364 123 l 1,2,-1
 433 160 l 1,3,-1
 409 236 l 1,0,-1
575 319 m 1,4,-1
 507 285 l 1,5,-1
 532 209 l 1,6,-1
 605 248 l 1,7,-1
 575 319 l 1,4,-1
270 1229 m 1,8,-1
 378 1229 l 1,9,-1
 378 922 l 1,10,-1
 599 717 l 1,11,-1
 597 573 l 1,12,13
 417 750 417 750 415 750 c 1,14,-1
 415 573 l 1,15,-1
 495 324 l 1,16,-1
 599 379 l 1,17,-1
 661 231 l 1,18,-1
 544 172 l 1,19,-1
 599 0 l 1,20,-1
 489 0 l 1,21,-1
 448 121 l 1,22,-1
 339 66 l 1,23,-1
 278 211 l 1,24,-1
 394 272 l 1,25,-1
 325 479 l 1,26,-1
 159 0 l 1,27,-1
 50 0 l 1,28,-1
 233 573 l 1,29,-1
 233 750 l 1,30,-1
 50 573 l 1,31,-1
 50 717 l 1,32,-1
 270 922 l 1,33,-1
 270 956 l 1,34,-1
 270 1151 l 1,35,-1
 270 1229 l 1,8,-1
EndSplineSet
EndChar

StartChar: unie029
Encoding: 296 57385 40
Width: 1071
VWidth: 0
Flags: W
HStem: 2 41G<50 187 524 663 874 1021>
VStem: 253 205<575 750> 294 123<922 1229>
LayerCount: 2
Fore
SplineSet
294 1229 m 1,0,-1
 417 1229 l 1,1,-1
 417 922 l 1,2,-1
 663 717 l 1,3,-1
 663 575 l 1,4,5
 464 750 464 750 458 750 c 1,6,-1
 458 575 l 1,7,-1
 597 186 l 1,8,-1
 755 410 l 1,9,-1
 1021 0 l 1,10,-1
 898 0 l 1,11,-1
 767 217 l 1,12,-1
 659 12 l 1,13,-1
 663 2 l 1,14,-1
 540 2 l 1,15,-1
 356 481 l 1,16,-1
 171 2 l 1,17,-1
 50 2 l 1,18,-1
 253 575 l 1,19,-1
 253 752 l 1,20,-1
 50 575 l 1,21,-1
 50 717 l 1,22,-1
 294 922 l 1,23,-1
 294 956 l 1,24,-1
 294 1151 l 1,25,-1
 294 1229 l 1,0,-1
EndSplineSet
EndChar

StartChar: unie02a
Encoding: 297 57386 41
Width: 1022
VWidth: 0
Flags: W
HStem: 2 43G<232 295 731 795>
VStem: 50 55<194 322> 421 51<194 323> 452 119<1047 1229> 550 55<194 322> 921 51<194 323>
LayerCount: 2
Fore
SplineSet
452 1229 m 1,0,-1
 571 1229 l 1,1,-1
 571 1047 l 1,2,-1
 812 926 l 1,3,-1
 812 842 l 1,4,5
 617 946 617 946 612 946 c 1,6,-1
 612 842 l 1,7,-1
 808 512 l 1,8,9
 884 491 884 491 927 418 c 0,10,11
 972 342 972 342 972 256 c 1,12,13
 969 151 969 151 917 78 c 0,14,15
 863 2 863 2 761 2 c 0,16,17
 676 2 676 2 612 78 c 0,18,19
 550 152 550 152 550 258 c 0,20,21
 550 345 550 345 589 410 c 0,22,23
 630 479 630 479 691 504 c 1,24,-1
 511 786 l 1,25,-1
 331 504 l 1,26,-1
 329 504 l 1,27,28
 399 476 399 476 435 408 c 0,29,30
 472 338 472 338 472 256 c 1,31,32
 469 151 469 151 417 78 c 0,33,34
 363 2 363 2 261 2 c 0,35,36
 176 2 176 2 112 78 c 0,37,38
 50 152 50 152 50 258 c 0,39,40
 50 354 50 354 95 422 c 128,-1,41
 140 490 140 490 214 512 c 1,42,-1
 411 842 l 1,43,-1
 411 946 l 1,44,-1
 210 842 l 1,45,-1
 210 926 l 1,46,-1
 452 1047 l 1,47,-1
 452 1069 l 1,48,-1
 452 1182 l 1,49,-1
 452 1229 l 1,0,-1
237 469 m 1,50,51
 206 462 206 462 177 436 c 0,52,53
 145 407 145 407 132 377 c 1,54,-1
 181 358 l 1,55,-1
 239 299 l 1,56,-1
 229 385 l 1,57,-1
 237 469 l 1,50,51
290 469 m 1,58,-1
 298 385 l 1,59,-1
 288 299 l 1,60,-1
 345 358 l 1,61,-1
 394 377 l 1,62,63
 381 407 381 407 349 436 c 0,64,65
 320 462 320 462 290 469 c 1,58,-1
736 469 m 1,66,67
 706 462 706 462 677 436 c 0,68,69
 645 407 645 407 632 377 c 1,70,-1
 681 358 l 1,71,-1
 739 299 l 1,72,-1
 728 385 l 1,73,-1
 736 469 l 1,66,67
790 469 m 1,74,-1
 798 385 l 1,75,-1
 786 299 l 1,76,-1
 845 358 l 1,77,-1
 894 377 l 1,78,79
 881 407 881 407 849 436 c 0,80,81
 820 462 820 462 790 469 c 1,74,-1
413 324 m 1,82,-1
 384 289 l 1,83,-1
 313 258 l 1,84,-1
 384 227 l 1,85,-1
 413 193 l 1,86,87
 421 226 421 226 421 258 c 0,88,89
 421 291 421 291 413 324 c 1,82,-1
913 324 m 1,90,-1
 884 289 l 1,91,-1
 812 258 l 1,92,-1
 884 227 l 1,93,-1
 913 193 l 1,94,95
 921 226 921 226 921 258 c 0,96,97
 921 291 921 291 913 324 c 1,90,-1
114 324 m 1,98,99
 106 291 106 291 106 258 c 0,100,101
 106 226 106 226 114 193 c 1,102,-1
 143 227 l 1,103,-1
 212 258 l 1,104,-1
 143 289 l 1,105,-1
 114 324 l 1,98,99
612 324 m 1,106,107
 605 292 605 292 605 258 c 0,108,109
 605 230 605 230 614 193 c 1,110,-1
 642 227 l 1,111,-1
 712 258 l 1,112,-1
 642 289 l 1,113,-1
 612 324 l 1,106,107
239 217 m 1,114,-1
 181 156 l 1,115,-1
 132 139 l 1,116,117
 145 109 145 109 177 80 c 0,118,119
 206 54 206 54 237 47 c 1,120,-1
 229 131 l 1,121,-1
 239 217 l 1,114,-1
288 217 m 1,122,-1
 298 131 l 1,123,-1
 290 47 l 1,124,125
 320 54 320 54 349 80 c 0,126,127
 381 109 381 109 394 139 c 1,128,-1
 345 156 l 1,129,-1
 288 217 l 1,122,-1
739 217 m 1,130,-1
 681 156 l 1,131,-1
 632 139 l 1,132,133
 645 109 645 109 677 80 c 0,134,135
 706 54 706 54 736 47 c 1,136,-1
 728 131 l 1,137,-1
 739 217 l 1,130,-1
786 217 m 1,138,-1
 798 131 l 1,139,-1
 790 47 l 1,140,141
 820 54 820 54 849 80 c 0,142,143
 881 109 881 109 894 139 c 1,144,-1
 845 156 l 1,145,-1
 786 217 l 1,138,-1
EndSplineSet
EndChar

StartChar: unie02b
Encoding: 298 57387 42
Width: 1018
VWidth: 0
Flags: W
HStem: 0 111<50 241 368 650 777 968>
VStem: 407 205<575 750> 448 123<922 1229>
LayerCount: 2
Fore
SplineSet
368 111 m 1,0,-1
 650 111 l 1,1,-1
 509 481 l 1,2,-1
 368 111 l 1,0,-1
50 0 m 1,3,-1
 50 111 l 1,4,-1
 241 111 l 1,5,-1
 407 575 l 1,6,-1
 407 752 l 1,7,-1
 202 575 l 1,8,-1
 202 717 l 1,9,-1
 448 922 l 1,10,-1
 448 956 l 1,11,-1
 448 1151 l 1,12,-1
 448 1229 l 1,13,-1
 571 1229 l 1,14,-1
 571 922 l 1,15,-1
 816 717 l 1,16,-1
 816 575 l 1,17,18
 617 750 617 750 612 750 c 1,19,-1
 612 575 l 1,20,-1
 777 111 l 1,21,-1
 968 111 l 1,22,-1
 968 0 l 1,23,-1
 50 0 l 1,3,-1
EndSplineSet
EndChar

StartChar: unie02c
Encoding: 299 57388 43
Width: 1225
VWidth: 0
Flags: W
HStem: 0 43G<50 197 500 648> 311 102<802 1018>
VStem: 61 125<296 423> 161 92<87 279> 290 119<578 749 922 1229> 442 90<60 269> 530 104<310 428> 642 113<467 621 723 1128> 1058 115<453 1128>
LayerCount: 2
Fore
SplineSet
290 1229 m 1,0,-1
 409 1229 l 1,1,-1
 409 922 l 1,2,-1
 642 723 l 1,3,-1
 642 1128 l 1,4,-1
 757 1128 l 1,5,-1
 755 584 l 1,6,-1
 755 575 l 2,7,8
 755 514 755 514 796 465 c 0,9,10
 838 414 838 414 906 414 c 1,11,12
 1055 417 1055 417 1058 584 c 1,13,-1
 1058 698 l 1,14,-1
 1058 1014 l 1,15,-1
 1058 1128 l 1,16,-1
 1173 1128 l 1,17,18
 1173 950 l 2,19,20
 1173 904 1173 904 1174 842.5 c 128,-1,21
 1175 781 1175 781 1175 766 c 0,22,23
 1175 623 1175 623 1173 584 c 1,24,-1
 1173 580 l 2,25,26
 1173 463 1173 463 1091 387 c 128,-1,27
 1009 311 1009 311 906 311 c 0,28,29
 805 311 805 311 726 387 c 0,30,31
 644 466 644 466 644 578 c 1,32,33
 626 596 626 596 591 627 c 0,34,35
 513 696 513 696 497 711 c 0,36,37
 455 750 455 750 450 750 c 0,38,39
 426 750 426 750 411 723 c 0,40,41
 397 698 397 698 397 676 c 0,42,43
 397 617 397 617 454 578 c 1,44,45
 634 465 634 465 634 356 c 0,46,47
 634 340 634 340 632 334 c 1,48,49
 532 234 532 234 532 156 c 0,50,51
 532 124 532 124 546 102 c 0,52,53
 566 70 566 70 575 61 c 0,54,55
 580 56 580 56 594.5 44.5 c 128,-1,56
 609 33 609 33 616 27 c 128,-1,57
 623 21 623 21 630 15 c 128,-1,58
 637 9 637 9 641.5 5.5 c 128,-1,59
 646 2 646 2 648 0 c 1,60,-1
 530 0 l 1,61,62
 442 85 442 85 442 162 c 0,63,64
 442 214 442 214 485 281 c 0,65,66
 530 351 530 351 530 371 c 0,67,68
 530 433 530 433 349 479 c 1,69,70
 186 421 186 421 186 358 c 0,71,72
 186 331 186 331 218 274 c 0,73,74
 253 212 253 212 253 166 c 0,75,76
 253 87 253 87 169 0 c 1,77,-1
 50 0 l 1,78,79
 59 29 59 29 112 82 c 0,80,81
 161 131 161 131 161 172 c 0,82,83
 161 236 161 236 73 334 c 1,84,85
 61 355 61 355 61 379 c 0,86,87
 61 386 61 386 65 406 c 0,88,89
 67 416 67 416 79 432 c 0,90,91
 82 436 82 436 87 443.5 c 128,-1,92
 92 451 92 451 95 455 c 0,93,94
 102 465 102 465 120 479 c 0,95,96
 130 487 130 487 145 502 c 0,97,98
 155 512 155 512 173 524 c 0,99,100
 180 528 180 528 189 534 c 128,-1,101
 198 540 198 540 200 541 c 2,102,-1
 227 559 l 2,103,104
 232 562 232 562 237.5 565.5 c 128,-1,105
 243 569 243 569 245.5 570.5 c 128,-1,106
 248 572 248 572 249 573 c 0,107,108
 280 601 280 601 280 639 c 0,109,110
 280 662 280 662 276 674 c 0,111,112
 270 692 270 692 261 713 c 0,113,114
 252 733 252 733 249 750 c 1,115,-1
 50 573 l 1,116,-1
 50 717 l 1,117,-1
 290 922 l 1,118,-1
 290 956 l 1,119,-1
 290 1151 l 1,120,-1
 290 1229 l 1,0,-1
EndSplineSet
EndChar

StartChar: unie02d
Encoding: 300 57389 44
Width: 1124
VWidth: 0
Flags: W
HStem: 4 145<184 243 276 377> 23 127<243 377> 207 88<252 370> 238 117<705 911>
VStem: 108 219<760 896> 370 74<312 356> 960 115<404 750>
LayerCount: 2
Fore
SplineSet
419 168 m 1,0,-1
 425 170 l 1,1,-1
 474 182 l 1,2,-1
 423 215 l 1,3,-1
 419 168 l 1,0,-1
249 283 m 1,4,5
 351 295 351 295 356 295 c 1,6,7
 370 303 370 303 370 338 c 0,8,9
 370 356 370 356 364 356 c 0,10,11
 360 356 360 356 358 354 c 2,12,-1
 249 283 l 1,4,5
214 492 m 1,13,-1
 208 348 l 1,14,-1
 366 465 l 1,15,-1
 214 492 l 1,13,-1
929 1229 m 1,16,17
 964 1079 964 1079 972 1042 c 0,18,19
 978 1013 978 1013 996.5 934 c 128,-1,20
 1015 855 1015 855 1023 815 c 0,21,22
 1030 778 1030 778 1044.5 715 c 128,-1,23
 1059 652 1059 652 1064 625 c 0,24,25
 1074 573 1074 573 1074 545 c 0,26,27
 1074 434 1074 434 1013 352 c 0,28,29
 949 267 949 267 868 246 c 1,30,31
 844 238 844 238 806 238 c 0,32,33
 714 238 714 238 638 299 c 0,34,35
 559 362 559 362 538 471 c 0,36,37
 537 475 537 475 532.5 492 c 128,-1,38
 528 509 528 509 526 520 c 128,-1,39
 524 531 524 531 520 547 c 128,-1,40
 516 563 516 563 515 567 c 1,41,-1
 425 467 l 1,42,43
 428 461 428 461 448 451 c 0,44,45
 466 442 466 442 466 428 c 1,46,-1
 462 412 l 1,47,48
 451 397 451 397 448 383 c 0,49,50
 444 363 444 363 444 344 c 0,51,52
 444 323 444 323 440 311 c 1,53,54
 461 284 461 284 505 260 c 0,55,56
 534 244 534 244 579 217 c 0,57,58
 607 200 607 200 607 182 c 2,59,-1
 607 176 l 1,60,-1
 607 166 l 2,61,62
 607 152 607 152 597 139 c 0,63,64
 585 123 585 123 579 119 c 0,65,66
 576 117 576 117 564.5 111.5 c 128,-1,67
 553 106 553 106 546 102 c 0,68,69
 519 87 519 87 517 86 c 0,70,71
 509 82 509 82 489 78 c 128,-1,72
 469 74 469 74 454 74 c 0,73,74
 429 74 429 74 423 72 c 1,75,-1
 476 23 l 1,76,-1
 403 6 l 2,77,78
 402 6 402 6 400 5 c 128,-1,79
 398 4 398 4 397 4 c 2,80,-1
 388 4 l 2,81,82
 365 4 365 4 329 12 c 0,83,84
 280 23 280 23 276 23 c 0,85,86
 252 23 252 23 243 4 c 0,87,88
 243 2 243 2 239 2 c 0,89,90
 228 2 228 2 210 20 c 0,91,92
 195 35 195 35 175 59 c 1,93,-1
 161 78 l 1,94,95
 151 95 151 95 151 102 c 0,96,97
 151 115 151 115 167 141 c 1,98,-1
 362 150 l 1,99,100
 384 169 384 169 376 201 c 1,101,102
 352 204 352 204 237 207 c 0,103,104
 124 210 124 210 65 231 c 1,105,106
 50 249 50 249 50 281 c 0,107,108
 50 323 50 323 81 371 c 1,109,110
 61 541 61 541 61 582 c 0,111,112
 61 687 61 687 116 739 c 1,113,114
 108 802 108 802 108 829 c 0,115,116
 108 882 108 882 128 905 c 0,117,118
 150 930 150 930 210 930 c 0,119,120
 211 930 211 930 261 926 c 1,121,122
 318 858 318 858 327 760 c 1,123,-1
 296 764 l 1,124,125
 308 723 308 723 290 705 c 1,126,-1
 274 705 l 1,127,-1
 339 696 l 1,128,-1
 458 819 l 1,129,130
 455 831 455 831 446 872 c 128,-1,131
 437 913 437 913 425 966 c 128,-1,132
 413 1019 413 1019 399 1075 c 1,133,-1
 513 1108 l 1,134,-1
 648 504 l 1,135,136
 656 450 656 450 702 401 c 0,137,138
 746 354 746 354 804 354 c 0,139,140
 825 354 825 354 843 360 c 0,141,142
 960 400 960 400 960 518 c 0,143,144
 960 561 960 561 952 592 c 1,145,146
 944 628 944 628 919.5 732.5 c 128,-1,147
 895 837 895 837 882 893 c 0,148,149
 833 1106 833 1106 814 1196 c 1,150,-1
 929 1229 l 1,16,17
480 721 m 1,151,-1
 380 582 l 1,152,-1
 493 662 l 1,153,154
 490 671 490 671 487 692 c 0,155,156
 485 706 485 706 480 721 c 1,151,-1
EndSplineSet
EndChar

StartChar: unie02e
Encoding: 301 57390 45
Width: 1329
VWidth: 0
Flags: W
HStem: 4 145<526 573 600 687> 23 127<573 687> 207 88<581 681> 238 117<962 1140>
VStem: 435 106<365 432> 458 184<762 904> 1183 96<397 776>
LayerCount: 2
Fore
SplineSet
1154 1229 m 1,0,1
 1166 1162 1166 1162 1205 969 c 0,2,3
 1240 795 1240 795 1271 625 c 1,4,5
 1279 589 1279 589 1279 545 c 0,6,7
 1279 438 1279 438 1226 352 c 0,8,9
 1174 267 1174 267 1103 246 c 1,10,11
 1084 238 1084 238 1050 238 c 0,12,13
 973 238 973 238 906 299 c 0,14,15
 841 358 841 358 822 471 c 0,16,17
 821 475 821 475 818.5 492 c 128,-1,18
 816 509 816 509 814 520 c 128,-1,19
 812 531 812 531 808.5 547 c 128,-1,20
 805 563 805 563 804 567 c 1,21,-1
 726 467 l 1,22,23
 728 462 728 462 747 451 c 0,24,25
 761 443 761 443 761 428 c 0,26,27
 761 416 761 416 759 412 c 0,28,29
 748 394 748 394 739 311 c 1,30,31
 756 286 756 286 796 260 c 0,32,33
 821 244 821 244 857 217 c 0,34,35
 882 198 882 198 882 182 c 2,36,-1
 882 176 l 1,37,-1
 882 166 l 2,38,39
 882 150 882 150 874 139 c 0,40,41
 861 122 861 122 857 119 c 0,42,43
 855 118 855 118 846.5 112.5 c 128,-1,44
 838 107 838 107 831 102 c 0,45,46
 810 88 810 88 806 86 c 0,47,48
 799 81 799 81 782 78 c 0,49,50
 762 74 762 74 751 74 c 0,51,52
 730 74 730 74 724 72 c 1,53,-1
 769 23 l 1,54,-1
 708 6 l 2,55,56
 707 6 707 6 705 5 c 128,-1,57
 703 4 703 4 702 4 c 2,58,-1
 696 4 l 2,59,60
 675 4 675 4 644 12 c 0,61,62
 602 23 602 23 599 23 c 0,63,64
 579 23 579 23 573 4 c 0,65,66
 573 2 573 2 571 2 c 0,67,68
 563 2 563 2 548 20 c 0,69,70
 543 26 543 26 532.5 39.5 c 128,-1,71
 522 53 522 53 517 59 c 2,72,-1
 503 78 l 2,73,74
 495 89 495 89 495 100 c 0,75,76
 495 116 495 116 509 141 c 1,77,-1
 673 150 l 1,78,79
 694 171 694 171 685 201 c 1,80,81
 665 204 665 204 566 207 c 0,82,83
 470 210 470 210 421 231 c 1,84,85
 409 252 409 252 409 281 c 0,86,87
 409 299 409 299 411 305 c 1,88,-1
 370 393 l 1,89,-1
 331 367 l 1,90,-1
 376 270 l 1,91,-1
 339 246 l 1,92,-1
 294 342 l 1,93,-1
 255 315 l 1,94,-1
 302 219 l 1,95,-1
 263 195 l 1,96,-1
 218 291 l 1,97,-1
 179 264 l 1,98,-1
 227 170 l 1,99,-1
 190 143 l 1,100,-1
 143 240 l 1,101,-1
 85 203 l 1,102,-1
 50 272 l 1,103,-1
 108 311 l 1,104,-1
 61 410 l 1,105,-1
 98 434 l 1,106,-1
 145 336 l 1,107,-1
 184 360 l 1,108,-1
 134 461 l 1,109,-1
 173 485 l 1,110,-1
 220 387 l 1,111,-1
 259 412 l 1,112,-1
 210 512 l 1,113,-1
 247 537 l 1,114,-1
 296 436 l 1,115,-1
 335 463 l 1,116,-1
 286 563 l 1,117,-1
 323 588 l 1,118,-1
 372 487 l 1,119,-1
 411 514 l 1,120,-1
 362 612 l 1,121,-1
 399 637 l 1,122,-1
 417 602 l 1,123,124
 420 692 420 692 464 739 c 1,125,126
 458 792 458 792 458 829 c 0,127,128
 458 881 458 881 476 905 c 0,129,130
 495 930 495 930 544 930 c 0,131,132
 547 930 547 930 552 929.5 c 128,-1,133
 557 929 557 929 567.5 928 c 128,-1,134
 578 927 578 927 587 926 c 1,135,136
 633 860 633 860 642 762 c 1,137,-1
 618 764 l 1,138,139
 627 723 627 723 612 705 c 1,140,-1
 599 705 l 1,141,-1
 655 696 l 1,142,-1
 755 819 l 1,143,144
 737 905 737 905 730 946 c 0,145,146
 715 1032 715 1032 706 1075 c 1,147,-1
 802 1108 l 1,148,-1
 917 504 l 1,149,150
 926 443 926 443 960 401 c 0,151,152
 998 354 998 354 1048 354 c 0,153,154
 1066 354 1066 354 1081 360 c 0,155,156
 1183 400 1183 400 1183 518 c 0,157,158
 1183 545 1183 545 1175 592 c 0,159,160
 1174 601 1174 601 1115 893 c 0,161,162
 1085 1043 1085 1043 1058 1196 c 1,163,-1
 1154 1229 l 1,0,1
773 721 m 1,164,-1
 687 582 l 1,165,-1
 784 662 l 1,166,167
 783 666 783 666 779 692 c 0,168,169
 776 711 776 711 773 721 c 1,164,-1
548 492 m 1,170,-1
 542 348 l 1,171,-1
 677 465 l 1,172,-1
 548 492 l 1,170,-1
429 432 m 1,173,-1
 407 418 l 1,174,-1
 431 365 l 1,175,-1
 433 367 l 2,176,177
 435 369 435 369 435 371 c 2,178,-1
 429 432 l 1,173,-1
675 356 m 0,179,180
 673 356 673 356 671 354 c 2,181,-1
 579 283 l 1,182,183
 664 295 664 295 667 295 c 1,184,185
 681 303 681 303 681 342 c 0,186,187
 681 356 681 356 675 356 c 0,179,180
726 215 m 1,188,-1
 722 168 l 1,189,-1
 726 170 l 1,190,-1
 769 182 l 1,191,-1
 726 215 l 1,188,-1
EndSplineSet
EndChar

StartChar: unie02f
Encoding: 302 57391 46
Width: 608
VWidth: 0
Flags: W
HStem: 2 43G<61 149> 631 92<348 465> 1098 129<227 338>
VStem: 61 88<27 461> 136 90<865 1097> 476 82<557 949>
LayerCount: 2
Fore
SplineSet
253 1098 m 1,0,1
 227 1095 227 1095 227 1034 c 0,2,3
 227 949 227 949 265 877 c 1,4,5
 297 812 297 812 349 766 c 0,6,7
 398 723 398 723 437 723 c 0,8,9
 440 723 440 723 456 727 c 1,10,11
 476 747 476 747 476 799 c 0,12,13
 476 871 476 871 444 936 c 1,14,15
 411 995 411 995 354 1049 c 0,16,17
 300 1100 300 1100 261 1100 c 0,18,19
 257 1100 257 1100 255 1098 c 1,20,-1
 253 1098 l 1,0,1
190 848 m 1,21,22
 136 939 136 939 136 1067 c 0,23,24
 136 1212 136 1212 200 1227 c 1,25,-1
 208 1227 l 2,26,27
 324 1227 324 1227 440 1090 c 0,28,29
 558 951 558 951 558 805 c 1,30,31
 555 479 555 479 513 307 c 0,32,33
 470 130 470 130 364 43 c 1,34,-1
 149 461 l 1,35,-1
 149 2 l 1,36,-1
 61 27 l 1,37,-1
 50 633 l 1,38,-1
 169 629 l 1,39,-1
 374 168 l 1,40,41
 467 308 467 308 485 641 c 1,42,43
 462 631 462 631 442 631 c 0,44,45
 376 631 376 631 306 692 c 0,46,47
 237 752 237 752 190 848 c 1,21,22
EndSplineSet
EndChar

StartChar: unie030
Encoding: 303 57392 47
Width: 815
VWidth: 0
Flags: W
HStem: 2 43G<63 141> 631 92<319 425> 1098 131<211 239 243 311>
VStem: 63 78<27 461> 130 80<866 1097> 435 74<728 951>
LayerCount: 2
Fore
SplineSet
243 1100 m 1,0,-1
 239 1098 l 1,1,-1
 235 1098 l 1,2,3
 210 1095 210 1095 210 1032 c 0,4,5
 210 955 210 955 245 877 c 1,6,7
 271 816 271 816 321 766 c 0,8,9
 364 723 364 723 399 723 c 0,10,11
 401 723 401 723 417 727 c 1,12,13
 435 751 435 751 435 799 c 0,14,15
 435 863 435 863 407 936 c 1,16,17
 381 995 381 995 327 1049 c 0,18,19
 276 1100 276 1100 243 1100 c 1,0,-1
194 1229 m 1,20,21
 299 1229 299 1229 403 1092 c 0,22,23
 509 953 509 953 509 809 c 2,24,-1
 509 713 l 1,25,-1
 765 639 l 1,26,-1
 745 543 l 1,27,-1
 505 608 l 1,28,29
 505 565 l 2,30,31
 505 544 505 544 501 524 c 1,32,-1
 726 461 l 1,33,-1
 704 365 l 1,34,-1
 491 424 l 1,35,36
 490 421 490 421 488.5 406 c 128,-1,37
 487 391 487 391 485 381 c 0,38,39
 479 354 479 354 476 342 c 1,40,-1
 685 283 l 1,41,-1
 663 186 l 1,42,-1
 454 244 l 1,43,44
 446 228 446 228 423 168 c 1,45,-1
 644 104 l 1,46,-1
 622 8 l 1,47,-1
 370 80 l 1,48,49
 347 50 347 50 335 43 c 1,50,-1
 141 461 l 1,51,-1
 141 2 l 1,52,-1
 63 27 l 1,53,-1
 50 633 l 1,54,-1
 159 629 l 1,55,-1
 343 168 l 1,56,57
 424 306 424 306 442 641 c 1,58,59
 419 631 419 631 403 631 c 0,60,61
 344 631 344 631 280 692 c 0,62,63
 215 754 215 754 177 850 c 1,64,65
 130 939 130 939 130 1067 c 0,66,67
 130 1212 130 1212 188 1227 c 1,68,69
 192 1227 192 1227 194 1229 c 1,20,21
EndSplineSet
EndChar

StartChar: unie031
Encoding: 304 57393 48
Width: 713
VWidth: 0
Flags: W
HStem: 2 43G<381 503> 145 78<64 97> 532 88<291 417> 1118 109<373 572>
VStem: 132 109<635 760> 587 76<961 1101>
LayerCount: 2
Fore
SplineSet
67 223 m 1,0,-1
 325 188 l 1,1,-1
 136 690 l 1,2,3
 132 740 132 740 132 743 c 0,4,5
 132 919 132 919 247 1073 c 128,-1,6
 362 1227 362 1227 480 1227 c 0,7,8
 614 1227 614 1227 661 1012 c 0,9,10
 663 1002 663 1002 663 969 c 0,11,12
 663 815 663 815 587 672 c 0,13,14
 512 532 512 532 409 532 c 0,15,16
 406 532 406 532 395 534 c 128,-1,17
 384 536 384 536 376 537 c 1,18,-1
 513 2 l 1,19,-1
 50 145 l 1,20,-1
 67 223 l 1,0,-1
241 760 m 1,21,22
 241 621 241 621 317 621 c 0,23,24
 327 621 327 621 331 623 c 1,25,26
 388 629 388 629 427 655 c 1,27,-1
 241 760 l 1,21,22
265 905 m 1,28,29
 253 864 253 864 247 825 c 1,30,-1
 476 696 l 1,31,32
 506 726 506 726 526 760 c 1,33,-1
 265 905 l 1,28,29
329 1036 m 1,34,35
 298 993 298 993 286 965 c 1,36,-1
 554 813 l 1,37,38
 573 856 573 856 583 893 c 1,39,-1
 329 1036 l 1,34,35
587 961 m 1,40,41
 587 975 l 2,42,43
 587 980 587 980 588 986 c 128,-1,44
 589 992 589 992 589 993 c 0,45,46
 589 1120 589 1120 497 1120 c 0,47,48
 480 1120 480 1120 474 1118 c 1,49,-1
 466 1118 l 2,50,51
 413 1118 413 1118 372 1083 c 1,52,-1
 587 961 l 1,40,41
EndSplineSet
EndChar

StartChar: unie032
Encoding: 305 57394 49
Width: 1327
VWidth: 0
Flags: W
HStem: 0 43G<808 874> 412 178<200 326> 737 104<1086 1269>
VStem: 171 57<43 300> 329 51<20 238> 339 70<17 396> 638 49<25 138> 667 72<104 409> 792 74<194 410> 814 51<0 406>
LayerCount: 2
Fore
SplineSet
169 43 m 1,0,1
 171 43 171 43 171 63 c 0,2,3
 171 169 171 169 141 313 c 0,4,5
 111 458 111 458 50 467 c 1,6,7
 80 727 80 727 212 938 c 1,8,-1
 270 883 l 1,9,10
 261 862 261 862 212 795 c 128,-1,11
 163 728 163 728 163 668 c 0,12,13
 163 636 163 636 175 590 c 1,14,-1
 696 596 l 1,15,16
 693 634 693 634 690.5 669 c 128,-1,17
 688 704 688 704 686.5 720.5 c 128,-1,18
 685 737 685 737 685 739 c 0,19,20
 685 842 685 842 726 932 c 1,21,22
 600 1009 600 1009 544 1227 c 1,23,24
 555 1219 555 1219 612 1188 c 0,25,26
 666 1159 666 1159 689 1133 c 0,27,28
 713 1106 713 1106 722 1063 c 1,29,-1
 782 1057 l 1,30,31
 796 1110 796 1110 822 1139 c 0,32,33
 849 1169 849 1169 890 1186 c 0,34,35
 929 1202 929 1202 945 1214 c 1,36,37
 948 1205 948 1205 954 1159 c 0,38,39
 960 1112 960 1112 960 1092 c 0,40,41
 960 1049 960 1049 937 1008 c 1,42,43
 959 954 959 954 1033 913 c 0,44,45
 1096 878 1096 878 1185 842 c 0,46,47
 1261 811 1261 811 1275 791 c 0,48,49
 1277 787 1277 787 1277 776 c 0,50,51
 1277 737 1277 737 1218 737 c 0,52,53
 1186 737 1186 737 1107 752 c 0,54,55
 1033 766 1033 766 999 766 c 2,56,-1
 986 766 l 1,57,58
 972 780 972 780 962 780 c 0,59,60
 944 780 944 780 931 754 c 0,61,62
 921 733 921 733 911 680 c 0,63,64
 894 588 894 588 894 586 c 0,65,66
 893 577 893 577 888 537.5 c 128,-1,67
 883 498 883 498 880 473 c 0,68,69
 878 458 878 458 873 421.5 c 128,-1,70
 868 385 868 385 866 371 c 1,71,72
 866 359 866 359 866.5 336 c 128,-1,73
 867 313 867 313 868 271 c 128,-1,74
 869 229 869 229 870 193 c 0,75,76
 874 9 874 9 874 0 c 1,77,-1
 808 0 l 1,78,79
 808 36 808 36 810 61 c 128,-1,80
 812 86 812 86 812 131 c 0,81,82
 812 141 812 141 813 161 c 128,-1,83
 814 181 814 181 814 190 c 0,84,85
 814 300 814 300 792 410 c 1,86,-1
 724 414 l 1,87,88
 739 356 739 356 739 301 c 0,89,90
 739 245 739 245 714 147 c 0,91,92
 690 53 690 53 687 25 c 1,93,-1
 638 10 l 1,94,95
 638 53 638 53 653 135 c 0,96,97
 667 212 667 212 667 260 c 0,98,99
 667 345 667 345 630 412 c 1,100,-1
 397 395 l 1,101,102
 409 355 409 355 409 289 c 0,103,104
 409 261 409 261 394 147 c 0,105,106
 384 74 384 74 380 10 c 1,107,-1
 329 20 l 1,108,109
 329 82 329 82 333 131 c 0,110,111
 339 205 339 205 339 244 c 0,112,113
 339 340 339 340 315 410 c 1,114,-1
 200 412 l 1,115,116
 237 331 237 331 237 229 c 0,117,118
 237 221 237 221 233 139 c 128,-1,119
 229 57 229 57 229 51 c 0,120,121
 229 16 229 16 231 6 c 1,122,-1
 169 43 l 1,0,1
EndSplineSet
EndChar

StartChar: unie033
Encoding: 306 57395 50
Width: 916
VWidth: 0
Flags: W
HStem: 2 43G<174 237> 209 47<122 193> 541 59<442 564> 659 59<401 605> 774 61<392 583> 901 59<421 530>
VStem: 347 43
LayerCount: 2
Fore
SplineSet
448 424 m 1,0,-1
 263 193 l 1,1,-1
 284 178 l 1,2,-1
 429 332 l 2,3,4
 433 337 433 337 447.5 355 c 128,-1,5
 462 373 462 373 474 389 c 1,6,7
 473 391 473 391 468 396.5 c 128,-1,8
 463 402 463 402 460 406 c 0,9,10
 451 418 451 418 448 424 c 1,0,-1
442 541 m 1,11,12
 481 464 481 464 507 434 c 1,13,14
 538 479 538 479 564 541 c 1,15,-1
 442 541 l 1,11,12
605 659 m 1,16,-1
 401 657 l 1,17,18
 403 649 403 649 408.5 630.5 c 128,-1,19
 414 612 414 612 417 600 c 1,20,-1
 589 600 l 1,21,22
 591 602 591 602 591 606 c 0,23,24
 591 608 591 608 593 610 c 1,25,26
 602 631 602 631 605 659 c 1,16,-1
390 774 m 1,27,28
 390 727 390 727 392 713 c 1,29,-1
 605 719 l 1,30,31
 604 732 604 732 597 774 c 1,32,-1
 390 774 l 1,27,28
405 901 m 1,33,34
 403 893 403 893 399 881 c 0,35,36
 398 877 398 877 396.5 868.5 c 128,-1,37
 395 860 395 860 394 856 c 0,38,39
 392 848 392 848 392 836 c 1,40,-1
 583 836 l 1,41,42
 580 848 580 848 571 872 c 0,43,44
 561 898 561 898 558 901 c 1,45,-1
 405 901 l 1,33,34
263 918 m 1,46,-1
 251 877 l 1,47,-1
 354 840 l 1,48,49
 354 842 354 842 358 862 c 128,-1,50
 362 882 362 882 362 883 c 2,51,-1
 263 918 l 1,46,-1
290 1006 m 1,52,-1
 278 965 l 1,53,-1
 372 932 l 1,54,55
 374 938 374 938 378 954 c 0,56,57
 382 968 382 968 384 973 c 1,58,-1
 290 1006 l 1,52,-1
464 1071 m 1,59,60
 439 1020 439 1020 421 961 c 1,61,-1
 530 961 l 1,62,63
 509 1005 509 1005 464 1071 c 1,59,60
319 1094 m 1,64,-1
 304 1053 l 1,65,-1
 401 1018 l 1,66,67
 415 1056 415 1056 417 1059 c 1,68,-1
 319 1094 l 1,64,-1
675 1137 m 1,69,-1
 554 997 l 1,70,71
 610 911 610 911 634 840 c 1,72,73
 720 905 720 905 720 989 c 2,74,-1
 720 999 l 2,75,76
 720 1057 720 1057 675 1137 c 1,69,-1
122 209 m 1,77,-1
 198 82 l 1,78,-1
 251 150 l 1,79,80
 171 209 171 209 122 209 c 1,77,-1
679 1227 m 1,81,82
 771 1100 771 1100 771 993 c 0,83,84
 771 873 771 873 650 770 c 1,85,86
 657 735 657 735 657 711 c 0,87,88
 657 706 657 706 653 670 c 1,89,90
 642 596 642 596 612 518 c 1,91,92
 620 512 620 512 673 463 c 0,93,94
 733 407 733 407 761 389 c 0,95,96
 810 357 810 357 866 340 c 1,97,-1
 855 276 l 1,98,99
 698 338 698 338 593 473 c 1,100,101
 567 421 567 421 546 389 c 1,102,103
 638 291 638 291 773 213 c 1,104,-1
 757 147 l 1,105,106
 596 247 596 247 513 342 c 1,107,108
 503 328 503 328 435 252 c 1,109,-1
 198 2 l 1,110,-1
 50 256 l 1,111,112
 175 256 175 256 237 211 c 1,113,-1
 241 207 l 1,114,-1
 415 477 l 1,115,116
 350 604 350 604 347 739 c 1,117,-1
 347 748 l 2,118,119
 347 749 347 749 348 755.5 c 128,-1,120
 349 762 349 762 349 768 c 2,121,-1
 349 791 l 1,122,-1
 208 840 l 1,123,-1
 165 854 l 1,124,-1
 261 1165 l 1,125,-1
 333 1141 l 1,126,-1
 333 1139 l 1,127,-1
 442 1102 l 1,128,-1
 440 1104 l 1,129,-1
 476 1104 l 1,130,-1
 478 1102 l 2,131,132
 498 1082 498 1082 526 1042 c 1,133,-1
 679 1227 l 1,81,82
EndSplineSet
EndChar

StartChar: unie034
Encoding: 307 57396 51
Width: 1020
VWidth: 0
Flags: W
HStem: 2 43G<50 108 317 376> 203 53<276 344> 541 59<571 685> 659 59<532 724> 774 59<523 702> 901 59<550 653>
VStem: 50 57<2 594 657 1229> 480 41<714 752> 833 49<904 1094>
LayerCount: 2
Fore
SplineSet
790 1137 m 1,0,-1
 677 997 l 1,1,2
 730 910 730 910 751 840 c 1,3,4
 833 907 833 907 833 989 c 0,5,6
 833 1049 833 1049 790 1137 c 1,0,-1
454 1092 m 1,7,-1
 442 1053 l 1,8,-1
 532 1018 l 1,9,10
 539 1039 539 1039 548 1057 c 1,11,-1
 454 1092 l 1,7,-1
591 1071 m 1,12,13
 561 1002 561 1002 550 961 c 1,14,-1
 653 961 l 1,15,16
 628 1018 628 1018 591 1071 c 1,12,13
427 1006 m 1,17,-1
 415 965 l 1,18,-1
 505 932 l 1,19,20
 507 938 507 938 510 952.5 c 128,-1,21
 513 967 513 967 515 973 c 1,22,-1
 427 1006 l 1,17,-1
401 918 m 1,23,-1
 390 877 l 1,24,-1
 487 840 l 1,25,26
 491 870 491 870 495 883 c 1,27,-1
 401 918 l 1,23,-1
534 901 m 1,28,29
 524 841 524 841 523 834 c 1,30,-1
 702 834 l 1,31,32
 701 838 701 838 679 901 c 1,33,-1
 534 901 l 1,28,29
521 774 m 1,34,35
 519 754 519 754 523 713 c 1,36,-1
 726 719 l 1,37,38
 722 757 722 757 718 774 c 1,39,-1
 521 774 l 1,34,35
724 659 m 1,40,-1
 532 657 l 1,41,42
 540 619 540 619 546 600 c 1,43,-1
 710 600 l 1,44,45
 711 602 711 602 712 605 c 128,-1,46
 713 608 713 608 714 610 c 0,47,48
 720 624 720 624 724 659 c 1,40,-1
571 541 m 1,49,50
 595 483 595 483 632 434 c 1,51,52
 662 480 662 480 685 541 c 1,53,-1
 571 541 l 1,49,50
575 424 m 1,54,-1
 403 193 l 1,55,-1
 419 178 l 1,56,-1
 558 332 l 1,57,58
 565 342 565 342 579.5 361 c 128,-1,59
 594 380 594 380 599 389 c 1,60,61
 595 394 595 394 575 424 c 1,54,-1
276 203 m 1,62,-1
 351 76 l 1,63,-1
 405 143 l 1,64,65
 329 201 329 201 276 203 c 1,62,-1
50 1229 m 1,66,-1
 108 1229 l 1,67,-1
 108 657 l 1,68,-1
 450 803 l 1,69,-1
 349 840 l 1,70,-1
 308 854 l 1,71,-1
 399 1165 l 1,72,-1
 569 1102 l 1,73,-1
 605 1102 l 1,74,75
 645 1044 645 1044 648 1040 c 1,76,-1
 794 1227 l 1,77,78
 882 1100 882 1100 882 993 c 0,79,80
 882 870 882 870 767 770 c 1,81,82
 771 752 771 752 771 713 c 0,83,84
 771 684 771 684 769 668 c 0,85,86
 759 600 759 600 730 518 c 1,87,88
 748 504 748 504 788.5 462.5 c 128,-1,89
 829 421 829 421 872 389.5 c 128,-1,90
 915 358 915 358 970 340 c 1,91,-1
 960 276 l 1,92,93
 805 343 805 343 712 473 c 1,94,95
 703 450 703 450 667 389 c 1,96,97
 751 292 751 292 884 213 c 1,98,-1
 868 147 l 1,99,100
 732 232 732 232 636 342 c 1,101,102
 602 292 602 292 564 252 c 2,103,-1
 339 2 l 1,104,-1
 200 256 l 1,105,106
 260 256 260 256 297.5 247.5 c 128,-1,107
 335 239 335 239 376 211 c 1,108,-1
 380 207 l 1,109,-1
 546 477 l 1,110,111
 480 606 480 606 480 752 c 1,112,-1
 108 594 l 1,113,-1
 108 2 l 1,114,-1
 50 2 l 1,115,-1
 50 1229 l 1,66,-1
EndSplineSet
EndChar

StartChar: unie035
Encoding: 308 57397 52
Width: 1020
VWidth: 0
Flags: W
HStem: 2 43G<717 787> 12 242<198 317> 985 242<196 315>
VStem: 50 84<343 894> 380 80<533 672>
LayerCount: 2
Fore
SplineSet
255 1227 m 1,0,1
 311 1227 311 1227 362 1139 c 0,2,3
 409 1059 409 1059 437 907 c 1,4,-1
 761 1214 l 1,5,-1
 970 877 l 1,6,-1
 816 748 l 1,7,-1
 720 915 l 1,8,-1
 460 672 l 1,9,10
 460 647 l 2,11,12
 460 640 460 640 461 631.5 c 128,-1,13
 462 623 462 623 462 621 c 0,14,15
 462 550 462 550 460 532 c 1,16,-1
 720 289 l 1,17,-1
 816 463 l 1,18,-1
 970 334 l 1,19,-1
 761 2 l 1,20,-1
 433 307 l 1,21,22
 405 171 405 171 360 94 c 0,23,24
 312 12 312 12 257 12 c 0,25,26
 173 12 173 12 112 188 c 0,27,28
 50 368 50 368 50 618 c 0,29,30
 50 869 50 869 112 1049 c 0,31,32
 172 1224 172 1224 255 1227 c 1,0,1
257 254 m 128,-1,34
 308 254 308 254 345 360 c 0,35,36
 380 461 380 461 380 621 c 0,37,38
 380 772 380 772 343 879 c 0,39,40
 306 985 306 985 255 985 c 0,41,42
 203 985 203 985 169 877 c 0,43,44
 134 767 134 767 134 618 c 0,45,46
 134 461 134 461 169 360 c 0,47,33
 206 254 206 254 257 254 c 128,-1,34
EndSplineSet
EndChar

StartChar: unie036
Encoding: 309 57398 53
Width: 813
VWidth: 0
Flags: W
HStem: 2 43G<278 352>
VStem: 122 76<442 780> 278 74<2 305 914 1227> 724 23<171 229 986 1049>
LayerCount: 2
Fore
SplineSet
333 367 m 1,0,1
 385 370 385 370 423 442 c 0,2,3
 460 512 460 512 460 614 c 2,4,-1
 460 621 l 1,5,6
 457 717 457 717 419 786 c 0,7,8
 381 854 381 854 329 854 c 2,9,-1
 323 854 l 1,10,11
 273 851 273 851 235 780 c 0,12,13
 198 710 198 710 198 614 c 2,14,-1
 198 600 l 1,15,16
 201 502 201 502 239 434 c 0,17,18
 276 367 276 367 329 367 c 2,19,-1
 333 367 l 1,0,1
351 1227 m 1,20,-1
 358 926 l 1,21,22
 366 924 366 924 388 913 c 1,23,-1
 515 1212 l 1,24,-1
 585 1188 l 1,25,-1
 450 870 l 1,26,-1
 446 870 l 1,27,28
 508 805 508 805 526 696 c 1,29,30
 565 716 565 716 583 729 c 0,31,32
 606 746 606 746 628 778 c 0,33,34
 646 804 646 804 663 825 c 0,35,36
 672 836 672 836 689 889 c 0,37,38
 704 937 704 937 710 948 c 0,39,40
 714 956 714 956 730 1018 c 0,41,42
 745 1078 745 1078 747 1081 c 1,43,44
 761 986 761 986 761 915 c 0,45,46
 761 682 761 682 620 612 c 1,47,48
 763 542 763 542 763 322 c 0,49,50
 763 253 763 253 747 141 c 1,51,52
 730 201 730 201 724 225 c 0,53,54
 706 299 706 299 698 322 c 0,55,56
 693 337 693 337 663 403 c 0,57,58
 641 451 641 451 607 481 c 0,59,60
 566 516 566 516 530 528 c 1,61,-1
 530 539 l 1,62,63
 512 427 512 427 452 354 c 1,64,-1
 585 41 l 1,65,-1
 515 16 l 1,66,-1
 392 307 l 1,67,68
 368 298 368 298 356 295 c 1,69,-1
 351 2 l 1,70,-1
 278 2 l 1,71,-1
 282 301 l 1,72,73
 254 313 254 313 241 324 c 1,74,-1
 118 45 l 1,75,-1
 50 72 l 1,76,-1
 188 381 l 1,77,78
 125 475 125 475 122 596 c 1,79,-1
 122 610 l 2,80,81
 122 670 122 670 143 737 c 0,82,83
 164 805 164 805 190 844 c 1,84,-1
 50 1157 l 1,85,-1
 118 1184 l 1,86,-1
 243 899 l 1,87,88
 262 913 262 913 282 920 c 1,89,-1
 278 1227 l 1,90,-1
 351 1227 l 1,20,-1
EndSplineSet
EndChar

StartChar: unie037
Encoding: 310 57399 54
Width: 813
VWidth: 0
Flags: W
HStem: 2 43G<278 352> 508 205<292 372>
VStem: 122 76<442 780> 278 74<2 305 914 1227> 292 80<508 713> 724 23<171 229 986 1049>
LayerCount: 2
Fore
SplineSet
351 1227 m 1,0,-1
 358 926 l 1,1,2
 366 924 366 924 388 913 c 1,3,-1
 515 1212 l 1,4,-1
 585 1188 l 1,5,-1
 450 870 l 1,6,-1
 446 870 l 1,7,8
 508 805 508 805 526 696 c 1,9,10
 565 716 565 716 583 729 c 0,11,12
 606 746 606 746 628 778 c 0,13,14
 646 804 646 804 663 825 c 0,15,16
 672 836 672 836 689 889 c 0,17,18
 704 937 704 937 710 948 c 0,19,20
 714 956 714 956 730 1018 c 0,21,22
 745 1078 745 1078 747 1081 c 1,23,24
 761 986 761 986 761 915 c 0,25,26
 761 682 761 682 620 612 c 1,27,28
 763 542 763 542 763 322 c 0,29,30
 763 253 763 253 747 141 c 1,31,32
 730 201 730 201 724 225 c 0,33,34
 706 299 706 299 698 322 c 0,35,36
 693 337 693 337 663 403 c 0,37,38
 641 451 641 451 607 481 c 0,39,40
 566 516 566 516 530 528 c 1,41,-1
 530 539 l 1,42,43
 512 427 512 427 452 354 c 1,44,-1
 585 41 l 1,45,-1
 515 16 l 1,46,-1
 392 307 l 1,47,48
 368 298 368 298 356 295 c 1,49,-1
 351 2 l 1,50,-1
 278 2 l 1,51,-1
 282 301 l 1,52,53
 254 313 254 313 241 324 c 1,54,-1
 118 45 l 1,55,-1
 50 72 l 1,56,-1
 188 381 l 1,57,58
 125 475 125 475 122 596 c 1,59,-1
 122 610 l 2,60,61
 122 670 122 670 143 737 c 0,62,63
 164 805 164 805 190 844 c 1,64,-1
 50 1157 l 1,65,-1
 118 1184 l 1,66,-1
 243 899 l 1,67,68
 262 913 262 913 282 920 c 1,69,-1
 278 1227 l 1,70,-1
 351 1227 l 1,0,-1
333 367 m 1,71,72
 385 370 385 370 423 442 c 0,73,74
 460 512 460 512 460 614 c 2,75,-1
 460 621 l 1,76,77
 457 717 457 717 419 786 c 0,78,79
 381 854 381 854 329 854 c 2,80,-1
 323 854 l 1,81,82
 273 851 273 851 235 780 c 0,83,84
 198 710 198 710 198 614 c 2,85,-1
 198 600 l 1,86,87
 201 502 201 502 239 434 c 0,88,89
 276 367 276 367 329 367 c 2,90,-1
 333 367 l 1,71,72
292 713 m 1,91,-1
 372 713 l 1,92,-1
 372 508 l 1,93,-1
 292 508 l 1,94,-1
 292 713 l 1,91,-1
EndSplineSet
EndChar

StartChar: unie038
Encoding: 311 57400 55
Width: 711
VWidth: 0
Flags: W
HStem: 2 43G<205 265> 199 70<241 298> 584 59<244 339> 958 55<335 381>
VStem: 83 61<314 534> 132 57<700 905 1135 1175> 390 49<323 517> 466 53<692 892>
LayerCount: 2
Fore
SplineSet
267 268 m 1,0,1
 324 271 324 271 358 311 c 0,2,3
 390 349 390 349 390 418 c 2,4,-1
 390 428 l 1,5,6
 387 496 387 496 351 541 c 0,7,8
 317 584 317 584 263 584 c 2,9,-1
 257 584 l 1,10,11
 205 581 205 581 175 535 c 0,12,13
 145 488 145 488 145 424 c 2,14,-1
 145 412 l 1,15,16
 148 349 148 349 179 307 c 0,17,18
 208 268 208 268 263 268 c 2,19,-1
 267 268 l 1,0,1
331 643 m 1,20,-1
 341 643 l 2,21,22
 397 643 397 643 431 680 c 0,23,24
 466 718 466 718 466 780 c 0,25,26
 466 801 466 801 464 807 c 1,27,28
 461 872 461 872 423 913 c 0,29,30
 381 958 381 958 327 958 c 2,31,-1
 321 958 l 1,32,33
 264 955 264 955 227 915 c 128,-1,34
 190 875 190 875 190 807 c 2,35,-1
 190 793 l 1,36,37
 199 652 199 652 331 643 c 1,20,-1
304 1227 m 1,38,-1
 360 1219 l 1,39,-1
 335 1014 l 1,40,41
 352 1014 352 1014 382 1004 c 1,42,-1
 474 1223 l 1,43,-1
 526 1198 l 1,44,-1
 433 975 l 1,45,46
 435 975 435 975 435 973 c 1,47,-1
 440 971 l 1,48,-1
 628 1122 l 1,49,-1
 661 1075 l 1,50,-1
 478 926 l 1,51,52
 514 873 514 873 517 803 c 1,53,-1
 517 791 l 2,54,55
 517 788 517 788 518 783 c 2,56,-1
 519 778 l 1,57,58
 519 710 519 710 480 655 c 0,59,60
 443 603 443 603 382 582 c 1,61,62
 440 515 440 515 440 403 c 0,63,64
 440 344 440 344 405 285 c 1,65,-1
 566 154 l 1,66,-1
 532 106 l 1,67,-1
 368 240 l 1,68,-1
 349 227 l 1,69,-1
 431 31 l 1,70,-1
 380 6 l 1,71,-1
 298 203 l 1,72,73
 270 199 270 199 267 199 c 0,74,75
 247 199 247 199 241 201 c 1,76,-1
 265 10 l 1,77,-1
 210 2 l 1,78,-1
 181 223 l 1,79,80
 166 235 166 235 157 244 c 1,81,-1
 104 41 l 1,82,-1
 50 57 l 1,83,-1
 114 299 l 1,84,85
 81 358 81 358 81 416 c 0,86,87
 81 417 81 417 82 420.5 c 128,-1,88
 83 424 83 424 83 426 c 2,89,90
 83 438 l 1,91,92
 98 572 98 572 200 625 c 1,93,94
 132 693 132 693 132 793 c 0,95,96
 132 886 132 886 194 954 c 1,97,-1
 136 1171 l 1,98,-1
 192 1188 l 1,99,-1
 243 993 l 1,100,101
 249 997 249 997 278 1008 c 1,102,-1
 304 1227 l 1,38,-1
EndSplineSet
EndChar

StartChar: unie039
Encoding: 312 57401 56
Width: 711
VWidth: 0
Flags: W
HStem: 0 43G<345 390>
VStem: 452 61<293 325 904 936>
LayerCount: 2
Fore
SplineSet
440 377 m 1,0,-1
 337 276 l 1,1,-1
 284 317 l 1,2,3
 284 241 284 241 329 184 c 1,4,-1
 450 293 l 1,5,6
 452 297 452 297 452 311 c 0,7,8
 452 340 452 340 440 377 c 1,0,-1
356 477 m 0,9,10
 324 477 324 477 294 395 c 1,11,-1
 329 369 l 1,12,-1
 409 444 l 1,13,14
 367 477 367 477 356 477 c 0,9,10
331 860 m 1,15,-1
 296 834 l 1,16,17
 327 750 327 750 358 750 c 0,18,19
 371 750 371 750 411 784 c 1,20,-1
 331 860 l 1,15,-1
331 1044 m 1,21,22
 286 987 286 987 286 911 c 1,23,-1
 339 952 l 1,24,-1
 442 852 l 1,25,26
 452 894 452 894 452 913 c 128,-1,27
 452 932 452 932 450 936 c 1,28,-1
 331 1044 l 1,21,22
366 1229 m 1,29,30
 445 1189 445 1189 489 1059 c 1,31,-1
 626 1204 l 1,32,-1
 661 1130 l 1,33,-1
 507 987 l 1,34,35
 515 940 515 940 515 903 c 1,36,-1
 624 1020 l 1,37,-1
 661 946 l 1,38,-1
 503 801 l 1,39,40
 467 659 467 659 364 614 c 1,41,42
 468 566 468 566 503 428 c 1,43,-1
 659 283 l 1,44,-1
 624 209 l 1,45,-1
 513 326 l 1,46,47
 513 289 513 289 505 242 c 1,48,-1
 661 98 l 1,49,-1
 624 25 l 1,50,-1
 487 170 l 1,51,52
 443 40 443 40 364 0 c 1,53,54
 310 3 310 3 245 164 c 1,55,-1
 50 317 l 1,56,-1
 67 387 l 1,57,-1
 212 274 l 1,58,59
 202 342 202 342 202 346 c 0,60,61
 202 371 202 371 204 379 c 1,62,-1
 50 502 l 1,63,-1
 67 571 l 1,64,-1
 220 453 l 1,65,66
 253 547 253 547 323 614 c 1,67,68
 257 680 257 680 222 776 c 1,69,-1
 69 657 l 1,70,-1
 50 727 l 1,71,-1
 206 850 l 1,72,73
 204 858 204 858 204 883 c 0,74,75
 204 886 204 886 214 954 c 1,76,-1
 69 842 l 1,77,-1
 52 911 l 1,78,-1
 247 1065 l 1,79,80
 312 1226 312 1226 366 1229 c 1,29,30
EndSplineSet
EndChar

StartChar: unie03a
Encoding: 313 57402 57
Width: 916
VWidth: 0
Flags: W
HStem: 2 152<413 512> 1063 164<407 499>
VStem: 259 88<535 688> 569 90<543 686>
LayerCount: 2
Fore
SplineSet
460 154 m 1,0,-1
 462 154 l 2,1,2
 508 154 508 154 538 272 c 0,3,4
 569 396 569 396 569 575 c 2,5,-1
 569 592 l 1,6,7
 566 790 566 790 532 926 c 0,8,9
 498 1063 498 1063 452 1063 c 0,10,11
 408 1063 408 1063 378 928 c 0,12,13
 347 788 347 788 347 604 c 2,14,-1
 347 588 l 1,15,16
 350 392 350 392 382 279 c 0,17,18
 416 157 416 157 460 154 c 1,0,-1
446 1227 m 2,19,-1
 448 1227 l 2,20,21
 509 1227 509 1227 558 1133 c 0,22,23
 603 1046 603 1046 632 881 c 1,24,-1
 775 1225 l 1,25,-1
 863 1184 l 1,26,-1
 655 686 l 1,27,28
 659 604 659 604 659 594 c 2,29,-1
 659 543 l 1,30,-1
 866 45 l 1,31,-1
 779 4 l 1,32,-1
 642 334 l 1,33,34
 621 181 621 181 573 90 c 0,35,36
 527 2 527 2 466 2 c 2,37,-1
 464 2 l 1,38,39
 406 5 406 5 356 94 c 0,40,41
 308 180 308 180 280 336 c 1,42,-1
 141 2 l 1,43,-1
 52 41 l 1,44,-1
 259 535 l 1,45,46
 259 561 l 2,47,48
 259 566 259 566 258 576 c 128,-1,49
 257 586 257 586 257 588 c 0,50,51
 257 665 257 665 259 688 c 1,52,-1
 50 1188 l 1,53,-1
 136 1227 l 1,54,-1
 278 891 l 1,55,56
 303 1046 303 1046 345 1135 c 0,57,58
 389 1227 389 1227 446 1227 c 2,19,-1
EndSplineSet
EndChar

StartChar: unie03b
Encoding: 314 57403 58
Width: 813
VWidth: 0
Flags: W
HStem: 2 43G<161 245 569 653>
VStem: 186 104<629 922> 523 104<629 919>
LayerCount: 2
Fore
SplineSet
405 1016 m 1,0,1
 290 913 290 913 290 735 c 0,2,3
 290 692 290 692 296 639 c 1,4,5
 343 485 343 485 407 391 c 1,6,7
 469 482 469 482 517 639 c 1,8,9
 523 685 523 685 523 727 c 0,10,11
 523 907 523 907 405 1016 c 1,0,1
624 637 m 1,12,-1
 743 549 l 1,13,-1
 646 408 l 1,14,-1
 589 502 l 1,15,16
 549 402 549 402 483 305 c 1,17,18
 519 271 519 271 571 238 c 0,19,20
 599 220 599 220 677 180 c 0,21,22
 731 152 731 152 763 131 c 1,23,-1
 601 2 l 1,24,25
 502 91 502 91 407 205 c 1,26,27
 315 94 315 94 212 2 c 1,28,-1
 50 131 l 1,29,30
 82 152 82 152 136 180 c 0,31,32
 219 223 219 223 243 238 c 0,33,34
 295 271 295 271 331 305 c 1,35,36
 271 393 271 393 224 506 c 1,37,-1
 165 408 l 1,38,-1
 69 549 l 1,39,-1
 188 639 l 1,40,41
 186 653 186 653 186 705 c 0,42,43
 186 1050 186 1050 401 1223 c 1,44,45
 494 1154 494 1154 562 1014 c 0,46,47
 628 879 628 879 628 711 c 0,48,49
 628 703 628 703 624 637 c 1,12,-1
EndSplineSet
EndChar

StartChar: unie03c
Encoding: 315 57404 59
Width: 1190
VWidth: 0
Flags: W
HStem: 0 307<50 149 1042 1140> 922 307<50 149 1042 1140>
VStem: 50 98<0 307 922 1229> 370 106<623 922> 714 106<620 918> 1042 98<0 307 922 1229>
LayerCount: 2
Fore
SplineSet
818 637 m 1,0,-1
 937 547 l 1,1,-1
 839 408 l 1,2,-1
 782 502 l 1,3,4
 745 412 745 412 671 303 c 1,5,6
 704 273 704 273 761 238 c 0,7,8
 826 198 826 198 870 176 c 0,9,10
 950 135 950 135 960 129 c 1,11,-1
 794 0 l 1,12,13
 689 86 689 86 595 203 c 1,14,15
 499 84 499 84 397 0 c 1,16,-1
 231 129 l 1,17,18
 241 135 241 135 321 176 c 0,19,20
 358 195 358 195 429 238 c 0,21,22
 486 273 486 273 519 303 c 1,23,24
 448 406 448 406 409 504 c 1,25,-1
 347 408 l 1,26,-1
 249 547 l 1,27,-1
 372 639 l 1,28,29
 370 653 370 653 370 702 c 0,30,31
 370 1047 370 1047 589 1221 c 1,32,33
 686 1155 686 1155 753 1006 c 128,-1,34
 820 857 820 857 820 686 c 0,35,36
 820 647 820 647 818 637 c 1,0,-1
593 1016 m 1,37,38
 476 914 476 914 476 735 c 0,39,40
 476 700 476 700 483 639 c 1,41,42
 527 489 527 489 595 391 c 1,43,44
 664 491 664 491 708 639 c 1,45,46
 714 688 714 688 714 729 c 0,47,48
 714 907 714 907 593 1016 c 1,37,38
50 307 m 1,49,-1
 149 307 l 1,50,-1
 149 0 l 1,51,-1
 50 0 l 1,52,-1
 50 307 l 1,49,-1
50 1229 m 1,53,-1
 149 1229 l 1,54,-1
 149 922 l 1,55,-1
 50 922 l 1,56,-1
 50 1229 l 1,53,-1
1042 307 m 1,57,-1
 1140 307 l 1,58,-1
 1140 0 l 1,59,-1
 1042 0 l 1,60,-1
 1042 307 l 1,57,-1
1042 1229 m 1,61,-1
 1140 1229 l 1,62,-1
 1140 922 l 1,63,-1
 1042 922 l 1,64,-1
 1042 1229 l 1,61,-1
EndSplineSet
EndChar

StartChar: unie03d
Encoding: 316 57405 60
Width: 1329
VWidth: 0
Flags: W
HStem: 0 307<52 126 1203 1279> 922 80<833 884 933 995 1046 1095> 1174 53<933 993>
VStem: 52 74<0 307 922 1229> 276 82<640 938> 538 82<638 933> 769 63<0 920> 884 49<1004 1174> 995 51<1004 1174> 1095 63<0 922> 1203 76<0 307 922 1229>
LayerCount: 2
Fore
SplineSet
446 1016 m 1,0,1
 358 909 358 909 358 731 c 0,2,3
 358 725 358 725 362 639 c 1,4,5
 399 480 399 480 448 391 c 1,6,7
 497 480 497 480 534 639 c 1,8,9
 538 721 538 721 538 725 c 0,10,11
 538 907 538 907 446 1016 c 1,0,1
618 637 m 1,12,-1
 708 547 l 1,13,-1
 634 408 l 1,14,-1
 589 502 l 1,15,16
 563 412 563 412 505 305 c 1,17,18
 533 270 533 270 573 238 c 0,19,20
 623 198 623 198 657 176 c 0,21,22
 706 144 706 144 724 129 c 1,23,-1
 599 2 l 1,24,25
 516 98 516 98 448 205 c 1,26,27
 383 102 383 102 296 2 c 1,28,-1
 171 129 l 1,29,30
 186 142 186 142 239 176 c 0,31,32
 273 198 273 198 323 238 c 0,33,34
 360 268 360 268 390 305 c 1,35,36
 333 417 333 417 306 504 c 1,37,-1
 259 408 l 1,38,-1
 184 547 l 1,39,-1
 278 639 l 1,40,41
 276 653 276 653 276 702 c 0,42,43
 276 887 276 887 325 1024 c 0,44,45
 375 1163 375 1163 446 1225 c 1,46,47
 522 1167 522 1167 571 1030 c 128,-1,48
 620 893 620 893 620 707 c 0,49,50
 620 653 620 653 618 637 c 1,12,-1
884 1001 m 1,51,-1
 884 1227 l 1,52,-1
 925 1227 l 2,53,54
 1046 1227 1046 1227 1046 1221 c 2,55,-1
 1046 1001 l 1,56,-1
 1158 1001 l 1,57,-1
 1158 987 l 1,58,-1
 1158 0 l 1,59,-1
 1095 0 l 1,60,-1
 1095 922 l 1,61,-1
 833 920 l 1,62,-1
 833 0 l 1,63,-1
 769 0 l 1,64,-1
 769 1001 l 1,65,-1
 884 1001 l 1,51,-1
933 1174 m 1,66,-1
 933 1004 l 1,67,-1
 995 1004 l 1,68,-1
 995 1174 l 1,69,-1
 933 1174 l 1,66,-1
1203 307 m 1,70,-1
 1279 307 l 1,71,-1
 1279 0 l 1,72,-1
 1203 0 l 1,73,-1
 1203 307 l 1,70,-1
1203 1229 m 1,74,-1
 1277 1229 l 1,75,-1
 1277 922 l 1,76,-1
 1203 922 l 1,77,-1
 1203 1229 l 1,74,-1
52 307 m 1,78,-1
 126 307 l 1,79,-1
 126 0 l 1,80,-1
 52 0 l 1,81,-1
 52 307 l 1,78,-1
50 1229 m 1,82,-1
 126 1229 l 1,83,-1
 126 922 l 1,84,-1
 50 922 l 1,85,-1
 50 1229 l 1,82,-1
EndSplineSet
EndChar

StartChar: unie03e
Encoding: 317 57406 61
Width: 1430
VWidth: 0
Flags: W
HStem: 2 43G<170 339 427 508 789 869 956 1123>
VStem: 50 109<355 859> 446 98<621 914> 753 90<625 909> 1136 106<355 670> 1332 47<855 967> 1351 18<1107 1214>
LayerCount: 2
Fore
SplineSet
339 1227 m 1,0,1
 337 1220 337 1220 322 1184.5 c 128,-1,2
 307 1149 307 1149 296 1118 c 0,3,4
 285 1088 285 1088 268.5 1044.5 c 128,-1,5
 252 1001 252 1001 247 987 c 0,6,7
 240 968 240 968 225 923 c 128,-1,8
 210 878 210 878 206 866 c 0,9,10
 189 817 189 817 173 733 c 0,11,12
 163 679 163 679 159 614 c 1,13,14
 162 533 162 533 181 442 c 0,15,16
 197 364 197 364 222 299 c 0,17,18
 249 228 249 228 280 152 c 0,19,20
 309 81 309 81 339 2 c 1,21,-1
 231 2 l 1,22,23
 50 342 50 342 50 586 c 2,24,-1
 50 614 l 1,25,-1
 50 627 l 2,26,27
 50 717 50 717 81 838 c 0,28,29
 108 944 108 944 136 1012 c 0,30,31
 169 1093 169 1093 218 1198 c 0,32,33
 228 1218 228 1218 231 1227 c 1,34,-1
 339 1227 l 1,0,1
1369 1227 m 1,35,36
 1380 1095 1380 1095 1380 1044 c 0,37,38
 1380 735 1380 735 1242 627 c 1,39,-1
 1242 614 l 1,40,-1
 1242 586 l 2,41,42
 1242 340 1242 340 1062 2 c 1,43,-1
 956 2 l 1,44,45
 1010 144 1010 144 1013 152 c 0,46,47
 1022 175 1022 175 1044 226.5 c 128,-1,48
 1066 278 1066 278 1074 299 c 0,49,50
 1099 364 1099 364 1115 442 c 0,51,52
 1133 527 1133 527 1136 614 c 1,53,54
 1133 691 1133 691 1111 776 c 0,55,56
 1093 846 1093 846 1070 918 c 0,57,58
 1046 992 1046 992 1007 1094 c 0,59,60
 994 1128 994 1128 980.5 1163.5 c 128,-1,61
 967 1199 967 1199 962 1212 c 128,-1,62
 957 1225 957 1225 956 1227 c 1,63,-1
 1062 1227 l 1,64,65
 1162 1000 1162 1000 1187 928 c 1,66,67
 1224 933 1224 933 1259 954 c 0,68,69
 1291 973 1291 973 1306 1008 c 0,70,71
 1327 1056 1327 1056 1332 1073 c 0,72,73
 1344 1114 1344 1114 1351 1151 c 0,74,75
 1361 1205 1361 1205 1369 1227 c 1,35,36
1332 967 m 1,76,77
 1320 925 1320 925 1279 868 c 0,78,79
 1240 815 1240 815 1199 815 c 1,80,-1
 1228 719 l 1,81,82
 1256 741 1256 741 1296 819 c 0,83,84
 1332 890 1332 890 1332 952 c 2,85,-1
 1332 967 l 1,76,77
648 997 m 1,86,-1
 648 995 l 1,87,88
 544 888 544 888 544 717 c 0,89,90
 544 676 544 676 550 627 c 1,91,92
 589 479 589 479 648 383 c 1,93,94
 709 481 709 481 747 627 c 1,95,96
 753 676 753 676 753 717 c 0,97,98
 753 889 753 889 648 997 c 1,86,-1
648 1202 m 1,99,100
 843 1007 843 1007 843 662 c 2,101,-1
 843 625 l 1,102,-1
 947 537 l 1,103,-1
 861 401 l 1,104,-1
 810 492 l 1,105,106
 773 393 773 393 716 299 c 1,107,108
 754 258 754 258 794 233 c 0,109,110
 861 192 861 192 888 176 c 0,111,112
 920 158 920 158 966 127 c 1,113,-1
 822 2 l 1,114,115
 721 103 721 103 648 201 c 1,116,117
 575 103 575 103 474 2 c 1,118,-1
 331 127 l 1,119,120
 332 128 332 128 342.5 134 c 128,-1,121
 353 140 353 140 379.5 155 c 128,-1,122
 406 170 406 170 435 188 c 0,123,124
 536 249 536 249 583 299 c 1,125,126
 515 408 515 408 485 496 c 1,127,-1
 433 401 l 1,128,-1
 347 537 l 1,129,-1
 454 627 l 1,130,131
 446 668 446 668 446 729 c 0,132,133
 446 853 446 853 495 969 c 0,134,135
 543 1083 543 1083 591 1143 c 0,136,137
 638 1202 638 1202 648 1202 c 1,99,100
EndSplineSet
EndChar

StartChar: unie03f
Encoding: 318 57407 62
Width: 1325
VWidth: 0
Flags: W
HStem: 2 43G<137 259 469 480 674 729 944 1000 1066 1188> 328 41<256 317> 459 51<407 490> 483 45<251 341>
VStem: 50 78<333 875> 335 111<232 310> 437 63<0 315 795 952> 454 41<89 315> 521 72<627 741> 691 70<640 947> 915 70<637 939> 1197 78<333 875>
LayerCount: 2
Fore
SplineSet
837 1227 m 1,0,1
 984 1034 984 1034 984 702 c 2,2,3
 984 672 l 2,4,5
 984 664 984 664 983 652 c 128,-1,6
 982 640 982 640 982 637 c 1,7,-1
 1060 549 l 1,8,-1
 997 408 l 1,9,-1
 958 502 l 1,10,11
 940 425 940 425 888 305 c 1,12,13
 909 276 909 276 947 238 c 0,14,15
 971 214 971 214 1017 180 c 0,16,17
 1048 157 1048 157 1074 131 c 1,18,-1
 966 2 l 1,19,20
 902 83 902 83 837 205 c 1,21,22
 772 83 772 83 708 2 c 1,23,-1
 601 131 l 1,24,25
 624 154 624 154 659 180 c 0,26,27
 709 217 709 217 730 238 c 0,28,29
 765 273 765 273 788 305 c 1,30,31
 739 416 739 416 716 506 c 1,32,-1
 677 408 l 1,33,-1
 614 549 l 1,34,-1
 693 639 l 1,35,36
 691 655 691 655 691 709 c 0,37,38
 691 848 691 848 728 975 c 0,39,40
 767 1110 767 1110 798 1165 c 0,41,42
 833 1227 833 1227 837 1227 c 1,0,1
837 1026 m 1,43,44
 761 919 761 919 761 737 c 0,45,46
 761 733 761 733 765 647 c 1,47,48
 794 494 794 494 837 401 c 1,49,50
 884 496 884 496 911 647 c 1,51,52
 915 729 915 729 915 733 c 0,53,54
 915 916 915 916 837 1026 c 1,43,44
1066 1229 m 1,55,-1
 1144 1229 l 1,56,57
 1146 1227 1146 1227 1165 1163 c 0,58,59
 1170 1145 1170 1145 1175.5 1128.5 c 128,-1,60
 1181 1112 1181 1112 1184.5 1102.5 c 128,-1,61
 1188 1093 1188 1093 1189 1090 c 128,-1,62
 1190 1087 1190 1087 1193 1078 c 128,-1,63
 1196 1069 1196 1069 1201 1053.5 c 128,-1,64
 1206 1038 1206 1038 1210 1022 c 128,-1,65
 1214 1006 1214 1006 1218 990 c 128,-1,66
 1222 974 1222 974 1225.5 960 c 128,-1,67
 1229 946 1229 946 1230 942 c 0,68,69
 1232 935 1232 935 1237 911.5 c 128,-1,70
 1242 888 1242 888 1246 870 c 0,71,72
 1261 807 1261 807 1263 788 c 0,73,74
 1264 779 1264 779 1267 754 c 128,-1,75
 1270 729 1270 729 1271 713 c 0,76,77
 1275 655 1275 655 1275 631 c 2,78,-1
 1275 614 l 1,79,-1
 1275 584 l 2,80,81
 1275 334 1275 334 1144 2 c 1,82,-1
 1066 2 l 1,83,84
 1070 16 1070 16 1084.5 66.5 c 128,-1,85
 1099 117 1099 117 1109 152 c 0,86,87
 1116 177 1116 177 1131 228.5 c 128,-1,88
 1146 280 1146 280 1152 301 c 0,89,90
 1171 372 1171 372 1181 442 c 0,91,92
 1194 537 1194 537 1197 614 c 1,93,94
 1194 683 1194 683 1179 774 c 0,95,96
 1176 793 1176 793 1148 922 c 0,97,98
 1132 995 1132 995 1103 1094 c 0,99,100
 1070 1207 1070 1207 1066 1229 c 1,55,-1
259 1229 m 1,101,102
 255 1207 255 1207 222 1094 c 0,103,104
 193 995 193 995 177 922 c 0,105,106
 153 812 153 812 147 774 c 0,107,108
 131 675 131 675 128 614 c 1,109,110
 130 546 130 546 145 442 c 0,111,112
 156 364 156 364 173 301 c 0,113,114
 179 280 179 280 194 228.5 c 128,-1,115
 209 177 209 177 216 152 c 0,116,117
 226 117 226 117 240.5 66.5 c 128,-1,118
 255 16 255 16 259 2 c 1,119,-1
 181 2 l 1,120,121
 50 334 50 334 50 584 c 2,122,-1
 50 614 l 1,123,-1
 50 631 l 2,124,125
 50 655 50 655 54 713 c 0,126,127
 55 729 55 729 58.5 753.5 c 128,-1,128
 62 778 62 778 63 788 c 0,129,130
 65 813 65 813 79 870 c 0,131,132
 83 888 83 888 88 911.5 c 128,-1,133
 93 935 93 935 95 942 c 0,134,135
 103 973 103 973 116 1022 c 0,136,137
 120 1038 120 1038 125 1053.5 c 128,-1,138
 130 1069 130 1069 132.5 1078 c 128,-1,139
 135 1087 135 1087 136 1090 c 128,-1,140
 137 1093 137 1093 140.5 1102.5 c 128,-1,141
 144 1112 144 1112 150 1128.5 c 128,-1,142
 156 1145 156 1145 161 1163 c 0,143,144
 180 1228 180 1228 181 1229 c 1,145,-1
 259 1229 l 1,101,102
417 604 m 1,146,147
 465 607 465 607 493 627 c 128,-1,148
 521 647 521 647 521 688 c 0,149,150
 521 730 521 730 491 776 c 1,151,152
 480 751 480 751 460 721 c 0,153,154
 439 690 439 690 431 668 c 0,155,156
 424 648 424 648 417 604 c 1,146,147
401 512 m 1,157,158
 405 510 405 510 421 510 c 0,159,160
 481 510 481 510 546 590 c 1,161,162
 534 592 534 592 499 592 c 0,163,164
 463 592 463 592 446 578 c 0,165,166
 427 562 427 562 401 512 c 1,157,158
407 461 m 1,167,168
 410 411 410 411 454 373 c 1,169,170
 497 419 497 419 503 492 c 1,171,172
 461 459 461 459 437 459 c 0,173,174
 417 459 417 459 407 461 c 1,167,168
446 315 m 1,175,-1
 446 309 l 1,176,-1
 392 23 l 1,177,178
 374 8 374 8 364 8 c 0,179,180
 344 8 344 8 335 39 c 1,181,182
 338 133 338 133 394 375 c 1,183,-1
 380 397 l 1,184,185
 326 328 326 328 300 328 c 0,186,187
 275 328 275 328 204 387 c 1,188,-1
 214 410 l 1,189,190
 276 369 276 369 290 369 c 0,191,192
 314 369 314 369 358 459 c 1,193,-1
 341 483 l 1,194,-1
 317 483 l 2,195,196
 286 483 286 483 263 492 c 0,197,198
 243 500 243 500 198 537 c 1,199,-1
 224 569 l 1,200,201
 225 568 225 568 233 562.5 c 128,-1,202
 241 557 241 557 247 553 c 0,203,204
 251 550 251 550 256.5 547.5 c 128,-1,205
 262 545 262 545 266.5 543.5 c 128,-1,206
 271 542 271 542 272 541 c 2,207,-1
 278 537 l 2,208,209
 283 533 283 533 288 532 c 0,210,211
 308 528 308 528 310 528 c 0,212,213
 322 528 322 528 343 535 c 1,214,215
 339 585 339 585 339 588 c 0,216,217
 339 673 339 673 386 756 c 128,-1,218
 433 839 433 839 433 883 c 0,219,220
 433 930 433 930 405 991 c 1,221,222
 384 1050 384 1050 384 1135 c 0,223,224
 384 1219 384 1219 419 1225 c 1,225,226
 439 1218 439 1218 446 1214 c 0,227,228
 449 1212 449 1212 459 1206.5 c 128,-1,229
 469 1201 469 1201 474 1198 c 2,230,-1
 485 1190 l 1,231,232
 550 1104 550 1104 550 1014 c 2,233,-1
 550 999 l 2,234,235
 550 996 550 996 549 991.5 c 128,-1,236
 548 987 548 987 548 985 c 0,237,238
 547 982 547 982 542 971.5 c 128,-1,239
 537 961 537 961 534 954 c 0,240,241
 531 948 531 948 527 937 c 128,-1,242
 523 926 523 926 521 922 c 0,243,244
 514 908 514 908 511 889 c 0,245,246
 507 865 507 865 507 854 c 0,247,248
 507 834 507 834 513 813 c 1,249,250
 593 707 593 707 593 602 c 2,251,-1
 593 573 l 1,252,253
 566 416 566 416 501 354 c 1,254,255
 495 292 495 292 495 233 c 0,256,257
 495 232 495 232 501 23 c 1,258,259
 491 0 491 0 474 0 c 0,260,261
 458 0 458 0 444 14 c 1,262,263
 437 54 437 54 437 88 c 0,264,265
 437 116 437 116 444 209 c 0,266,267
 448 259 448 259 454 315 c 1,268,-1
 446 315 l 1,175,-1
EndSplineSet
EndChar

StartChar: unie040
Encoding: 319 57408 63
Width: 1325
VWidth: 0
Flags: W
HStem: 2 43G<137 259 316 371 586 641 994 1004 1066 1188> 328 41<780 841> 459 51<931 1014> 483 45<775 866>
VStem: 50 78<333 875> 325 76<641 949> 556 68<637 939> 859 111<232 310> 958 74<235 315 777 975> 962 55<1 314> 978 39<89 315> 1046 72<596 742> 1197 78<333 875>
LayerCount: 2
Fore
SplineSet
478 1026 m 1,0,1
 401 917 401 917 401 733 c 0,2,3
 401 729 401 729 405 647 c 1,4,5
 433 493 433 493 478 401 c 1,6,7
 525 496 525 496 552 647 c 1,8,9
 556 729 556 729 556 733 c 0,10,11
 556 916 556 916 478 1026 c 1,0,1
478 1227 m 1,12,13
 482 1223 482 1223 509 1167 c 0,14,15
 517 1151 517 1151 525.5 1135 c 128,-1,16
 534 1119 534 1119 539 1109.5 c 128,-1,17
 544 1100 544 1100 546 1096 c 0,18,19
 547 1094 547 1094 552 1082.5 c 128,-1,20
 557 1071 557 1071 563 1055.5 c 128,-1,21
 569 1040 569 1040 575 1024 c 0,22,23
 598 964 598 964 603 928 c 0,24,25
 609 888 609 888 618 823 c 0,26,27
 626 765 626 765 626 692 c 0,28,29
 626 690 626 690 625 681.5 c 128,-1,30
 624 673 624 673 624 666 c 2,31,-1
 624 637 l 1,32,-1
 700 549 l 1,33,-1
 636 408 l 1,34,-1
 599 502 l 1,35,36
 581 427 581 427 528 305 c 1,37,38
 549 276 549 276 587 238 c 0,39,40
 611 214 611 214 657 180 c 0,41,42
 688 157 688 157 714 131 c 1,43,-1
 607 2 l 1,44,45
 543 83 543 83 478 205 c 1,46,47
 413 83 413 83 349 2 c 1,48,-1
 243 131 l 1,49,50
 269 157 269 157 300 180 c 0,51,52
 346 214 346 214 370 238 c 0,53,54
 408 276 408 276 429 305 c 1,55,56
 382 411 382 411 358 506 c 1,57,-1
 319 408 l 1,58,-1
 255 549 l 1,59,-1
 335 639 l 1,60,61
 325 707 325 707 325 750 c 0,62,63
 325 867 325 867 364 983 c 0,64,65
 406 1108 406 1108 437 1163 c 0,66,67
 473 1227 473 1227 478 1227 c 1,12,13
1066 1229 m 1,68,-1
 1144 1229 l 1,69,70
 1146 1227 1146 1227 1165 1163 c 0,71,72
 1170 1145 1170 1145 1175.5 1128.5 c 128,-1,73
 1181 1112 1181 1112 1184.5 1102.5 c 128,-1,74
 1188 1093 1188 1093 1189 1090 c 128,-1,75
 1190 1087 1190 1087 1193 1078 c 128,-1,76
 1196 1069 1196 1069 1201 1053.5 c 128,-1,77
 1206 1038 1206 1038 1210 1022 c 128,-1,78
 1214 1006 1214 1006 1218 990 c 128,-1,79
 1222 974 1222 974 1225.5 960 c 128,-1,80
 1229 946 1229 946 1230 942 c 0,81,82
 1232 935 1232 935 1237 911.5 c 128,-1,83
 1242 888 1242 888 1246 870 c 0,84,85
 1261 807 1261 807 1263 788 c 0,86,87
 1264 779 1264 779 1267 754 c 128,-1,88
 1270 729 1270 729 1271 713 c 0,89,90
 1275 655 1275 655 1275 631 c 2,91,-1
 1275 614 l 1,92,-1
 1275 584 l 2,93,94
 1275 334 1275 334 1144 2 c 1,95,-1
 1066 2 l 1,96,97
 1070 16 1070 16 1084.5 66.5 c 128,-1,98
 1099 117 1099 117 1109 152 c 0,99,100
 1116 177 1116 177 1131 228.5 c 128,-1,101
 1146 280 1146 280 1152 301 c 0,102,103
 1171 372 1171 372 1181 442 c 0,104,105
 1194 537 1194 537 1197 614 c 1,106,107
 1194 683 1194 683 1179 774 c 0,108,109
 1176 793 1176 793 1148 922 c 0,110,111
 1132 995 1132 995 1103 1094 c 0,112,113
 1070 1207 1070 1207 1066 1229 c 1,68,-1
259 1229 m 1,114,115
 255 1207 255 1207 222 1094 c 0,116,117
 193 995 193 995 177 922 c 0,118,119
 153 812 153 812 147 774 c 0,120,121
 131 675 131 675 128 614 c 1,122,123
 130 546 130 546 145 442 c 0,124,125
 156 364 156 364 173 301 c 0,126,127
 179 280 179 280 194 228.5 c 128,-1,128
 209 177 209 177 216 152 c 0,129,130
 226 117 226 117 240.5 66.5 c 128,-1,131
 255 16 255 16 259 2 c 1,132,-1
 181 2 l 1,133,134
 50 334 50 334 50 584 c 2,135,-1
 50 614 l 1,136,-1
 50 631 l 2,137,138
 50 655 50 655 54 713 c 0,139,140
 55 729 55 729 58.5 753.5 c 128,-1,141
 62 778 62 778 63 788 c 0,142,143
 65 813 65 813 79 870 c 0,144,145
 83 888 83 888 88 911.5 c 128,-1,146
 93 935 93 935 95 942 c 0,147,148
 103 973 103 973 116 1022 c 0,149,150
 120 1038 120 1038 125 1053.5 c 128,-1,151
 130 1069 130 1069 132.5 1078 c 128,-1,152
 135 1087 135 1087 136 1090 c 128,-1,153
 137 1093 137 1093 140.5 1102.5 c 128,-1,154
 144 1112 144 1112 150 1128.5 c 128,-1,155
 156 1145 156 1145 161 1163 c 0,156,157
 180 1228 180 1228 181 1229 c 1,158,-1
 259 1229 l 1,114,115
931 461 m 1,159,160
 934 411 934 411 978 373 c 1,161,162
 1021 419 1021 419 1027 492 c 1,163,164
 985 459 985 459 962 459 c 0,165,166
 941 459 941 459 931 461 c 1,159,160
925 512 m 1,167,168
 929 510 929 510 945 510 c 0,169,170
 1005 510 1005 510 1070 590 c 1,171,172
 1058 592 1058 592 1023 592 c 0,173,174
 987 592 987 592 970 578 c 0,175,176
 951 562 951 562 925 512 c 1,167,168
941 604 m 1,177,178
 989 607 989 607 1017 627 c 0,179,180
 1046 647 1046 647 1046 688 c 0,181,182
 1046 728 1046 728 1015 776 c 1,183,184
 1004 750 1004 750 984 721 c 0,185,186
 965 693 965 693 956 668 c 0,187,188
 947 644 947 644 941 604 c 1,177,178
970 315 m 1,189,-1
 970 309 l 1,190,-1
 917 23 l 1,191,192
 899 8 899 8 888 8 c 0,193,194
 868 8 868 8 859 39 c 1,195,196
 862 128 862 128 919 375 c 1,197,-1
 904 397 l 1,198,199
 850 328 850 328 825 328 c 0,200,201
 799 328 799 328 728 387 c 1,202,-1
 739 410 l 1,203,204
 801 369 801 369 814 369 c 0,205,206
 838 369 838 369 882 459 c 1,207,-1
 866 483 l 1,208,-1
 841 483 l 2,209,210
 810 483 810 483 788 492 c 128,-1,211
 766 501 766 501 722 537 c 1,212,-1
 749 569 l 1,213,214
 751 568 751 568 758 562 c 128,-1,215
 765 556 765 556 771 553 c 0,216,217
 775 550 775 550 780.5 547.5 c 128,-1,218
 786 545 786 545 790.5 543.5 c 128,-1,219
 795 542 795 542 796 541 c 2,220,-1
 802 537 l 2,221,222
 807 533 807 533 812 532 c 0,223,224
 832 528 832 528 835 528 c 0,225,226
 847 528 847 528 868 535 c 1,227,228
 867 546 867 546 865 564.5 c 128,-1,229
 863 583 863 583 863 588 c 0,230,231
 863 671 863 671 911 756 c 0,232,233
 958 839 958 839 958 883 c 0,234,235
 958 928 958 928 929 991 c 1,236,237
 909 1047 909 1047 909 1135 c 0,238,239
 909 1219 909 1219 943 1225 c 1,240,241
 962 1218 962 1218 970 1214 c 0,242,243
 974 1212 974 1212 984 1206.5 c 128,-1,244
 994 1201 994 1201 999 1198 c 2,245,-1
 1009 1190 l 1,246,247
 1074 1104 1074 1104 1074 1014 c 2,248,-1
 1074 999 l 2,249,250
 1074 996 1074 996 1073 991.5 c 128,-1,251
 1072 987 1072 987 1072 985 c 0,252,253
 1071 982 1071 982 1066 971 c 128,-1,254
 1061 960 1061 960 1058 954 c 0,255,256
 1055 947 1055 947 1051.5 936.5 c 128,-1,257
 1048 926 1048 926 1046 922 c 0,258,259
 1038 906 1038 906 1035 889 c 0,260,261
 1031 865 1031 865 1031 854 c 0,262,263
 1031 838 1031 838 1038 813 c 1,264,265
 1117 709 1117 709 1117 604 c 0,266,267
 1117 602 1117 602 1116 596.5 c 128,-1,268
 1115 591 1115 591 1115 588 c 2,269,-1
 1115 573 l 1,270,271
 1088 416 1088 416 1023 354 c 1,272,273
 1017 293 1017 293 1017 233 c 0,274,275
 1017 232 1017 232 1023 23 c 1,276,277
 1013 0 1013 0 999 0 c 0,278,279
 982 0 982 0 968 14 c 1,280,281
 962 48 962 48 962 88 c 0,282,283
 962 130 962 130 968 209 c 0,284,285
 972 259 972 259 978 315 c 1,286,-1
 970 315 l 1,189,-1
EndSplineSet
EndChar

StartChar: unie041
Encoding: 320 57409 64
Width: 916
VWidth: 0
Flags: W
HStem: 0 43G<244 323 586 662>
VStem: 274 86<535 776> 548 84<523 777>
LayerCount: 2
Fore
SplineSet
458 1229 m 1,0,-1
 866 887 l 1,1,-1
 720 887 l 1,2,-1
 458 1094 l 1,3,-1
 196 887 l 1,4,-1
 50 887 l 1,5,-1
 458 1229 l 1,0,-1
452 1024 m 1,6,-1
 458 1018 l 1,7,8
 632 875 632 875 632 592 c 0,9,10
 632 546 632 546 630 532 c 1,11,-1
 726 457 l 1,12,-1
 648 340 l 1,13,-1
 601 418 l 1,14,15
 578 352 578 352 513 254 c 1,16,17
 553 219 553 219 587 199 c 0,18,19
 647 163 647 163 673 150 c 0,20,21
 710 131 710 131 745 109 c 1,22,-1
 612 0 l 1,23,24
 521 83 521 83 454 170 c 1,25,26
 385 82 385 82 294 0 c 1,27,-1
 161 109 l 1,28,29
 196 131 196 131 233 150 c 0,30,31
 274 171 274 171 321 199 c 0,32,33
 345 213 345 213 392 254 c 1,34,35
 335 341 335 341 304 422 c 1,36,-1
 255 340 l 1,37,-1
 177 457 l 1,38,-1
 274 535 l 1,39,-1
 274 561 l 2,40,41
 274 626 274 626 292 700 c 0,42,43
 305 753 305 753 337 827 c 0,44,45
 363 886 363 886 388 930 c 0,46,47
 411 970 411 970 433 999 c 2,48,-1
 452 1024 l 1,6,-1
452 848 m 1,49,50
 360 759 360 759 360 612 c 0,51,52
 360 568 360 568 364 532 c 1,53,54
 397 410 397 410 454 326 c 1,55,56
 511 410 511 410 544 532 c 1,57,58
 548 602 548 602 548 608 c 0,59,60
 548 758 548 758 452 848 c 1,49,50
EndSplineSet
EndChar

StartChar: unie042
Encoding: 321 57410 65
Width: 1124
VWidth: 0
Flags: W
HStem: 0 307<52 145 982 1074> 922 305<50 143 980 1072>
VStem: 52 92<0 307 922 1227> 384 84<527 787> 646 80<522 775> 982 92<0 307 922 1227>
LayerCount: 2
Fore
SplineSet
556 848 m 1,0,1
 468 760 468 760 468 610 c 0,2,3
 468 605 468 605 472 535 c 1,4,5
 501 419 501 419 558 328 c 1,6,7
 613 415 613 415 642 535 c 1,8,9
 646 605 646 605 646 606 c 0,10,11
 646 755 646 755 556 848 c 1,0,1
556 1024 m 1,12,-1
 562 1018 l 1,13,14
 726 874 726 874 726 588 c 0,15,16
 726 544 726 544 724 532 c 1,17,-1
 814 457 l 1,18,-1
 741 340 l 1,19,-1
 698 420 l 1,20,21
 664 330 664 330 616 254 c 1,22,23
 650 220 650 220 683 199 c 0,24,25
 738 164 738 164 763 150 c 0,26,27
 810 124 810 124 831 109 c 1,28,-1
 708 2 l 1,29,30
 633 71 633 71 558 170 c 1,31,32
 480 68 480 68 409 2 c 1,33,-1
 284 109 l 1,34,35
 316 132 316 132 351 150 c 0,36,37
 379 164 379 164 433 199 c 0,38,39
 469 222 469 222 501 254 c 1,40,41
 448 338 448 338 417 422 c 1,42,-1
 372 340 l 1,43,-1
 298 457 l 1,44,-1
 390 535 l 1,45,46
 384 584 384 584 384 627 c 0,47,48
 384 702 384 702 403 776 c 0,49,50
 421 848 421 848 444 889 c 0,51,52
 478 950 478 950 493 967 c 0,53,54
 527 1005 527 1005 536 1012 c 0,55,56
 551 1024 551 1024 556 1024 c 1,12,-1
562 1227 m 1,57,-1
 945 887 l 1,58,-1
 808 887 l 1,59,-1
 562 1094 l 1,60,-1
 317 887 l 1,61,-1
 179 887 l 1,62,-1
 562 1227 l 1,57,-1
52 307 m 1,63,-1
 145 307 l 1,64,-1
 145 0 l 1,65,-1
 52 0 l 1,66,-1
 52 307 l 1,63,-1
50 1227 m 1,67,-1
 143 1227 l 1,68,-1
 143 922 l 1,69,-1
 50 922 l 1,70,-1
 50 1227 l 1,67,-1
982 307 m 1,71,-1
 1074 307 l 1,72,-1
 1074 0 l 1,73,-1
 982 0 l 1,74,-1
 982 307 l 1,71,-1
980 1227 m 1,75,-1
 1072 1227 l 1,76,-1
 1072 922 l 1,77,-1
 980 922 l 1,78,-1
 980 1227 l 1,75,-1
EndSplineSet
EndChar

StartChar: unie043
Encoding: 322 57411 66
Width: 813
VWidth: 0
Flags: W
HStem: 2 43G<169 250 563 645>
VStem: 194 100<629 894> 517 102<627 894>
LayerCount: 2
Fore
SplineSet
405 1016 m 1,0,1
 294 908 294 908 294 733 c 0,2,3
 294 688 294 688 300 639 c 1,4,5
 341 491 341 491 407 391 c 1,6,7
 472 489 472 489 513 639 c 1,8,9
 517 679 517 679 517 727 c 0,10,11
 517 910 517 910 405 1016 c 1,0,1
405 1227 m 1,12,-1
 413 1221 l 1,13,14
 506 1140 506 1140 562 1010 c 1,15,-1
 685 1143 l 1,16,-1
 763 1063 l 1,17,-1
 599 897 l 1,18,19
 620 798 620 798 620 702 c 0,20,21
 620 651 620 651 618 637 c 1,22,-1
 730 549 l 1,23,-1
 636 408 l 1,24,-1
 581 502 l 1,25,26
 547 410 547 410 478 305 c 1,27,28
 524 263 524 263 562 238 c 0,29,30
 601 213 601 213 665 180 c 0,31,32
 719 152 719 152 751 131 c 1,33,-1
 595 2 l 1,34,35
 494 97 494 97 407 205 c 1,36,37
 323 100 323 100 218 2 c 1,38,-1
 63 131 l 1,39,40
 95 152 95 152 149 180 c 0,41,42
 208 210 208 210 251 238 c 0,43,44
 289 263 289 263 335 305 c 1,45,46
 266 417 266 417 231 506 c 1,47,-1
 173 408 l 1,48,-1
 79 549 l 1,49,-1
 196 639 l 1,50,51
 194 653 194 653 194 705 c 0,52,53
 194 807 194 807 214 897 c 1,54,-1
 50 1063 l 1,55,-1
 128 1143 l 1,56,-1
 249 1010 l 1,57,58
 304 1142 304 1142 401 1223 c 1,59,-1
 403 1225 l 1,60,61
 403 1227 403 1227 405 1227 c 1,12,-1
EndSplineSet
EndChar

StartChar: unie044
Encoding: 323 57412 67
Width: 1124
VWidth: 0
Flags: W
HStem: 2 305<52 145 982 1074> 922 307<50 143 980 1072>
VStem: 50 92<2 307 922 1229> 364 92<621 914> 667 94<626 894> 980 92<2 307 922 1229>
LayerCount: 2
Fore
SplineSet
560 1225 m 1,0,-1
 569 1219 l 1,1,2
 656 1138 656 1138 710 1008 c 1,3,-1
 822 1143 l 1,4,-1
 896 1061 l 1,5,-1
 743 897 l 1,6,7
 761 812 761 812 761 711 c 0,8,9
 761 653 761 653 759 637 c 1,10,-1
 866 547 l 1,11,-1
 777 408 l 1,12,-1
 726 502 l 1,13,14
 687 395 687 395 630 305 c 1,15,16
 668 267 668 267 710 238 c 0,17,18
 746 213 746 213 804 180 c 0,19,20
 849 154 849 154 884 131 c 1,21,-1
 739 2 l 1,22,23
 640 101 640 101 562 205 c 1,24,25
 481 97 481 97 386 2 c 1,26,-1
 241 131 l 1,27,28
 276 154 276 154 321 180 c 0,29,30
 379 213 379 213 415 238 c 0,31,32
 457 267 457 267 495 305 c 1,33,34
 425 423 425 423 397 506 c 1,35,-1
 343 408 l 1,36,-1
 257 547 l 1,37,-1
 366 639 l 1,38,39
 364 655 364 655 364 713 c 0,40,41
 364 814 364 814 382 897 c 1,42,-1
 229 1061 l 1,43,-1
 302 1143 l 1,44,-1
 415 1010 l 1,45,46
 467 1144 467 1144 556 1221 c 1,47,-1
 558 1223 l 1,48,-1
 560 1225 l 1,0,-1
560 1016 m 1,49,50
 456 909 456 909 456 733 c 0,51,52
 456 692 456 692 462 639 c 1,53,54
 500 488 500 488 562 391 c 1,55,56
 625 491 625 491 663 639 c 1,57,58
 667 685 667 685 667 729 c 0,59,60
 667 909 667 909 560 1016 c 1,49,50
980 1229 m 1,61,-1
 1072 1229 l 1,62,-1
 1072 922 l 1,63,-1
 980 922 l 1,64,-1
 980 1229 l 1,61,-1
982 307 m 1,65,-1
 1074 307 l 1,66,-1
 1074 2 l 1,67,-1
 982 2 l 1,68,-1
 982 307 l 1,65,-1
50 1229 m 1,69,-1
 143 1229 l 1,70,-1
 143 922 l 1,71,-1
 50 922 l 1,72,-1
 50 1229 l 1,69,-1
52 307 m 1,73,-1
 145 307 l 1,74,-1
 145 2 l 1,75,-1
 52 2 l 1,76,-1
 52 307 l 1,73,-1
EndSplineSet
EndChar

StartChar: unie045
Encoding: 324 57413 68
Width: 815
VWidth: 0
Flags: W
HStem: 2 43G<193 279 543 627>
VStem: 222 90<557 827> 507 90<555 829>
LayerCount: 2
Fore
SplineSet
409 901 m 1,0,1
 313 805 313 805 313 649 c 0,2,3
 313 645 313 645 317 567 c 1,4,5
 360 421 360 421 411 348 c 1,6,7
 463 423 463 423 503 567 c 1,8,9
 507 645 507 645 507 647 c 0,10,11
 507 807 507 807 409 901 c 1,0,1
50 1229 m 1,12,-1
 167 1229 l 1,13,-1
 298 956 l 1,14,15
 318 990 318 990 327 1001 c 1,16,-1
 241 1227 l 1,17,-1
 333 1229 l 1,18,-1
 392 1073 l 1,19,-1
 409 1087 l 1,20,-1
 425 1073 l 1,21,-1
 485 1229 l 1,22,-1
 577 1227 l 1,23,-1
 491 1001 l 1,24,25
 495 995 495 995 519 956 c 1,26,-1
 648 1229 l 1,27,-1
 765 1229 l 1,28,-1
 571 831 l 1,29,30
 597 740 597 740 597 625 c 0,31,32
 597 579 597 579 595 565 c 1,33,-1
 696 485 l 1,34,-1
 614 362 l 1,35,-1
 564 444 l 1,36,37
 521 338 521 338 474 270 c 1,38,39
 503 241 503 241 548 211 c 0,40,41
 605 173 605 173 638 156 c 0,42,43
 697 126 697 126 714 115 c 1,44,-1
 577 2 l 1,45,46
 480 92 480 92 411 180 c 1,47,48
 346 100 346 100 243 2 c 1,49,-1
 106 115 l 1,50,51
 128 129 128 129 181 156 c 0,52,53
 218 175 218 175 272 211 c 0,54,55
 314 239 314 239 345 270 c 1,56,57
 291 352 291 352 253 449 c 1,58,-1
 204 362 l 1,59,-1
 122 485 l 1,60,-1
 224 567 l 1,61,62
 222 581 222 581 222 633 c 0,63,64
 222 740 222 740 247 829 c 1,65,-1
 50 1229 l 1,12,-1
EndSplineSet
EndChar

StartChar: unie046
Encoding: 325 57414 69
Width: 813
VWidth: 0
Flags: W
HStem: 2 43G<161 245 569 653>
VStem: 186 104<629 922> 360 94<555 862> 523 104<627 912>
CounterMasks: 1 70
LayerCount: 2
Fore
SplineSet
405 1016 m 1,0,1
 290 913 290 913 290 735 c 0,2,3
 290 692 290 692 296 639 c 1,4,5
 343 485 343 485 407 391 c 1,6,7
 469 482 469 482 517 639 c 1,8,9
 523 685 523 685 523 727 c 0,10,11
 523 907 523 907 405 1016 c 1,0,1
405 1225 m 1,12,13
 628 1054 628 1054 628 700 c 0,14,15
 628 651 628 651 626 637 c 1,16,-1
 743 549 l 1,17,-1
 646 408 l 1,18,-1
 589 502 l 1,19,20
 549 402 549 402 483 305 c 1,21,22
 519 271 519 271 571 238 c 0,23,24
 599 220 599 220 677 180 c 0,25,26
 731 152 731 152 763 131 c 1,27,-1
 601 2 l 1,28,29
 502 91 502 91 407 205 c 1,30,31
 315 94 315 94 212 2 c 1,32,-1
 50 131 l 1,33,34
 82 152 82 152 136 180 c 0,35,36
 219 223 219 223 243 238 c 0,37,38
 295 271 295 271 331 305 c 1,39,40
 271 393 271 393 224 506 c 1,41,-1
 165 408 l 1,42,-1
 69 549 l 1,43,-1
 188 639 l 1,44,45
 186 653 186 653 186 705 c 0,46,47
 186 1050 186 1050 401 1223 c 1,48,-1
 405 1225 l 1,12,13
360 862 m 1,49,-1
 454 862 l 1,50,-1
 454 555 l 1,51,-1
 360 555 l 1,52,-1
 360 862 l 1,49,-1
EndSplineSet
EndChar

StartChar: unie047
Encoding: 326 57415 70
Width: 1124
VWidth: 0
Flags: W
HStem: 0 307<52 145 982 1074> 924 305<50 143 980 1072>
VStem: 52 92<0 307 924 1229> 351 98<621 925> 517 90<555 862> 673 100<627 925> 982 92<0 307 924 1229>
LayerCount: 2
Fore
SplineSet
517 862 m 1,0,-1
 607 862 l 1,1,-1
 607 555 l 1,2,-1
 517 555 l 1,3,-1
 517 862 l 1,0,-1
560 1225 m 1,4,5
 656 1154 656 1154 714 1022 c 0,6,7
 773 889 773 889 773 705 c 0,8,9
 773 651 773 651 771 637 c 1,10,-1
 884 549 l 1,11,-1
 792 408 l 1,12,-1
 736 502 l 1,13,14
 701 406 701 406 634 305 c 1,15,16
 680 263 680 263 718 238 c 0,17,18
 745 220 745 220 820 180 c 0,19,20
 876 150 876 150 904 131 c 1,21,-1
 749 2 l 1,22,23
 650 91 650 91 562 205 c 1,24,25
 472 88 472 88 376 2 c 1,26,-1
 220 131 l 1,27,28
 249 150 249 150 304 180 c 0,29,30
 385 224 385 224 407 238 c 0,31,32
 445 263 445 263 491 305 c 1,33,34
 419 422 419 422 386 506 c 1,35,-1
 331 408 l 1,36,-1
 239 549 l 1,37,-1
 354 639 l 1,38,39
 351 660 351 660 351 707 c 0,40,41
 351 1054 351 1054 556 1223 c 1,42,-1
 560 1225 l 1,4,5
560 1016 m 1,43,44
 450 909 450 909 450 733 c 0,45,46
 450 688 450 688 456 639 c 1,47,48
 497 489 497 489 562 391 c 1,49,50
 628 491 628 491 669 639 c 1,51,52
 673 679 673 679 673 727 c 0,53,54
 673 909 673 909 560 1016 c 1,43,44
52 307 m 1,55,-1
 145 307 l 1,56,-1
 145 0 l 1,57,-1
 52 0 l 1,58,-1
 52 307 l 1,55,-1
50 1229 m 1,59,-1
 143 1229 l 1,60,-1
 143 924 l 1,61,-1
 50 924 l 1,62,-1
 50 1229 l 1,59,-1
982 307 m 1,63,-1
 1074 307 l 1,64,-1
 1074 0 l 1,65,-1
 982 0 l 1,66,-1
 982 307 l 1,63,-1
980 1229 m 1,67,-1
 1072 1229 l 1,68,-1
 1072 924 l 1,69,-1
 980 924 l 1,70,-1
 980 1229 l 1,67,-1
EndSplineSet
EndChar

StartChar: unie048
Encoding: 327 57416 71
Width: 813
VWidth: 0
Flags: W
HStem: 2 43G<161 245 569 653> 594 115<310 503>
VStem: 184 109<709 927> 521 104<709 921>
LayerCount: 2
Fore
SplineSet
310 594 m 1,0,1
 359 456 359 456 407 391 c 1,2,3
 453 453 453 453 503 594 c 1,4,-1
 310 594 l 1,0,1
405 1016 m 1,5,6
 292 912 292 912 292 731 c 2,7,-1
 292 709 l 1,8,-1
 521 709 l 1,9,-1
 521 729 l 2,10,11
 521 909 521 909 405 1016 c 1,5,6
405 1225 m 1,12,13
 505 1117 505 1117 566 991 c 0,14,15
 626 868 626 868 626 698 c 0,16,17
 626 651 626 651 624 637 c 1,18,-1
 743 549 l 1,19,-1
 646 408 l 1,20,-1
 589 502 l 1,21,22
 549 402 549 402 483 305 c 1,23,24
 519 271 519 271 571 238 c 0,25,26
 599 220 599 220 677 180 c 0,27,28
 731 152 731 152 763 131 c 1,29,-1
 601 2 l 1,30,31
 502 91 502 91 407 205 c 1,32,33
 315 94 315 94 212 2 c 1,34,-1
 50 131 l 1,35,36
 82 152 82 152 136 180 c 0,37,38
 219 223 219 223 243 238 c 0,39,40
 295 271 295 271 331 305 c 1,41,42
 271 393 271 393 224 506 c 1,43,-1
 165 408 l 1,44,-1
 69 549 l 1,45,-1
 188 639 l 1,46,47
 184 693 184 693 184 700 c 0,48,49
 184 825 184 825 239 956 c 0,50,51
 299 1098 299 1098 343 1155 c 0,52,53
 397 1225 397 1225 405 1225 c 1,12,13
EndSplineSet
EndChar

StartChar: unie049
Encoding: 328 57417 72
Width: 1124
VWidth: 0
Flags: W
HStem: 0 307<52 145 982 1074> 594 115<470 655> 924 305<50 143 980 1072>
VStem: 52 92<0 307 924 1229> 347 104<709 929> 673 100<709 923> 982 92<0 307 924 1229>
LayerCount: 2
Fore
SplineSet
560 1225 m 1,0,1
 656 1154 656 1154 714 1022 c 0,2,3
 773 889 773 889 773 705 c 0,4,5
 773 651 773 651 771 637 c 1,6,-1
 884 549 l 1,7,-1
 792 408 l 1,8,-1
 736 502 l 1,9,10
 701 406 701 406 634 305 c 1,11,12
 680 263 680 263 718 238 c 0,13,14
 745 220 745 220 820 180 c 0,15,16
 876 150 876 150 904 131 c 1,17,-1
 749 2 l 1,18,19
 650 91 650 91 562 205 c 1,20,21
 472 88 472 88 376 2 c 1,22,-1
 220 131 l 1,23,24
 249 150 249 150 304 180 c 0,25,26
 385 224 385 224 407 238 c 0,27,28
 445 263 445 263 491 305 c 1,29,30
 419 422 419 422 386 506 c 1,31,-1
 331 408 l 1,32,-1
 239 549 l 1,33,-1
 354 639 l 1,34,35
 347 690 347 690 347 725 c 0,36,37
 347 842 347 842 399 971 c 0,38,39
 450 1098 450 1098 497 1159 c 0,40,41
 548 1225 548 1225 560 1225 c 1,0,1
560 1016 m 1,42,43
 452 908 452 908 452 731 c 2,44,-1
 452 709 l 1,45,-1
 673 709 l 1,46,-1
 673 729 l 2,47,48
 673 906 673 906 560 1016 c 1,42,43
470 594 m 1,49,50
 512 464 512 464 562 391 c 1,51,52
 614 467 614 467 655 594 c 1,53,-1
 470 594 l 1,49,50
52 307 m 1,54,-1
 145 307 l 1,55,-1
 145 0 l 1,56,-1
 52 0 l 1,57,-1
 52 307 l 1,54,-1
50 1229 m 1,58,-1
 143 1229 l 1,59,-1
 143 924 l 1,60,-1
 50 924 l 1,61,-1
 50 1229 l 1,58,-1
982 307 m 1,62,-1
 1074 307 l 1,63,-1
 1074 0 l 1,64,-1
 982 0 l 1,65,-1
 982 307 l 1,62,-1
980 1229 m 1,66,-1
 1072 1229 l 1,67,-1
 1072 924 l 1,68,-1
 980 924 l 1,69,-1
 980 1229 l 1,66,-1
EndSplineSet
EndChar

StartChar: unie04a
Encoding: 329 57418 73
Width: 1018
VWidth: 0
Flags: W
HStem: 2 43G<276 359 664 747>
VStem: 304 98<623 705> 622 96<621 702>
LayerCount: 2
Fore
SplineSet
511 1016 m 1,0,1
 403 908 403 908 403 731 c 0,2,3
 403 685 403 685 407 639 c 1,4,5
 448 483 448 483 511 391 c 1,6,7
 577 491 577 491 618 639 c 1,8,9
 622 679 622 679 622 727 c 0,10,11
 622 908 622 908 511 1016 c 1,0,1
511 1227 m 1,12,13
 691 1085 691 1085 718 795 c 1,14,-1
 968 707 l 1,15,-1
 943 627 l 1,16,-1
 722 702 l 1,17,-1
 718 621 l 1,18,-1
 921 551 l 1,19,-1
 896 471 l 1,20,-1
 698 539 l 1,21,22
 695 529 695 529 671 465 c 1,23,-1
 874 395 l 1,24,-1
 849 313 l 1,25,-1
 634 389 l 1,26,27
 630 380 630 380 583 305 c 1,28,29
 624 267 624 267 669 238 c 0,30,31
 707 214 707 214 769 180 c 0,32,33
 825 150 825 150 853 131 c 1,34,-1
 698 2 l 1,35,36
 599 91 599 91 511 205 c 1,37,38
 421 88 421 88 325 2 c 1,39,-1
 171 131 l 1,40,41
 200 150 200 150 255 180 c 0,42,43
 323 217 323 217 356 238 c 0,44,45
 394 263 394 263 440 305 c 1,46,47
 429 322 429 322 388 391 c 1,48,-1
 169 313 l 1,49,-1
 145 395 l 1,50,-1
 351 467 l 1,51,52
 332 517 332 517 325 541 c 1,53,-1
 122 471 l 1,54,-1
 98 551 l 1,55,-1
 304 623 l 1,56,-1
 300 705 l 1,57,-1
 75 627 l 1,58,-1
 50 707 l 1,59,-1
 304 795 l 1,60,61
 331 1085 331 1085 511 1227 c 1,12,13
EndSplineSet
EndChar

StartChar: unie04b
Encoding: 330 57419 74
Width: 813
VWidth: 0
Flags: W
HStem: 2 43G<151 247 566 662>
VStem: 188 104<637 695> 517 109<539 549 604 659>
LayerCount: 2
Fore
SplineSet
407 1227 m 1,0,-1
 706 969 l 1,1,-1
 599 969 l 1,2,-1
 407 1126 l 1,3,-1
 214 969 l 1,4,-1
 108 969 l 1,5,-1
 407 1227 l 1,0,-1
405 1032 m 1,6,7
 626 888 626 888 626 592 c 0,8,9
 626 546 626 546 624 532 c 0,10,11
 603 406 603 406 483 256 c 1,12,13
 517 227 517 227 571 199 c 0,14,15
 612 178 612 178 675 152 c 0,16,17
 708 138 708 138 763 111 c 1,18,-1
 601 2 l 1,19,20
 501 75 501 75 407 172 c 1,21,22
 316 77 316 77 212 2 c 1,23,-1
 50 111 l 1,24,25
 105 138 105 138 138 152 c 0,26,27
 206 180 206 180 243 199 c 0,28,29
 297 227 297 227 331 256 c 1,30,31
 211 406 211 406 190 532 c 0,32,33
 188 546 188 546 188 594 c 0,34,35
 188 888 188 888 405 1032 c 1,6,7
405 856 m 1,36,37
 345 806 345 806 321 756 c 1,38,-1
 460 803 l 1,39,40
 429 837 429 837 405 856 c 1,36,37
491 758 m 1,41,-1
 298 696 l 1,42,43
 292 669 292 669 292 637 c 1,44,-1
 509 709 l 1,45,46
 506 731 506 731 491 758 c 1,41,-1
519 659 m 1,47,-1
 292 584 l 1,48,-1
 298 530 l 1,49,-1
 521 604 l 1,50,51
 521 649 521 649 519 659 c 1,47,-1
517 549 m 1,52,-1
 317 481 l 1,53,54
 325 462 325 462 339 436 c 1,55,-1
 499 489 l 1,56,-1
 517 539 l 1,57,-1
 517 549 l 1,52,-1
470 426 m 1,58,-1
 364 391 l 1,59,60
 380 365 380 365 407 330 c 1,61,62
 445 377 445 377 470 426 c 1,58,-1
EndSplineSet
EndChar

StartChar: unie04c
Encoding: 331 57420 75
Width: 913
VWidth: 0
Flags: W
HStem: 229 115<444 482> 797 61<412 468> 1159 23<76 113>
VStem: 257 154<570 796 833 1068> 282 117<833 1119> 468 70<518 788> 519 115<209 266> 595 72<522 696> 657 37<750 899> 722 55<690 946> 802 61<692 992>
LayerCount: 2
Fore
SplineSet
392 831 m 1,0,1
 468 858 468 858 513 858 c 0,2,3
 606 858 606 858 659 750 c 1,4,5
 657 766 657 766 657 817 c 0,6,7
 657 906 657 906 679 983 c 0,8,9
 697 1047 697 1047 720 1081 c 0,10,11
 732 1099 732 1099 786 1167 c 1,12,13
 863 984 863 984 863 846 c 0,14,15
 863 792 863 792 851 737 c 0,16,17
 837 674 837 674 829 653 c 0,18,19
 825 644 825 644 788 563 c 0,20,21
 778 541 778 541 753 483 c 1,22,-1
 603 465 l 1,23,-1
 581 270 l 1,24,25
 593 264 593 264 603 258 c 0,26,27
 609 254 609 254 617 248.5 c 128,-1,28
 625 243 625 243 626 242 c 0,29,30
 634 237 634 237 634 225 c 0,31,32
 634 217 634 217 626 209 c 1,33,34
 622 194 622 194 612 176 c 0,35,36
 597 150 597 150 546 102 c 0,37,38
 492 51 492 51 415 6 c 1,39,40
 421 29 421 29 427 66 c 0,41,42
 432 98 432 98 440 131 c 0,43,44
 446 155 446 155 466 188 c 0,45,46
 492 231 492 231 519 252 c 1,47,-1
 530 465 l 1,48,-1
 446 471 l 1,49,-1
 444 344 l 1,50,-1
 450 344 l 2,51,52
 483 344 483 344 483 283 c 0,53,54
 483 229 483 229 456 229 c 2,55,-1
 450 229 l 1,56,57
 435 238 435 238 419 238 c 0,58,59
 386 238 386 238 345 203 c 0,60,61
 305 169 305 169 280 133 c 2,62,-1
 257 100 l 1,63,64
 258 104 258 104 258.5 111 c 128,-1,65
 259 118 259 118 259.5 131 c 128,-1,66
 260 144 260 144 261 154 c 0,67,68
 264 192 264 192 267 211 c 0,69,70
 270 227 270 227 280 258 c 0,71,72
 290 290 290 290 308 307 c 0,73,74
 322 321 322 321 356 340 c 1,75,-1
 376 483 l 1,76,77
 374 485 374 485 368 492 c 128,-1,78
 362 499 362 499 352.5 510 c 128,-1,79
 343 521 343 521 333 532 c 0,80,81
 302 565 302 565 292 586 c 0,82,83
 281 609 281 609 270 655 c 0,84,85
 257 712 257 712 257 778 c 0,86,87
 257 870 257 870 272 999 c 1,88,89
 282 1051 282 1051 282 1069 c 0,90,91
 282 1116 282 1116 253 1135 c 0,92,93
 226 1153 226 1153 157 1159 c 0,94,95
 98 1164 98 1164 50 1182 c 1,96,97
 85 1182 85 1182 149 1204 c 0,98,99
 211 1225 211 1225 239 1225 c 0,100,101
 277 1225 277 1225 319 1194 c 1,102,103
 399 1043 399 1043 399 903 c 0,104,105
 399 871 399 871 392 831 c 1,0,1
777 995 m 1,106,-1
 777 690 l 1,107,108
 802 793 802 793 802 860 c 0,109,110
 802 928 802 928 777 995 c 1,106,-1
722 539 m 1,111,-1
 722 946 l 1,112,113
 702 885 702 885 693 674 c 1,114,115
 687 680 687 680 681 684 c 128,-1,116
 675 688 675 688 667 696 c 1,117,-1
 667 522 l 1,118,119
 671 523 671 523 722 539 c 1,111,-1
595 512 m 1,120,-1
 595 762 l 1,121,122
 556 786 556 786 538 788 c 1,123,-1
 538 510 l 1,124,125
 583 510 583 510 595 512 c 1,120,-1
468 518 m 1,126,-1
 468 797 l 1,127,128
 448 797 448 797 411 786 c 1,129,-1
 411 541 l 1,130,-1
 413 537 l 2,131,132
 414 536 414 536 415 534 c 128,-1,133
 416 532 416 532 417 532 c 0,134,135
 427 529 427 529 468 518 c 1,126,-1
EndSplineSet
EndChar

StartChar: unie04d
Encoding: 332 57421 76
Width: 713
VWidth: 0
Flags: W
HStem: 0 43G<473 488> 328 41<140 241> 459 51<372 500> 483 45<136 273> 592 12<388 513>
VStem: 263 88<8 71> 413 117<814 957> 423 84<2 312> 448 59<87 315> 552 111<571 736>
LayerCount: 2
Fore
SplineSet
372 461 m 1,0,1
 378 414 378 414 446 373 c 1,2,3
 511 420 511 420 523 492 c 1,4,5
 461 459 461 459 421 459 c 0,6,7
 386 459 386 459 372 461 c 1,0,1
364 512 m 1,8,9
 370 510 370 510 397 510 c 0,10,11
 484 510 484 510 587 590 c 1,12,13
 569 592 569 592 513 592 c 0,14,15
 456 592 456 592 431 578 c 0,16,17
 403 562 403 562 364 512 c 1,8,9
388 604 m 1,18,19
 461 607 461 607 505 627 c 0,20,21
 552 648 552 648 552 688 c 0,22,23
 552 726 552 726 505 776 c 1,24,25
 484 749 484 749 456 721 c 0,26,27
 430 695 430 695 413 668 c 128,-1,28
 396 641 396 641 388 604 c 1,18,19
435 315 m 1,29,-1
 435 309 l 1,30,-1
 351 23 l 1,31,32
 324 8 324 8 306 8 c 0,33,34
 278 8 278 8 263 39 c 1,35,36
 268 129 268 129 354 375 c 1,37,-1
 333 397 l 1,38,39
 252 328 252 328 210 328 c 0,40,41
 170 328 170 328 61 387 c 1,42,-1
 77 410 l 1,43,44
 173 369 173 369 194 369 c 0,45,46
 218 369 218 369 239 387 c 0,47,48
 249 396 249 396 298 459 c 1,49,-1
 274 483 l 1,50,-1
 235 483 l 2,51,52
 189 483 189 483 153 492 c 0,53,54
 119 501 119 501 50 537 c 1,55,-1
 93 569 l 1,56,57
 99 567 99 567 112.5 561 c 128,-1,58
 126 555 126 555 130 553 c 0,59,60
 148 545 148 545 165 541 c 0,61,62
 168 540 168 540 177 536.5 c 128,-1,63
 186 533 186 533 192 532 c 0,64,65
 212 528 212 528 224 528 c 0,66,67
 242 528 242 528 274 535 c 1,68,69
 267 566 267 566 267 588 c 0,70,71
 267 653 267 653 304 705 c 0,72,73
 348 767 348 767 378 799 c 0,74,75
 413 837 413 837 413 881 c 0,76,77
 413 931 413 931 370 989 c 1,78,79
 337 1039 337 1039 337 1133 c 0,80,81
 337 1219 337 1219 392 1225 c 1,82,83
 421 1219 421 1219 435 1214 c 0,84,85
 473 1200 473 1200 476 1198 c 2,86,-1
 493 1190 l 1,87,88
 595 1108 595 1108 595 1016 c 0,89,90
 595 991 595 991 593 985 c 0,91,92
 592 984 592 984 582.5 970 c 128,-1,93
 573 956 573 956 566 946 c 0,94,95
 546 917 546 917 538 897 c 0,96,97
 530 878 530 878 530 854 c 0,98,99
 530 833 530 833 540 813 c 1,100,101
 606 757 606 757 632 717 c 0,102,103
 663 669 663 669 663 602 c 0,104,105
 663 579 663 579 661 573 c 0,106,107
 617 414 617 414 517 354 c 1,108,109
 507 299 507 299 507 238 c 0,110,111
 507 199 507 199 513 125 c 0,112,113
 517 76 517 76 517 23 c 1,114,115
 501 0 501 0 480 0 c 0,116,117
 456 0 456 0 431 14 c 1,118,119
 423 41 423 41 423 86 c 0,120,121
 423 128 423 128 435 207 c 0,122,123
 440 238 440 238 448 313 c 1,124,-1
 435 315 l 1,29,-1
EndSplineSet
EndChar

StartChar: unie04e
Encoding: 333 57422 77
Width: 713
VWidth: 0
Flags: W
HStem: 2 43G<340 463> 330 41<137 240> 461 49<372 498> 485 45<139 274> 594 10<446 476>
VStem: 413 117<75 236 816 955> 448 59<73 317> 552 111<588 736>
LayerCount: 2
Fore
SplineSet
372 463 m 1,0,1
 378 412 378 412 446 375 c 1,2,3
 511 420 511 420 523 492 c 1,4,5
 517 489 517 489 507 484 c 128,-1,6
 497 479 497 479 493 477 c 128,-1,7
 489 475 489 475 482 472 c 128,-1,8
 475 469 475 469 471.5 468 c 128,-1,9
 468 467 468 467 462 465 c 128,-1,10
 456 463 456 463 451 462.5 c 128,-1,11
 446 462 446 462 439.5 461.5 c 128,-1,12
 433 461 433 461 425 461 c 0,13,14
 395 461 395 461 372 463 c 1,0,1
364 512 m 1,15,16
 374 510 374 510 397 510 c 0,17,18
 493 510 493 510 587 592 c 1,19,20
 560 594 560 594 517 594 c 0,21,22
 463 594 463 594 435 578.5 c 128,-1,23
 407 563 407 563 364 512 c 1,15,16
388 604 m 1,24,25
 459 606 459 606 505.5 627.5 c 128,-1,26
 552 649 552 649 552 690 c 0,27,28
 552 728 552 728 505 778 c 1,29,30
 486 749 486 749 458 721 c 128,-1,31
 430 693 430 693 413.5 669 c 128,-1,32
 397 645 397 645 388 604 c 1,24,25
399 2 m 1,33,-1
 362 2 l 2,34,35
 323 2 323 2 299 9.5 c 128,-1,36
 275 17 275 17 263 41 c 1,37,38
 264 58 264 58 266 75.5 c 128,-1,39
 268 93 268 93 272.5 114 c 128,-1,40
 277 135 277 135 280 149 c 128,-1,41
 283 163 283 163 290.5 188 c 128,-1,42
 298 213 298 213 301 223.5 c 128,-1,43
 304 234 304 234 314 263 c 128,-1,44
 324 292 324 292 326.5 299.5 c 128,-1,45
 329 307 329 307 340.5 340 c 128,-1,46
 352 373 352 373 354 377 c 1,47,-1
 333 399 l 1,48,49
 287 360 287 360 262 345 c 128,-1,50
 237 330 237 330 210 330 c 0,51,52
 167 330 167 330 61 389 c 1,53,-1
 77 412 l 1,54,55
 170 371 170 371 194 371 c 128,-1,56
 218 371 218 371 238.5 389.5 c 128,-1,57
 259 408 259 408 298 461 c 1,58,-1
 274 485 l 1,59,-1
 212 485 l 2,60,61
 168 485 168 485 144 493 c 128,-1,62
 120 501 120 501 50 537 c 1,63,-1
 93 571 l 1,64,65
 106 566 106 566 129.5 555.5 c 128,-1,66
 153 545 153 545 163.5 541 c 128,-1,67
 174 537 174 537 190.5 533.5 c 128,-1,68
 207 530 207 530 224 530 c 128,-1,69
 241 530 241 530 276 537 c 1,70,71
 270 567 270 567 270 592 c 0,72,73
 270 643 270 643 292.5 687.5 c 128,-1,74
 315 732 315 732 341.5 758 c 128,-1,75
 368 784 368 784 390.5 818 c 128,-1,76
 413 852 413 852 413 885 c 0,77,78
 413 931 413 931 370 991 c 1,79,80
 358 1010 358 1010 347.5 1052.5 c 128,-1,81
 337 1095 337 1095 337 1135 c 0,82,83
 337 1222 337 1222 392 1227 c 1,84,85
 408 1225 408 1225 433.5 1216 c 128,-1,86
 459 1207 459 1207 476 1198 c 2,87,-1
 493 1190 l 1,88,89
 595 1108 595 1108 595 1016 c 0,90,91
 595 995 595 995 593 985 c 1,92,93
 588 976 588 976 568 946.5 c 128,-1,94
 548 917 548 917 539 897 c 128,-1,95
 530 877 530 877 530 856 c 0,96,97
 530 832 530 832 540 815 c 1,98,99
 599 765 599 765 631 717.5 c 128,-1,100
 663 670 663 670 663 600 c 0,101,102
 663 596 663 596 662 587.5 c 128,-1,103
 661 579 661 579 661 575 c 1,104,105
 619 418 619 418 517 354 c 1,106,107
 507 305 507 305 507 240 c 0,108,109
 507 200 507 200 511.5 127 c 128,-1,110
 516 54 516 54 517 25 c 1,111,112
 501 2 501 2 448 2 c 2,113,-1
 399 2 l 1,33,-1
435 317 m 1,114,115
 427 279 427 279 416.5 240.5 c 128,-1,116
 406 202 406 202 390.5 151.5 c 128,-1,117
 375 101 375 101 368 78 c 1,118,119
 369 65 369 65 372.5 58 c 128,-1,120
 376 51 376 51 379.5 48.5 c 128,-1,121
 383 46 383 46 389.5 48.5 c 128,-1,122
 396 51 396 51 399.5 53 c 128,-1,123
 403 55 403 55 411.5 61.5 c 128,-1,124
 420 68 420 68 423 70 c 1,125,126
 423 116 423 116 434.5 200 c 128,-1,127
 446 284 446 284 448 315 c 1,128,-1
 435 317 l 1,114,115
EndSplineSet
EndChar

StartChar: unie04f
Encoding: 334 57423 78
Width: 1120
VWidth: 0
Flags: W
HStem: 0 43G<446 459> 328 43<137 227> 461 49<352 471> 485 45<134 257> 594 10<366 489>
VStem: 317 244<988 1162> 388 109<816 963> 399 80<2 315> 421 57<91 317> 519 102<596 738> 978 92<525 598>
LayerCount: 2
Fore
SplineSet
368 1227 m 1,0,1
 390 1225 390 1225 437 1210 c 1,2,-1
 440 1210 l 1,3,4
 442 1208 442 1208 444 1208 c 0,5,6
 448 1208 448 1208 450 1206 c 1,7,8
 479 1196 479 1196 530 1184 c 0,9,10
 582 1171 582 1171 610 1163 c 0,11,12
 649 1151 649 1151 685 1135 c 0,13,14
 729 1115 729 1115 765 1090 c 128,-1,15
 801 1065 801 1065 839 1024 c 0,16,17
 884 975 884 975 911 926 c 0,18,19
 944 866 944 866 976 791 c 0,20,21
 1015 702 1015 702 1040 606 c 1,22,23
 1070 594 1070 594 1070 561 c 2,24,-1
 1070 559 l 2,25,26
 1070 539 1070 539 1058 524 c 0,27,28
 1047 510 1047 510 1027 510 c 2,29,-1
 1025 510 l 2,30,31
 1006 510 1006 510 992 524 c 0,32,33
 981 535 981 535 978 557 c 1,34,-1
 978 559 l 2,35,36
 978 582 978 582 997 598 c 1,37,38
 889 1043 889 1043 517 1163 c 1,39,40
 560 1108 560 1108 560 1034 c 0,41,42
 560 1033 560 1033 556 987 c 1,43,44
 554 984 554 984 538 956 c 0,45,46
 534 949 534 949 526.5 938.5 c 128,-1,47
 519 928 519 928 517 924 c 0,48,49
 506 902 506 902 503 893 c 0,50,51
 497 875 497 875 497 858 c 0,52,53
 497 835 497 835 507 815 c 1,54,55
 559 769 559 769 591 719 c 0,56,57
 622 671 622 671 622 602 c 1,58,59
 621 598 l 2,60,61
 620 594 620 594 620 590 c 2,62,-1
 620 575 l 1,63,64
 579 414 579 414 487 354 c 1,65,66
 478 302 478 302 478 238 c 0,67,68
 478 226 478 226 479 209 c 128,-1,69
 480 192 480 192 481 166.5 c 128,-1,70
 482 141 482 141 483 123 c 0,71,72
 487 25 487 25 487 23 c 1,73,74
 471 0 471 0 452 0 c 0,75,76
 432 0 432 0 407 14 c 1,77,78
 399 41 399 41 399 90 c 0,79,80
 399 121 399 121 409 213 c 0,81,82
 417 289 417 289 421 315 c 1,83,-1
 409 317 l 1,84,-1
 409 309 l 1,85,-1
 331 23 l 1,86,87
 307 8 307 8 290 8 c 0,88,89
 262 8 262 8 247 39 c 1,90,91
 250 121 250 121 333 375 c 1,92,-1
 313 397 l 1,93,94
 303 392 303 392 296 385 c 0,95,96
 284 373 284 373 280 371 c 0,97,98
 278 370 278 370 274 366 c 128,-1,99
 270 362 270 362 267 360 c 2,100,-1
 255 348 l 1,101,-1
 243 342 l 2,102,103
 235 338 235 338 233 336 c 0,104,105
 232 335 232 335 228 334 c 128,-1,106
 224 333 224 333 222 332 c 0,107,108
 214 328 214 328 210 328 c 2,109,-1
 200 328 l 2,110,111
 165 328 165 328 61 389 c 1,112,-1
 75 412 l 1,113,114
 165 371 165 371 184 371 c 0,115,116
 206 371 206 371 224 389 c 0,117,118
 240 405 240 405 280 461 c 1,119,-1
 257 485 l 1,120,-1
 208 485 l 2,121,122
 162 485 162 485 138 492 c 0,123,124
 117 498 117 498 50 537 c 1,125,-1
 89 571 l 1,126,127
 93 569 93 569 105.5 564.5 c 128,-1,128
 118 560 118 560 124 557 c 128,-1,129
 130 554 130 554 141 549 c 128,-1,130
 152 544 152 544 155 543 c 0,131,132
 176 536 176 536 181 535 c 0,133,134
 206 530 206 530 212 530 c 0,135,136
 228 530 228 530 259 537 c 1,137,138
 255 561 255 561 255 590 c 0,139,140
 255 640 255 640 276 686 c 0,141,142
 298 735 298 735 321 758 c 0,143,144
 349 786 349 786 368 817 c 0,145,146
 388 850 388 850 388 885 c 0,147,148
 388 931 388 931 347 993 c 1,149,150
 317 1042 317 1042 317 1137 c 0,151,152
 317 1221 317 1221 368 1227 c 1,0,1
366 604 m 1,153,154
 430 607 430 607 476 629 c 0,155,156
 519 650 519 650 519 690 c 0,157,158
 519 727 519 727 474 778 c 1,159,160
 451 744 451 744 431 721 c 0,161,162
 400 686 400 686 390 670 c 0,163,164
 376 647 376 647 366 604 c 1,153,154
343 512 m 1,165,166
 349 510 349 510 372 510 c 0,167,168
 464 510 464 510 552 592 c 1,169,170
 536 594 536 594 489 594 c 0,171,172
 440 594 440 594 411 578 c 0,173,174
 381 561 381 561 343 512 c 1,165,166
351 463 m 1,175,176
 357 414 357 414 419 373 c 1,177,178
 482 421 482 421 491 492 c 1,179,180
 427 461 427 461 401 461 c 0,181,182
 365 461 365 461 351 463 c 1,175,176
EndSplineSet
EndChar

StartChar: unie050
Encoding: 335 57424 79
Width: 815
VWidth: 0
Flags: W
HStem: 0 43G<469 484> 328 43<140 238> 459 51<358 481> 485 45<140 271> 592 12<460 476>
VStem: 259 88<8 71> 409 115<816 957> 419 84<2 315> 444 59<87 317> 675 90<309 522 721 923>
LayerCount: 2
Fore
SplineSet
388 1227 m 1,0,1
 423 1220 423 1220 431 1217 c 0,2,3
 465 1204 465 1204 472 1200 c 2,4,-1
 489 1192 l 1,5,6
 589 1114 589 1114 589 1018 c 0,7,8
 589 993 589 993 587 987 c 0,9,10
 586 985 586 985 577.5 971.5 c 128,-1,11
 569 958 569 958 562 948 c 0,12,13
 542 919 542 919 534 899 c 0,14,15
 523 873 523 873 523 858 c 0,16,17
 523 837 523 837 534 815 c 1,18,19
 542 807 542 807 552 799 c 0,20,21
 557 795 557 795 565 789.5 c 128,-1,22
 573 784 573 784 575 782 c 2,23,-1
 591 766 l 1,24,25
 600 760 600 760 612 743 c 0,26,27
 624 727 624 727 628 717 c 1,28,29
 677 757 677 757 677 856 c 2,30,-1
 677 901 l 2,31,32
 677 912 677 912 676 929.5 c 128,-1,33
 675 947 675 947 675 952 c 0,34,35
 675 1022 675 1022 687 1071 c 1,36,37
 763 952 763 952 763 825 c 0,38,39
 763 683 763 683 665 631 c 1,40,41
 765 565 765 565 765 449 c 0,42,43
 765 363 765 363 685 150 c 1,44,45
 667 196 667 196 667 264 c 0,46,47
 667 274 667 274 671 340 c 128,-1,48
 675 406 675 406 675 408 c 0,49,50
 675 486 675 486 634 524 c 1,51,52
 617 462 617 462 591 422 c 0,53,54
 573 393 573 393 513 354 c 1,55,56
 503 299 503 299 503 238 c 0,57,58
 503 199 503 199 509 125 c 0,59,60
 513 76 513 76 513 23 c 1,61,62
 497 0 497 0 476 0 c 0,63,64
 452 0 452 0 427 14 c 1,65,66
 419 41 419 41 419 86 c 0,67,68
 419 130 419 130 431 209 c 0,69,70
 436 240 436 240 444 315 c 1,71,-1
 431 317 l 1,72,-1
 431 309 l 1,73,-1
 347 23 l 1,74,75
 320 8 320 8 302 8 c 0,76,77
 274 8 274 8 259 39 c 1,78,79
 260 46 260 46 261 61.5 c 128,-1,80
 262 77 262 77 263 84 c 0,81,82
 264 88 264 88 274 135 c 0,83,84
 276 144 276 144 279.5 158.5 c 128,-1,85
 283 173 283 173 284 178 c 0,86,87
 286 190 286 190 300 229 c 0,88,89
 305 242 305 242 310.5 257 c 128,-1,90
 316 272 316 272 317 274 c 128,-1,91
 318 276 318 276 320 283.5 c 128,-1,92
 322 291 322 291 325.5 303 c 128,-1,93
 329 315 329 315 333 328 c 0,94,95
 345 363 345 363 351 375 c 1,96,-1
 329 397 l 1,97,98
 245 328 245 328 208 328 c 128,-1,99
 171 328 171 328 61 389 c 1,100,-1
 77 412 l 1,101,102
 173 371 173 371 192 371 c 0,103,104
 214 371 214 371 235 389 c 0,105,106
 255 406 255 406 294 461 c 1,107,-1
 272 485 l 1,108,-1
 218 485 l 2,109,110
 173 485 173 485 145 492 c 0,111,112
 125 497 125 497 50 537 c 1,113,-1
 93 571 l 1,114,115
 96 570 96 570 109 565 c 128,-1,116
 122 560 122 560 130 557 c 0,117,118
 161 544 161 544 163 543 c 0,119,120
 183 536 183 536 190 535 c 0,121,122
 215 530 215 530 222 530 c 0,123,124
 240 530 240 530 272 537 c 1,125,126
 265 569 265 569 265 590 c 0,127,128
 265 660 265 660 300 709 c 0,129,130
 334 757 334 757 374 803 c 0,131,132
 409 844 409 844 409 885 c 0,133,134
 409 935 409 935 366 993 c 1,135,136
 333 1043 333 1043 333 1135 c 0,137,138
 333 1221 333 1221 388 1227 c 1,0,1
374 604 m 1,139,140
 528 607 528 607 528 686 c 0,141,142
 528 731 528 731 483 776 c 1,143,144
 465 750 465 750 440 721 c 0,145,146
 413 691 413 691 399 668 c 0,147,148
 382 641 382 641 374 604 c 1,139,140
349 512 m 1,149,150
 355 510 355 510 380 510 c 0,151,152
 467 510 467 510 562 590 c 1,153,154
 544 592 544 592 493 592 c 0,155,156
 440 592 440 592 415 578 c 0,157,158
 393 566 393 566 349 512 c 1,149,150
358 461 m 1,159,160
 364 413 364 413 427 373 c 1,161,162
 492 420 492 420 501 492 c 1,163,164
 439 459 439 459 405 459 c 0,165,166
 370 459 370 459 358 461 c 1,159,160
EndSplineSet
EndChar

StartChar: unie051
Encoding: 336 57425 80
Width: 1120
VWidth: 0
Flags: W
HStem: 2 41G<166 329 668 682 792 955> 328 41<330 425> 459 51<565 696> 483 45<327 464> 592 12<581 708>
VStem: 50 104<343 859> 454 90<8 71> 607 117<814 955> 618 84<2 312> 642 59<87 315> 747 113<571 736> 966 104<343 859>
LayerCount: 2
Fore
SplineSet
581 604 m 1,0,1
 656 607 656 607 700 627 c 0,2,3
 747 648 747 648 747 688 c 0,4,5
 747 726 747 726 700 776 c 1,6,7
 672 740 672 740 653 721 c 0,8,9
 628 696 628 696 607 668 c 0,10,11
 590 646 590 646 581 604 c 1,0,1
556 512 m 1,12,13
 562 510 562 510 589 510 c 0,14,15
 681 510 681 510 784 590 c 1,16,17
 764 592 764 592 708 592 c 0,18,19
 651 592 651 592 626 578 c 0,20,21
 597 562 597 562 556 512 c 1,12,13
564 461 m 1,22,23
 570 414 570 414 638 373 c 1,24,25
 706 420 706 420 718 492 c 1,26,27
 653 459 653 459 614 459 c 0,28,29
 578 459 578 459 564 461 c 1,22,23
628 315 m 1,30,-1
 628 309 l 1,31,-1
 544 23 l 1,32,33
 517 8 517 8 499 8 c 0,34,35
 470 8 470 8 454 39 c 1,36,37
 455 46 455 46 457 61.5 c 128,-1,38
 459 77 459 77 460 84 c 0,39,40
 466 126 466 126 468 135 c 128,-1,41
 470 144 470 144 473.5 158.5 c 128,-1,42
 477 173 477 173 478 178 c 128,-1,43
 479 183 479 183 495 229 c 0,44,45
 499 239 499 239 502 249 c 128,-1,46
 505 259 505 259 506.5 265.5 c 128,-1,47
 508 272 508 272 509 274 c 128,-1,48
 510 276 510 276 513 283.5 c 128,-1,49
 516 291 516 291 521 303 c 128,-1,50
 526 315 526 315 530 328 c 0,51,52
 534 340 534 340 538 351.5 c 128,-1,53
 542 363 542 363 543.5 368 c 128,-1,54
 545 373 545 373 546 375 c 1,55,-1
 523 397 l 1,56,57
 442 328 442 328 401 328 c 0,58,59
 361 328 361 328 249 387 c 1,60,-1
 265 410 l 1,61,62
 361 369 361 369 382 369 c 0,63,64
 420 369 420 369 489 459 c 1,65,-1
 464 483 l 1,66,-1
 423 483 l 2,67,68
 377 483 377 483 341 492 c 0,69,70
 310 500 310 500 237 537 c 1,71,-1
 282 569 l 1,72,73
 284 568 284 568 298 562.5 c 128,-1,74
 312 557 312 557 321 553 c 0,75,76
 345 544 345 544 354 541 c 0,77,78
 380 532 380 532 382 532 c 0,79,80
 406 528 406 528 415 528 c 0,81,82
 431 528 431 528 466 535 c 1,83,84
 460 562 460 562 460 588 c 0,85,86
 460 653 460 653 497 705 c 0,87,88
 531 753 531 753 571 799 c 0,89,90
 607 841 607 841 607 881 c 0,91,92
 607 932 607 932 562 989 c 1,93,94
 528 1044 528 1044 528 1133 c 0,95,96
 528 1219 528 1219 585 1225 c 1,97,98
 614 1219 614 1219 628 1214 c 0,99,100
 634 1212 634 1212 643 1209 c 128,-1,101
 652 1206 652 1206 659 1203.5 c 128,-1,102
 666 1201 666 1201 671 1198 c 2,103,-1
 687 1190 l 1,104,105
 792 1110 792 1110 792 1014 c 0,106,107
 792 991 792 991 790 985 c 0,108,109
 789 984 789 984 779.5 970 c 128,-1,110
 770 956 770 956 763 946 c 0,111,112
 741 912 741 912 734 897 c 0,113,114
 724 874 724 874 724 854 c 0,115,116
 724 833 724 833 734 813 c 1,117,118
 803 758 803 758 829 717 c 0,119,120
 859 670 859 670 859 602 c 0,121,122
 859 579 859 579 857 573 c 0,123,124
 817 418 817 418 712 354 c 1,125,126
 702 299 702 299 702 238 c 0,127,128
 702 174 702 174 706 125 c 0,129,130
 712 52 712 52 712 23 c 1,131,132
 696 0 696 0 675 0 c 0,133,134
 651 0 651 0 626 14 c 1,135,136
 618 41 618 41 618 86 c 0,137,138
 618 141 618 141 628 207 c 0,139,140
 636 263 636 263 642 313 c 1,141,-1
 628 315 l 1,30,-1
329 1227 m 1,142,143
 328 1224 328 1224 321.5 1207 c 128,-1,144
 315 1190 315 1190 303.5 1158.5 c 128,-1,145
 292 1127 292 1127 278 1092 c 0,146,147
 229 966 229 966 216 920 c 0,148,149
 188 822 188 822 177 774 c 0,150,151
 159 694 159 694 155 614 c 1,152,153
 158 522 158 522 175 442 c 0,154,155
 194 352 194 352 214 299 c 0,156,157
 241 228 241 228 272 152 c 0,158,159
 312 54 312 54 329 2 c 1,160,-1
 224 2 l 1,161,162
 50 334 50 334 50 590 c 2,163,-1
 50 614 l 1,164,-1
 50 627 l 2,165,166
 50 730 50 730 83 848 c 0,167,168
 118 974 118 974 141 1032 c 0,169,170
 166 1097 166 1097 224 1227 c 1,171,-1
 329 1227 l 1,142,143
792 1227 m 1,172,-1
 896 1227 l 1,173,174
 962 1078 962 1078 980 1032 c 0,175,176
 1003 974 1003 974 1038 848 c 0,177,178
 1070 734 1070 734 1070 627 c 2,179,-1
 1070 614 l 1,180,-1
 1070 590 l 2,181,182
 1070 334 1070 334 896 2 c 1,183,-1
 792 2 l 1,184,185
 809 54 809 54 849 152 c 0,186,187
 867 196 867 196 906 299 c 0,188,189
 926 352 926 352 945 442 c 0,190,191
 963 527 963 527 966 614 c 1,192,193
 963 688 963 688 943 774 c 0,194,195
 932 822 932 822 904 920 c 0,196,197
 888 976 888 976 843 1092 c 0,198,199
 829 1127 829 1127 817.5 1158.5 c 128,-1,200
 806 1190 806 1190 799.5 1207 c 128,-1,201
 793 1224 793 1224 792 1227 c 1,172,-1
EndSplineSet
EndChar

StartChar: unie052
Encoding: 337 57426 81
Width: 1327
VWidth: 0
Flags: W
HStem: 0 59<423 804> 315 360<404 716> 821 39<790 1001> 1174 55<597 893>
VStem: 50 47<479 778> 306 627<366 532> 1218 59<474 843>
LayerCount: 2
Fore
SplineSet
108 563 m 1,0,1
 129 362 129 362 218 238 c 0,2,3
 308 113 308 113 505 61 c 1,4,5
 519 59 519 59 575 59 c 0,6,7
 670 59 670 59 763 78 c 0,8,9
 843 94 843 94 935 141 c 0,10,11
 1025 187 1025 187 1087 266 c 0,12,13
 1150 346 1150 346 1185 463 c 1,14,15
 1218 566 1218 566 1218 670 c 0,16,17
 1218 891 1218 891 1074 1032 c 0,18,19
 929 1174 929 1174 732 1174 c 0,20,21
 617 1174 617 1174 517 1124 c 1,22,23
 337 1052 337 1052 218 930 c 0,24,25
 98 807 98 807 98 647 c 0,26,27
 98 615 98 615 108 563 c 1,0,1
50 600 m 1,28,29
 51 625 51 625 55 660 c 128,-1,30
 59 695 59 695 59 702 c 0,31,32
 63 759 63 759 71 791 c 0,33,34
 81 831 81 831 102 872 c 0,35,36
 111 889 111 889 153 946 c 0,37,38
 176 977 176 977 231 1018 c 0,39,40
 246 1029 246 1029 343 1090 c 0,41,42
 393 1121 393 1121 497 1169 c 1,43,44
 660 1229 660 1229 777 1229 c 0,45,46
 950 1229 950 1229 1089 1096 c 1,47,48
 1277 914 1277 914 1277 647 c 0,49,50
 1277 538 1277 538 1236 432 c 1,51,52
 1203 338 1203 338 1165 279 c 0,53,54
 1120 209 1120 209 1048 143 c 0,55,56
 973 74 973 74 857 37 c 0,57,58
 742 0 742 0 583 0 c 0,59,60
 573 0 573 0 487 4 c 1,61,62
 332 16 332 16 192 190 c 0,63,64
 50 367 50 367 50 588 c 2,65,-1
 50 600 l 1,28,29
259 356 m 1,66,67
 261 373 261 373 284 410 c 0,68,69
 306 446 306 446 306 469 c 0,70,71
 306 506 306 506 267 557 c 1,72,73
 272 560 272 560 290.5 571 c 128,-1,74
 309 582 309 582 323 590 c 0,75,76
 365 615 365 615 384 623 c 0,77,78
 388 625 388 625 398.5 629.5 c 128,-1,79
 409 634 409 634 419.5 638.5 c 128,-1,80
 430 643 430 643 440 647 c 0,81,82
 483 666 483 666 505 670 c 0,83,84
 535 676 535 676 569 676 c 0,85,86
 643 676 643 676 718 639 c 1,87,-1
 605 844 l 1,88,89
 605 848 605 848 599 872 c 0,90,91
 591 904 591 904 591 907 c 0,92,93
 591 949 591 949 685 958 c 1,94,95
 709 920 709 920 739 897 c 0,96,97
 761 880 761 880 788 877 c 0,98,99
 813 874 813 874 822 868 c 1,100,-1
 1007 860 l 1,101,-1
 1001 821 l 1,102,-1
 790 807 l 1,103,104
 793 718 793 718 829 645 c 0,105,106
 875 551 875 551 898 516 c 0,107,108
 933 463 933 463 933 436 c 0,109,110
 933 390 933 390 863 350 c 1,111,112
 760 315 760 315 636 315 c 0,113,114
 608 315 608 315 538 319 c 0,115,116
 486 322 486 322 448 328 c 2,117,-1
 411 334 l 2,118,119
 374 340 374 340 349 344 c 0,120,121
 284 353 284 353 259 356 c 1,66,67
EndSplineSet
EndChar

StartChar: unie053
Encoding: 338 57427 82
Width: 1821
VWidth: 0
Flags: W
VStem: 687 106<666 705 739 776> 861 104<448 978> 1033 106<662 698 735 772>
CounterMasks: 1 e0
LayerCount: 2
Fore
SplineSet
1519 844 m 1,0,-1
 1378 618 l 1,1,-1
 1138 772 l 1,2,3
 1138 770 1138 770 1139 764 c 128,-1,4
 1140 758 1140 758 1140 754 c 2,5,-1
 1140 735 l 1,6,-1
 1371 584 l 1,7,-1
 1351 557 l 1,8,-1
 1142 698 l 1,9,10
 1142 696 1142 696 1141 690 c 128,-1,11
 1140 684 1140 684 1140 680 c 2,12,-1
 1140 662 l 1,13,-1
 1355 518 l 1,14,-1
 1529 791 l 1,15,-1
 1654 725 l 1,16,-1
 1679 743 l 1,17,-1
 1519 844 l 1,0,-1
302 844 m 1,18,-1
 143 743 l 1,19,-1
 167 725 l 1,20,-1
 292 791 l 1,21,-1
 466 518 l 1,22,-1
 687 666 l 1,23,-1
 687 705 l 1,24,-1
 470 557 l 1,25,-1
 450 584 l 1,26,-1
 687 739 l 2,27,28
 687 740 687 740 688 747 c 128,-1,29
 689 754 689 754 689 758 c 2,30,-1
 689 776 l 1,31,-1
 444 618 l 1,32,-1
 302 844 l 1,18,-1
945 981 m 1,33,34
 966 879 966 879 966 772 c 0,35,36
 966 738 966 738 962 664 c 0,37,38
 961 637 961 637 952 541 c 0,39,40
 950 517 950 517 946 482 c 128,-1,41
 942 447 942 447 941 436 c 1,42,43
 991 515 991 515 1027 639 c 1,44,45
 1033 688 1033 688 1033 731 c 0,46,47
 1033 887 1033 887 945 981 c 1,33,34
884 985 m 1,48,49
 794 889 794 889 794 731 c 0,50,51
 794 688 794 688 800 639 c 1,52,53
 840 513 840 513 882 442 c 1,54,55
 861 638 861 638 861 754 c 128,-1,56
 861 870 861 870 884 985 c 1,48,49
913 1223 m 1,57,58
 1088 1094 1088 1094 1132 838 c 1,59,-1
 1359 717 l 1,60,-1
 1509 905 l 1,61,-1
 1771 692 l 1,62,-1
 1525 727 l 1,63,-1
 1359 479 l 1,64,-1
 1136 616 l 1,65,66
 1109 475 1109 475 990 307 c 1,67,68
 1021 278 1021 278 1081 242 c 0,69,70
 1156 196 1156 196 1189 182 c 0,71,72
 1240 160 1240 160 1281 135 c 1,73,-1
 1115 6 l 1,74,75
 1026 83 1026 83 945 170 c 1,76,77
 954 96 954 96 999 4 c 1,78,-1
 822 4 l 1,79,80
 878 69 878 69 890 178 c 1,81,82
 820 99 820 99 714 6 c 1,83,-1
 546 135 l 1,84,85
 593 163 593 163 636 182 c 0,86,87
 680 201 680 201 747 242 c 0,88,89
 804 277 804 277 837 307 c 1,90,91
 718 474 718 474 691 621 c 1,92,-1
 462 479 l 1,93,-1
 296 727 l 1,94,-1
 50 692 l 1,95,-1
 313 905 l 1,96,-1
 462 717 l 1,97,-1
 696 842 l 1,98,-1
 696 834 l 1,99,100
 737 1093 737 1093 913 1223 c 1,57,58
EndSplineSet
EndChar

StartChar: unie054
Encoding: 339 57428 83
Width: 920
VWidth: 0
Flags: W
HStem: 0 43G<491 870> 477 59<343 470> 594 59<229 394> 733 59<177 378> 870 59<210 411> 997 59<239 440> 1120 109<253 468>
LayerCount: 2
Fore
SplineSet
192 1229 m 1,0,-1
 564 1229 l 1,1,-1
 458 688 l 1,2,-1
 870 0 l 1,3,-1
 491 0 l 1,4,-1
 575 78 l 1,5,-1
 401 276 l 1,6,-1
 339 76 l 1,7,-1
 270 104 l 1,8,-1
 329 346 l 1,9,-1
 50 653 l 1,10,-1
 192 1229 l 1,0,-1
239 1057 m 1,11,-1
 454 1057 l 1,12,-1
 468 1120 l 1,13,-1
 253 1120 l 1,14,-1
 239 1057 l 1,11,-1
509 477 m 1,15,-1
 343 477 l 1,16,-1
 433 385 l 1,17,-1
 523 453 l 1,18,-1
 509 477 l 1,15,-1
431 594 m 1,19,-1
 229 594 l 1,20,-1
 286 537 l 1,21,-1
 470 537 l 1,22,-1
 431 594 l 1,19,-1
378 733 m 1,23,-1
 163 733 l 1,24,-1
 151 676 l 1,25,-1
 171 653 l 1,26,-1
 394 653 l 1,27,-1
 370 690 l 1,28,-1
 378 733 l 1,23,-1
411 870 m 1,29,-1
 196 870 l 1,30,-1
 177 793 l 1,31,-1
 392 793 l 1,32,-1
 411 870 l 1,29,-1
440 997 m 1,33,-1
 224 997 l 1,34,-1
 210 930 l 1,35,-1
 425 930 l 1,36,-1
 440 997 l 1,33,-1
EndSplineSet
EndChar

StartChar: unie055
Encoding: 340 57429 84
Width: 1339
VWidth: 0
Flags: W
HStem: 0 43G<50 163 700 1078 1177 1289> 477 59<554 679> 594 59<440 603> 733 59<386 589> 870 59<419 620> 997 59<450 650> 1120 109<464 677>
VStem: 50 113<0 1225> 1177 113<0 1225>
LayerCount: 2
Fore
SplineSet
1177 1225 m 1,0,-1
 1289 1225 l 1,1,-1
 1289 0 l 1,2,-1
 1177 0 l 1,3,-1
 1177 1225 l 1,0,-1
50 1225 m 1,4,-1
 163 1225 l 1,5,-1
 163 0 l 1,6,-1
 50 0 l 1,7,-1
 50 1225 l 1,4,-1
650 997 m 1,8,-1
 435 997 l 1,9,-1
 419 930 l 1,10,-1
 634 930 l 1,11,-1
 650 997 l 1,8,-1
620 870 m 1,12,-1
 405 870 l 1,13,-1
 386 793 l 1,14,-1
 603 793 l 1,15,-1
 620 870 l 1,12,-1
589 733 m 1,16,-1
 374 733 l 1,17,-1
 360 676 l 1,18,-1
 382 653 l 1,19,-1
 603 653 l 1,20,-1
 579 690 l 1,21,-1
 589 733 l 1,16,-1
642 594 m 1,22,-1
 440 594 l 1,23,-1
 495 537 l 1,24,-1
 679 537 l 1,25,-1
 642 594 l 1,22,-1
718 477 m 1,26,-1
 554 477 l 1,27,-1
 642 385 l 1,28,-1
 732 453 l 1,29,-1
 718 477 l 1,26,-1
450 1057 m 1,30,-1
 663 1057 l 1,31,-1
 677 1120 l 1,32,-1
 464 1120 l 1,33,-1
 450 1057 l 1,30,-1
403 1229 m 1,34,-1
 773 1229 l 1,35,-1
 667 688 l 1,36,-1
 1078 0 l 1,37,-1
 700 0 l 1,38,-1
 784 78 l 1,39,-1
 610 276 l 1,40,-1
 550 76 l 1,41,-1
 478 104 l 1,42,-1
 540 346 l 1,43,-1
 259 653 l 1,44,-1
 403 1229 l 1,34,-1
EndSplineSet
EndChar

StartChar: unie056
Encoding: 341 57430 85
Width: 211
VWidth: 0
Flags: W
HStem: 2 43G<50 161>
VStem: 50 111<2 1221>
LayerCount: 2
Fore
SplineSet
50 1221 m 1,0,-1
 161 1221 l 1,1,-1
 161 2 l 1,2,-1
 50 2 l 1,3,-1
 50 1221 l 1,0,-1
EndSplineSet
EndChar

StartChar: unie057
Encoding: 342 57431 86
Width: 399
VWidth: 0
Flags: W
HStem: 2 39G<50 159 241 349>
VStem: 50 109<2 1221> 241 109<-2 1219>
LayerCount: 2
Fore
SplineSet
241 1219 m 1,0,-1
 349 1219 l 1,1,-1
 349 -2 l 1,2,-1
 241 -2 l 1,3,-1
 241 1219 l 1,0,-1
50 1221 m 1,4,-1
 159 1221 l 1,5,-1
 159 2 l 1,6,-1
 50 2 l 1,7,-1
 50 1221 l 1,4,-1
EndSplineSet
EndChar

StartChar: unie058
Encoding: 343 57432 87
Width: 784
VWidth: 0
Flags: W
HStem: 2 244<52 163 624 734> 987 244<50 161 624 734>
VStem: 52 111<2 246 987 1231> 245 109<4 1225> 435 109<2 1223> 624 111<2 246 977 1221>
LayerCount: 2
Fore
SplineSet
245 1225 m 1,0,-1
 354 1225 l 1,1,-1
 354 4 l 1,2,-1
 245 4 l 1,3,-1
 245 1225 l 1,0,-1
435 1223 m 1,4,-1
 544 1223 l 1,5,-1
 544 2 l 1,6,-1
 435 2 l 1,7,-1
 435 1223 l 1,4,-1
50 1231 m 1,8,-1
 161 1231 l 1,9,-1
 161 987 l 1,10,-1
 50 987 l 1,11,-1
 50 1231 l 1,8,-1
624 1221 m 1,12,-1
 734 1221 l 1,13,-1
 734 977 l 1,14,-1
 624 977 l 1,15,-1
 624 1221 l 1,12,-1
624 246 m 1,16,-1
 734 246 l 1,17,-1
 734 2 l 1,18,-1
 624 2 l 1,19,-1
 624 246 l 1,16,-1
52 246 m 1,20,-1
 163 246 l 1,21,-1
 163 2 l 1,22,-1
 52 2 l 1,23,-1
 52 246 l 1,20,-1
EndSplineSet
EndChar

StartChar: unie059
Encoding: 344 57433 88
Width: 592
VWidth: 0
Flags: W
HStem: -2 43G<50 161 241 351 431 542>
VStem: 50 111<2 1221> 241 111<-2 1219> 431 111<-2 1219>
CounterMasks: 1 70
LayerCount: 2
Fore
SplineSet
241 1219 m 1,0,-1
 351 1219 l 1,1,-1
 351 -2 l 1,2,-1
 241 -2 l 1,3,-1
 241 1219 l 1,0,-1
50 1221 m 1,4,-1
 161 1221 l 1,5,-1
 161 2 l 1,6,-1
 50 2 l 1,7,-1
 50 1221 l 1,4,-1
431 1219 m 1,8,-1
 542 1219 l 1,9,-1
 542 -2 l 1,10,-1
 431 -2 l 1,11,-1
 431 1219 l 1,8,-1
EndSplineSet
EndChar

StartChar: unie05a
Encoding: 345 57434 89
Width: 1020
VWidth: 0
Flags: W
HStem: 2 43G<216 310 380 476>
VStem: 50 96<4 1104> 216 94<0 1100> 380 96<2 627 748 1102>
CounterMasks: 1 70
LayerCount: 2
Fore
SplineSet
739 1227 m 1,0,-1
 784 1182 l 1,1,2
 685 1059 685 1059 673 961 c 1,3,-1
 831 1137 l 1,4,-1
 878 1092 l 1,5,-1
 720 915 l 1,6,7
 793 932 793 932 921 1051 c 1,8,-1
 970 1001 l 1,9,10
 944 976 944 976 882 922 c 0,11,12
 855 898 855 898 804 872 c 0,13,14
 750 844 750 844 704 844 c 0,15,16
 681 844 681 844 661 848 c 1,17,-1
 476 627 l 1,18,-1
 476 2 l 1,19,-1
 380 2 l 1,20,-1
 380 1102 l 1,21,-1
 476 1102 l 1,22,-1
 476 748 l 1,23,-1
 614 893 l 1,24,25
 603 935 603 935 603 956 c 0,26,27
 603 999 603 999 628 1057 c 0,28,29
 652 1112 652 1112 669 1135 c 0,30,31
 711 1191 711 1191 739 1227 c 1,0,-1
50 1104 m 1,32,-1
 147 1104 l 1,33,-1
 147 4 l 1,34,-1
 50 4 l 1,35,-1
 50 1104 l 1,32,-1
216 1100 m 1,36,-1
 310 1100 l 1,37,-1
 310 0 l 1,38,-1
 216 0 l 1,39,-1
 216 1100 l 1,36,-1
EndSplineSet
EndChar

StartChar: unie05b
Encoding: 346 57435 90
Width: 918
VWidth: 0
Flags: W
HStem: 0 45G<210 300 368 458>
VStem: 50 92<4 1110> 210 90<0 1108> 368 90<2 643 737 1108>
LayerCount: 2
Fore
SplineSet
786 1227 m 1,0,-1
 868 1100 l 1,1,-1
 458 643 l 1,2,-1
 458 2 l 1,3,-1
 368 2 l 1,4,-1
 368 1108 l 1,5,-1
 458 1108 l 1,6,-1
 458 737 l 1,7,-1
 640 922 l 1,8,-1
 528 1112 l 1,9,-1
 571 1133 l 1,10,-1
 665 975 l 1,11,-1
 687 999 l 1,12,-1
 603 1147 l 1,13,-1
 640 1165 l 1,14,-1
 718 1030 l 1,15,-1
 747 1061 l 1,16,-1
 675 1180 l 1,17,-1
 710 1196 l 1,18,-1
 775 1092 l 1,19,-1
 802 1122 l 1,20,-1
 747 1210 l 1,21,-1
 786 1227 l 1,0,-1
50 1110 m 1,22,-1
 143 1110 l 1,23,-1
 143 4 l 1,24,-1
 50 4 l 1,25,-1
 50 1110 l 1,22,-1
210 1108 m 1,26,-1
 300 1108 l 1,27,-1
 300 0 l 1,28,-1
 210 0 l 1,29,-1
 210 1108 l 1,26,-1
EndSplineSet
EndChar

StartChar: unie05c
Encoding: 347 57436 91
Width: 916
VWidth: 0
Flags: W
HStem: 0 45G<403 513 593 704>
VStem: 212 111<4 877> 403 111<0 874> 593 111<2 874>
CounterMasks: 1 70
LayerCount: 2
Fore
SplineSet
458 1229 m 1,0,-1
 866 938 l 1,1,-1
 720 938 l 1,2,-1
 458 1114 l 1,3,-1
 194 938 l 1,4,-1
 50 938 l 1,5,-1
 458 1229 l 1,0,-1
593 874 m 1,6,-1
 704 874 l 1,7,-1
 704 2 l 1,8,-1
 593 2 l 1,9,-1
 593 874 l 1,6,-1
212 877 m 1,10,-1
 323 877 l 1,11,-1
 323 4 l 1,12,-1
 212 4 l 1,13,-1
 212 877 l 1,10,-1
403 874 m 1,14,-1
 513 874 l 1,15,-1
 513 0 l 1,16,-1
 403 0 l 1,17,-1
 403 874 l 1,14,-1
EndSplineSet
EndChar

StartChar: unie05d
Encoding: 348 57437 92
Width: 522
VWidth: 0
Flags: W
VStem: 50 422
LayerCount: 2
Fore
SplineSet
315 1231 m 1,0,-1
 472 1229 l 1,1,-1
 210 4 l 1,2,-1
 50 4 l 1,3,-1
 315 1231 l 1,0,-1
EndSplineSet
EndChar

StartChar: unie05e
Encoding: 349 57438 93
Width: 817
VWidth: 0
Flags: W
HStem: 0 43G<345 520>
LayerCount: 2
Fore
SplineSet
315 1231 m 1,0,1
 322 1231 322 1231 348 1230 c 128,-1,2
 374 1229 374 1229 394 1229 c 2,3,-1
 472 1229 l 1,4,5
 468 1209 468 1209 422 993 c 128,-1,6
 376 777 376 777 341 616 c 0,7,8
 306 454 306 454 259 235 c 128,-1,9
 212 16 212 16 210 4 c 1,10,-1
 50 4 l 1,11,12
 138 421 138 421 181 618 c 0,13,14
 208 745 208 745 254 952 c 128,-1,15
 300 1159 300 1159 315 1231 c 1,0,1
610 1227 m 1,16,17
 617 1227 617 1227 643 1226 c 128,-1,18
 669 1225 669 1225 689 1225 c 2,19,-1
 767 1225 l 1,20,21
 760 1193 760 1193 714.5 982 c 128,-1,22
 669 771 669 771 636 612 c 0,23,24
 542 164 542 164 505 0 c 1,25,-1
 345 0 l 1,26,27
 433 417 433 417 476 614 c 0,28,29
 585 1117 585 1117 610 1227 c 1,16,17
EndSplineSet
EndChar

StartChar: unie05f
Encoding: 350 57439 94
Width: 780
VWidth: 0
Flags: W
HStem: -2 43G<50 159 241 349 431 540>
VStem: 50 109<2 1221> 241 109<-2 1219> 431 109<-2 1219> 622 109<-4 1217>
LayerCount: 2
Fore
SplineSet
241 1219 m 1,0,-1
 349 1219 l 1,1,-1
 349 -2 l 1,2,-1
 241 -2 l 1,3,-1
 241 1219 l 1,0,-1
50 1221 m 1,4,-1
 159 1221 l 1,5,-1
 159 2 l 1,6,-1
 50 2 l 1,7,-1
 50 1221 l 1,4,-1
622 1217 m 1,8,-1
 730 1217 l 1,9,-1
 730 -4 l 1,10,-1
 622 -4 l 1,11,-1
 622 1217 l 1,8,-1
431 1219 m 1,12,-1
 540 1219 l 1,13,-1
 540 -2 l 1,14,-1
 431 -2 l 1,15,-1
 431 1219 l 1,12,-1
EndSplineSet
EndChar

StartChar: unie060
Encoding: 351 57440 95
Width: 973
VWidth: 0
Flags: W
HStem: -2 43G<50 161 241 351 431 542 812 923>
VStem: 50 111<2 1221> 241 111<-2 1219> 431 111<-2 1219> 622 111<-4 1217> 812 111<0 1221>
LayerCount: 2
Fore
SplineSet
241 1219 m 1,0,-1
 351 1219 l 1,1,-1
 351 -2 l 1,2,-1
 241 -2 l 1,3,-1
 241 1219 l 1,0,-1
50 1221 m 1,4,-1
 161 1221 l 1,5,-1
 161 2 l 1,6,-1
 50 2 l 1,7,-1
 50 1221 l 1,4,-1
622 1217 m 1,8,-1
 732 1217 l 1,9,-1
 732 -4 l 1,10,-1
 622 -4 l 1,11,-1
 622 1217 l 1,8,-1
431 1219 m 1,12,-1
 542 1219 l 1,13,-1
 542 -2 l 1,14,-1
 431 -2 l 1,15,-1
 431 1219 l 1,12,-1
812 1221 m 1,16,-1
 923 1221 l 1,17,-1
 923 0 l 1,18,-1
 812 0 l 1,19,-1
 812 1221 l 1,16,-1
EndSplineSet
EndChar

StartChar: unie061
Encoding: 352 57441 96
Width: 223
VWidth: 0
Flags: W
HStem: 924 305<50 173>
VStem: 50 123<924 1229>
LayerCount: 2
Fore
SplineSet
50 924 m 1,0,-1
 50 1229 l 1,1,-1
 173 1229 l 1,2,-1
 173 924 l 1,3,-1
 50 924 l 1,0,-1
EndSplineSet
EndChar

StartChar: unie062
Encoding: 353 57442 97
Width: 223
VWidth: 0
Flags: W
HStem: 453 305<50 173>
VStem: 50 123<453 758>
LayerCount: 2
Fore
SplineSet
50 758 m 1,0,-1
 173 758 l 1,1,-1
 173 453 l 1,2,-1
 50 453 l 1,3,-1
 50 758 l 1,0,-1
EndSplineSet
EndChar

StartChar: unie063
Encoding: 354 57443 98
Width: 436
VWidth: 0
Flags: W
HStem: 924 305<50 171 265 386>
VStem: 50 121<924 1229> 265 121<924 1229>
LayerCount: 2
Fore
SplineSet
50 1229 m 1,0,-1
 171 1229 l 1,1,-1
 171 924 l 1,2,-1
 50 924 l 1,3,-1
 50 1229 l 1,0,-1
265 1229 m 1,4,-1
 386 1229 l 1,5,-1
 386 924 l 1,6,-1
 265 924 l 1,7,-1
 265 1229 l 1,4,-1
EndSplineSet
EndChar

StartChar: unie064
Encoding: 355 57444 99
Width: 436
VWidth: 0
Flags: W
HStem: 473 305<50 171 265 386>
VStem: 50 121<473 778> 265 121<473 778>
LayerCount: 2
Fore
SplineSet
50 778 m 1,0,-1
 171 778 l 1,1,-1
 171 473 l 1,2,-1
 50 473 l 1,3,-1
 50 778 l 1,0,-1
265 778 m 1,4,-1
 386 778 l 1,5,-1
 386 473 l 1,6,-1
 265 473 l 1,7,-1
 265 778 l 1,4,-1
EndSplineSet
EndChar

StartChar: unie065
Encoding: 356 57445 100
Width: 227
VWidth: 0
Flags: W
VStem: 54 123<150 557 672 1079>
LayerCount: 2
Fore
SplineSet
54 557 m 1,0,-1
 177 557 l 1,1,-1
 177 150 l 1,2,-1
 54 150 l 1,3,-1
 54 557 l 1,0,-1
50 1079 m 1,4,-1
 173 1079 l 1,5,-1
 173 672 l 1,6,-1
 50 672 l 1,7,-1
 50 1079 l 1,4,-1
EndSplineSet
EndChar

StartChar: unie066
Encoding: 357 57446 101
Width: 674
VWidth: 0
Flags: W
HStem: 307 612
VStem: 50 123<309 920> 274 123<307 920> 501 123<305 918>
LayerCount: 2
Fore
SplineSet
274 920 m 1,0,-1
 397 920 l 1,1,-1
 397 307 l 1,2,-1
 274 307 l 1,3,-1
 274 920 l 1,0,-1
501 918 m 1,4,-1
 624 918 l 1,5,-1
 624 305 l 1,6,-1
 501 305 l 1,7,-1
 501 918 l 1,4,-1
50 920 m 1,8,-1
 173 920 l 1,9,-1
 173 309 l 1,10,-1
 50 309 l 1,11,-1
 50 920 l 1,8,-1
EndSplineSet
EndChar

StartChar: unie067
Encoding: 358 57447 102
Width: 449
VWidth: 0
Flags: W
HStem: 672 408<50 173 276 399>
VStem: 50 123<672 1079> 165 123<147 555> 276 123<672 1079>
LayerCount: 2
Fore
SplineSet
165 555 m 1,0,-1
 288 555 l 1,1,-1
 288 147 l 1,2,-1
 165 147 l 1,3,-1
 165 555 l 1,0,-1
276 1079 m 1,4,-1
 399 1079 l 1,5,-1
 399 672 l 1,6,-1
 276 672 l 1,7,-1
 276 1079 l 1,4,-1
50 1079 m 1,8,-1
 173 1079 l 1,9,-1
 173 672 l 1,10,-1
 50 672 l 1,11,-1
 50 1079 l 1,8,-1
EndSplineSet
EndChar

StartChar: unie068
Encoding: 359 57448 103
Width: 899
VWidth: 0
Flags: W
HStem: 313 610<50 173 276 397 501 624 726 849>
VStem: 50 123<313 924> 276 121<311 924> 501 123<309 922> 726 123<309 920>
LayerCount: 2
Fore
SplineSet
726 920 m 1,0,-1
 849 920 l 1,1,-1
 849 309 l 1,2,-1
 726 309 l 1,3,-1
 726 920 l 1,0,-1
276 924 m 1,4,-1
 397 924 l 1,5,-1
 397 311 l 1,6,-1
 276 311 l 1,7,-1
 276 924 l 1,4,-1
501 922 m 1,8,-1
 624 922 l 1,9,-1
 624 309 l 1,10,-1
 501 309 l 1,11,-1
 501 922 l 1,8,-1
50 924 m 1,12,-1
 173 924 l 1,13,-1
 173 313 l 1,14,-1
 50 313 l 1,15,-1
 50 924 l 1,12,-1
EndSplineSet
EndChar

StartChar: unie069
Encoding: 360 57449 104
Width: 449
VWidth: 0
Flags: W
HStem: 147 408<52 175 278 399> 672 408<50 171 274 397>
VStem: 52 123<147 555 672 1079> 278 121<147 555 672 1079>
LayerCount: 2
Fore
SplineSet
278 555 m 1,0,-1
 399 555 l 1,1,-1
 399 147 l 1,2,-1
 278 147 l 1,3,-1
 278 555 l 1,0,-1
274 1079 m 1,4,-1
 397 1079 l 1,5,-1
 397 672 l 1,6,-1
 274 672 l 1,7,-1
 274 1079 l 1,4,-1
52 555 m 1,8,-1
 175 555 l 1,9,-1
 175 147 l 1,10,-1
 52 147 l 1,11,-1
 52 555 l 1,8,-1
50 1079 m 1,12,-1
 171 1079 l 1,13,-1
 171 672 l 1,14,-1
 50 672 l 1,15,-1
 50 1079 l 1,12,-1
EndSplineSet
EndChar

StartChar: unie06a
Encoding: 361 57450 105
Width: 1120
VWidth: 0
Flags: W
HStem: 309 610<50 171 274 394 501 622 726 847 949 1070>
VStem: 50 121<313 924> 274 121<311 924> 501 121<309 922> 726 121<309 920> 949 121<307 920>
LayerCount: 2
Fore
SplineSet
949 920 m 1,0,-1
 1070 920 l 1,1,-1
 1070 307 l 1,2,-1
 949 307 l 1,3,-1
 949 920 l 1,0,-1
726 920 m 1,4,-1
 847 920 l 1,5,-1
 847 309 l 1,6,-1
 726 309 l 1,7,-1
 726 920 l 1,4,-1
274 924 m 1,8,-1
 394 924 l 1,9,-1
 394 311 l 1,10,-1
 274 311 l 1,11,-1
 274 924 l 1,8,-1
501 922 m 1,12,-1
 622 922 l 1,13,-1
 622 309 l 1,14,-1
 501 309 l 1,15,-1
 501 922 l 1,12,-1
50 924 m 1,16,-1
 171 924 l 1,17,-1
 171 313 l 1,18,-1
 50 313 l 1,19,-1
 50 924 l 1,16,-1
EndSplineSet
EndChar

StartChar: unie06b
Encoding: 362 57451 106
Width: 674
VWidth: 0
Flags: W
HStem: 147 408<161 284 388 511> 672 408<50 171 276 397 503 624>
VStem: 50 121<672 1079> 161 123<147 555> 276 121<672 1079> 388 123<150 557> 503 121<672 1079>
LayerCount: 2
Fore
SplineSet
388 557 m 1,0,-1
 511 557 l 1,1,-1
 511 150 l 1,2,-1
 388 150 l 1,3,-1
 388 557 l 1,0,-1
161 555 m 1,4,-1
 284 555 l 1,5,-1
 284 147 l 1,6,-1
 161 147 l 1,7,-1
 161 555 l 1,4,-1
503 1079 m 1,8,-1
 624 1079 l 1,9,-1
 624 672 l 1,10,-1
 503 672 l 1,11,-1
 503 1079 l 1,8,-1
276 1079 m 1,12,-1
 397 1079 l 1,13,-1
 397 672 l 1,14,-1
 276 672 l 1,15,-1
 276 1079 l 1,12,-1
50 1079 m 1,16,-1
 171 1079 l 1,17,-1
 171 672 l 1,18,-1
 50 672 l 1,19,-1
 50 1079 l 1,16,-1
EndSplineSet
EndChar

StartChar: unie06c
Encoding: 363 57452 107
Width: 1350
VWidth: 0
Flags: W
HStem: 309 610<50 173 276 397 501 624 726 849 949 1072 1177 1300>
VStem: 50 123<313 924> 276 121<311 924> 501 123<309 922> 726 123<309 920> 949 123<307 920> 1177 123<305 918>
LayerCount: 2
Fore
SplineSet
949 920 m 1,0,-1
 1072 920 l 1,1,-1
 1072 307 l 1,2,-1
 949 307 l 1,3,-1
 949 920 l 1,0,-1
1177 918 m 1,4,-1
 1300 918 l 1,5,-1
 1300 305 l 1,6,-1
 1177 305 l 1,7,-1
 1177 918 l 1,4,-1
726 920 m 1,8,-1
 849 920 l 1,9,-1
 849 309 l 1,10,-1
 726 309 l 1,11,-1
 726 920 l 1,8,-1
276 924 m 1,12,-1
 397 924 l 1,13,-1
 397 311 l 1,14,-1
 276 311 l 1,15,-1
 276 924 l 1,12,-1
501 922 m 1,16,-1
 624 922 l 1,17,-1
 624 309 l 1,18,-1
 501 309 l 1,19,-1
 501 922 l 1,16,-1
50 924 m 1,20,-1
 173 924 l 1,21,-1
 173 313 l 1,22,-1
 50 313 l 1,23,-1
 50 924 l 1,20,-1
EndSplineSet
EndChar

StartChar: unie06d
Encoding: 364 57453 108
Width: 678
VWidth: 0
Flags: W
HStem: 147 408<54 175 280 401 505 628> 672 408<50 173 276 397 503 624>
VStem: 54 121<147 555 672 1079> 280 121<147 555 672 1079> 505 123<150 557 672 1079>
LayerCount: 2
Fore
SplineSet
505 557 m 1,0,-1
 628 557 l 1,1,-1
 628 150 l 1,2,-1
 505 150 l 1,3,-1
 505 557 l 1,0,-1
503 1079 m 1,4,-1
 624 1079 l 1,5,-1
 624 672 l 1,6,-1
 503 672 l 1,7,-1
 503 1079 l 1,4,-1
280 555 m 1,8,-1
 401 555 l 1,9,-1
 401 147 l 1,10,-1
 280 147 l 1,11,-1
 280 555 l 1,8,-1
276 1079 m 1,12,-1
 397 1079 l 1,13,-1
 397 672 l 1,14,-1
 276 672 l 1,15,-1
 276 1079 l 1,12,-1
54 555 m 1,16,-1
 175 555 l 1,17,-1
 175 147 l 1,18,-1
 54 147 l 1,19,-1
 54 555 l 1,16,-1
50 1079 m 1,20,-1
 173 1079 l 1,21,-1
 173 672 l 1,22,-1
 50 672 l 1,23,-1
 50 1079 l 1,20,-1
EndSplineSet
EndChar

StartChar: unie06e
Encoding: 365 57454 109
Width: 1575
VWidth: 0
Flags: W
HStem: 307 612<50 173 274 397 501 624 726 849 949 1072 1177 1300 1402 1525>
VStem: 50 123<313 924> 274 123<311 924> 501 123<309 922> 726 123<309 920> 949 123<307 920> 1177 123<305 918> 1402 123<307 920>
LayerCount: 2
Fore
SplineSet
949 920 m 1,0,-1
 1072 920 l 1,1,-1
 1072 307 l 1,2,-1
 949 307 l 1,3,-1
 949 920 l 1,0,-1
1177 918 m 1,4,-1
 1300 918 l 1,5,-1
 1300 305 l 1,6,-1
 1177 305 l 1,7,-1
 1177 918 l 1,4,-1
726 920 m 1,8,-1
 849 920 l 1,9,-1
 849 309 l 1,10,-1
 726 309 l 1,11,-1
 726 920 l 1,8,-1
1402 920 m 1,12,-1
 1525 920 l 1,13,-1
 1525 307 l 1,14,-1
 1402 307 l 1,15,-1
 1402 920 l 1,12,-1
274 924 m 1,16,-1
 397 924 l 1,17,-1
 397 311 l 1,18,-1
 274 311 l 1,19,-1
 274 924 l 1,16,-1
501 922 m 1,20,-1
 624 922 l 1,21,-1
 624 309 l 1,22,-1
 501 309 l 1,23,-1
 501 922 l 1,20,-1
50 924 m 1,24,-1
 173 924 l 1,25,-1
 173 313 l 1,26,-1
 50 313 l 1,27,-1
 50 924 l 1,24,-1
EndSplineSet
EndChar

StartChar: unie06f
Encoding: 366 57455 110
Width: 2005
VWidth: 0
Flags: W
HStem: 0 41G<186 299 1706 1820> 309 610<267 388 491 612 718 839 943 1064 1167 1287 1394 1515 1619 1740>
VStem: 50 113<289 852> 267 121<313 924> 491 121<311 924> 718 121<309 922> 943 121<309 920> 1167 121<307 920> 1394 121<305 918> 1619 121<307 920> 1842 113<287 846>
LayerCount: 2
Fore
SplineSet
1820 2 m 1,0,-1
 1703 -2 l 1,1,2
 1705 5 1705 5 1715 35 c 128,-1,3
 1725 65 1725 65 1734 90 c 0,4,5
 1742 112 1742 112 1754.5 146.5 c 128,-1,6
 1767 181 1767 181 1771 193 c 0,7,8
 1776 206 1776 206 1797 283 c 0,9,10
 1820 365 1820 365 1824 389 c 0,11,12
 1833 438 1833 438 1836 485 c 1,13,14
 1842 532 1842 532 1842 578 c 0,15,16
 1842 684 1842 684 1812 807 c 0,17,18
 1783 926 1783 926 1750 1010 c 0,19,20
 1739 1039 1739 1039 1705.5 1115 c 128,-1,21
 1672 1191 1672 1191 1658 1225 c 1,22,-1
 1765 1225 l 1,23,24
 1777 1190 1777 1190 1814 1106 c 0,25,26
 1837 1053 1837 1053 1869 971 c 0,27,28
 1874 957 1874 957 1910 848 c 0,29,30
 1937 764 1937 764 1945 705 c 0,31,32
 1955 627 1955 627 1955 563 c 0,33,34
 1955 352 1955 352 1820 2 c 1,0,-1
186 2 m 1,35,36
 50 354 50 354 50 565 c 0,37,38
 50 621 50 621 61 707 c 0,39,40
 70 774 70 774 95 852 c 0,41,42
 126 948 126 948 136 973 c 0,43,44
 154 1018 154 1018 192 1106 c 0,45,46
 225 1182 225 1182 241 1227 c 1,47,-1
 347 1227 l 1,48,49
 333 1193 333 1193 299.5 1117 c 128,-1,50
 266 1041 266 1041 255 1012 c 0,51,52
 224 933 224 933 194 811 c 0,53,54
 163 684 163 684 163 580 c 0,55,56
 163 534 163 534 169 487 c 1,57,58
 172 440 172 440 181 391 c 0,59,60
 184 374 184 374 208 287 c 0,61,62
 225 223 225 223 235 195 c 0,63,64
 239 183 239 183 251.5 148.5 c 128,-1,65
 264 114 264 114 272 92 c 0,66,67
 281 67 281 67 290.5 36.5 c 128,-1,68
 300 6 300 6 302 0 c 1,69,-1
 186 2 l 1,35,36
267 924 m 1,70,-1
 388 924 l 1,71,-1
 388 313 l 1,72,-1
 267 313 l 1,73,-1
 267 924 l 1,70,-1
718 922 m 1,74,-1
 839 922 l 1,75,-1
 839 309 l 1,76,-1
 718 309 l 1,77,-1
 718 922 l 1,74,-1
491 924 m 1,78,-1
 612 924 l 1,79,-1
 612 311 l 1,80,-1
 491 311 l 1,81,-1
 491 924 l 1,78,-1
1619 920 m 1,82,-1
 1740 920 l 1,83,-1
 1740 307 l 1,84,-1
 1619 307 l 1,85,-1
 1619 920 l 1,82,-1
943 920 m 1,86,-1
 1064 920 l 1,87,-1
 1064 309 l 1,88,-1
 943 309 l 1,89,-1
 943 920 l 1,86,-1
1394 918 m 1,90,-1
 1515 918 l 1,91,-1
 1515 305 l 1,92,-1
 1394 305 l 1,93,-1
 1394 918 l 1,90,-1
1167 920 m 1,94,-1
 1287 920 l 1,95,-1
 1287 307 l 1,96,-1
 1167 307 l 1,97,-1
 1167 920 l 1,94,-1
EndSplineSet
EndChar

StartChar: unie070
Encoding: 367 57456 111
Width: 899
VWidth: 0
Flags: W
HStem: 147 408<167 288 392 515 618 741> 672 408<50 173 276 397 503 624 728 849>
VStem: 50 123<672 1079> 167 121<147 555> 276 121<672 1079> 392 123<150 557> 503 121<672 1079> 618 123<147 555> 728 121<672 1079>
LayerCount: 2
Fore
SplineSet
392 557 m 1,0,-1
 515 557 l 1,1,-1
 515 150 l 1,2,-1
 392 150 l 1,3,-1
 392 557 l 1,0,-1
618 555 m 1,4,-1
 741 555 l 1,5,-1
 741 147 l 1,6,-1
 618 147 l 1,7,-1
 618 555 l 1,4,-1
167 555 m 1,8,-1
 288 555 l 1,9,-1
 288 147 l 1,10,-1
 167 147 l 1,11,-1
 167 555 l 1,8,-1
503 1079 m 1,12,-1
 624 1079 l 1,13,-1
 624 672 l 1,14,-1
 503 672 l 1,15,-1
 503 1079 l 1,12,-1
728 1079 m 1,16,-1
 849 1079 l 1,17,-1
 849 672 l 1,18,-1
 728 672 l 1,19,-1
 728 1079 l 1,16,-1
276 1079 m 1,20,-1
 397 1079 l 1,21,-1
 397 672 l 1,22,-1
 276 672 l 1,23,-1
 276 1079 l 1,20,-1
50 1079 m 1,24,-1
 173 1079 l 1,25,-1
 173 672 l 1,26,-1
 50 672 l 1,27,-1
 50 1079 l 1,24,-1
EndSplineSet
EndChar

StartChar: unie071
Encoding: 368 57457 112
Width: 1481
VWidth: 0
Flags: W
HStem: 2 43G<188 302 1180 1294> 147 408<458 579 685 806 911 1031> 672 408<341 464 566 687 794 915 1019 1140>
VStem: 50 117<277 821> 341 123<672 1079> 458 121<147 555> 566 121<672 1079> 685 121<150 557> 794 121<672 1079> 911 121<147 555> 1019 121<672 1079> 1316 115<283 827>
LayerCount: 2
Fore
SplineSet
685 557 m 1,0,-1
 806 557 l 1,1,-1
 806 150 l 1,2,-1
 685 150 l 1,3,-1
 685 557 l 1,0,-1
911 555 m 1,4,-1
 1031 555 l 1,5,-1
 1031 147 l 1,6,-1
 911 147 l 1,7,-1
 911 555 l 1,4,-1
458 555 m 1,8,-1
 579 555 l 1,9,-1
 579 147 l 1,10,-1
 458 147 l 1,11,-1
 458 555 l 1,8,-1
794 1079 m 1,12,-1
 915 1079 l 1,13,-1
 915 672 l 1,14,-1
 794 672 l 1,15,-1
 794 1079 l 1,12,-1
1019 1079 m 1,16,-1
 1140 1079 l 1,17,-1
 1140 672 l 1,18,-1
 1019 672 l 1,19,-1
 1019 1079 l 1,16,-1
566 1079 m 1,20,-1
 687 1079 l 1,21,-1
 687 672 l 1,22,-1
 566 672 l 1,23,-1
 566 1079 l 1,20,-1
341 1079 m 1,24,-1
 464 1079 l 1,25,-1
 464 672 l 1,26,-1
 341 672 l 1,27,-1
 341 1079 l 1,24,-1
188 6 m 1,28,29
 156 89 156 89 116 207 c 0,30,31
 93 274 93 274 71 385 c 0,32,33
 50 490 50 490 50 596 c 1,34,35
 53 686 53 686 100 836 c 0,36,37
 150 995 150 995 196 1112 c 2,38,-1
 243 1229 l 1,39,-1
 349 1229 l 1,40,41
 295 1109 295 1109 261 1020 c 0,42,43
 222 916 222 916 198 821 c 0,44,45
 167 697 167 697 167 598 c 2,46,-1
 167 582 l 2,47,48
 167 525 167 525 169 496 c 0,49,50
 170 480 170 480 184 408 c 0,51,52
 187 394 187 394 190 379.5 c 128,-1,53
 193 365 193 365 196 349.5 c 128,-1,54
 199 334 199 334 200 328 c 0,55,56
 210 280 210 280 222 244 c 0,57,58
 244 179 244 179 247 168 c 0,59,60
 248 164 248 164 276 82 c 0,61,62
 284 59 284 59 293.5 32.5 c 128,-1,63
 303 6 303 6 304 2 c 1,64,-1
 188 6 l 1,28,29
1294 4 m 1,65,-1
 1179 2 l 1,66,67
 1180 5 1180 5 1210 94 c 0,68,69
 1242 189 1242 189 1244 195 c 2,70,-1
 1254 226 l 2,71,72
 1264 256 1264 256 1271 283 c 0,73,74
 1294 373 1294 373 1296 385 c 0,75,76
 1303 429 1303 429 1308 475 c 0,77,78
 1316 549 1316 549 1316 580 c 2,79,-1
 1316 596 l 2,80,81
 1316 687 1316 687 1283 819 c 0,82,83
 1254 936 1254 936 1222 1020 c 0,84,85
 1193 1097 1193 1097 1134 1227 c 1,86,-1
 1240 1227 l 1,87,88
 1428 780 1428 780 1431 596 c 1,89,90
 1431 437 1431 437 1398 319 c 0,91,92
 1359 179 1359 179 1294 4 c 1,65,-1
EndSplineSet
EndChar

StartChar: unie072
Encoding: 369 57458 113
Width: 903
VWidth: 0
Flags: W
HStem: 147 408<54 175 280 401 505 628 730 853> 672 408<50 173 276 397 503 624 728 849>
VStem: 54 121<147 555 672 1079> 280 121<147 555 672 1079> 505 123<150 557 672 1079> 730 123<147 555 672 1079>
LayerCount: 2
Fore
SplineSet
505 557 m 1,0,-1
 628 557 l 1,1,-1
 628 150 l 1,2,-1
 505 150 l 1,3,-1
 505 557 l 1,0,-1
503 1079 m 1,4,-1
 624 1079 l 1,5,-1
 624 672 l 1,6,-1
 503 672 l 1,7,-1
 503 1079 l 1,4,-1
730 555 m 1,8,-1
 853 555 l 1,9,-1
 853 147 l 1,10,-1
 730 147 l 1,11,-1
 730 555 l 1,8,-1
728 1079 m 1,12,-1
 849 1079 l 1,13,-1
 849 672 l 1,14,-1
 728 672 l 1,15,-1
 728 1079 l 1,12,-1
280 555 m 1,16,-1
 401 555 l 1,17,-1
 401 147 l 1,18,-1
 280 147 l 1,19,-1
 280 555 l 1,16,-1
276 1079 m 1,20,-1
 397 1079 l 1,21,-1
 397 672 l 1,22,-1
 276 672 l 1,23,-1
 276 1079 l 1,20,-1
54 555 m 1,24,-1
 175 555 l 1,25,-1
 175 147 l 1,26,-1
 54 147 l 1,27,-1
 54 555 l 1,24,-1
50 1079 m 1,28,-1
 173 1079 l 1,29,-1
 173 672 l 1,30,-1
 50 672 l 1,31,-1
 50 1079 l 1,28,-1
EndSplineSet
EndChar

StartChar: unie073
Encoding: 370 57459 114
Width: 2026
VWidth: 0
Flags: W
HStem: 307 612<50 173 274 397 501 624 726 849 949 1072 1177 1300 1402 1525 1625 1748 1853 1976>
VStem: 50 123<313 924> 274 123<311 924> 501 123<309 922> 726 123<309 920> 949 123<307 920> 1177 123<305 918> 1402 123<307 920> 1625 123<307 918> 1853 123<305 915>
LayerCount: 2
Fore
SplineSet
949 920 m 1,0,-1
 1072 920 l 1,1,-1
 1072 307 l 1,2,-1
 949 307 l 1,3,-1
 949 920 l 1,0,-1
1177 918 m 1,4,-1
 1300 918 l 1,5,-1
 1300 305 l 1,6,-1
 1177 305 l 1,7,-1
 1177 918 l 1,4,-1
726 920 m 1,8,-1
 849 920 l 1,9,-1
 849 309 l 1,10,-1
 726 309 l 1,11,-1
 726 920 l 1,8,-1
1625 918 m 1,12,-1
 1748 918 l 1,13,-1
 1748 307 l 1,14,-1
 1625 307 l 1,15,-1
 1625 918 l 1,12,-1
1853 915 m 1,16,-1
 1976 915 l 1,17,-1
 1976 305 l 1,18,-1
 1853 305 l 1,19,-1
 1853 915 l 1,16,-1
1402 920 m 1,20,-1
 1525 920 l 1,21,-1
 1525 307 l 1,22,-1
 1402 307 l 1,23,-1
 1402 920 l 1,20,-1
274 924 m 1,24,-1
 397 924 l 1,25,-1
 397 311 l 1,26,-1
 274 311 l 1,27,-1
 274 924 l 1,24,-1
501 922 m 1,28,-1
 624 922 l 1,29,-1
 624 309 l 1,30,-1
 501 309 l 1,31,-1
 501 922 l 1,28,-1
50 924 m 1,32,-1
 173 924 l 1,33,-1
 173 313 l 1,34,-1
 50 313 l 1,35,-1
 50 924 l 1,32,-1
EndSplineSet
EndChar

StartChar: unie074
Encoding: 371 57460 115
Width: 1124
VWidth: 0
Flags: W
HStem: 147 408<165 288 392 515 618 741 841 964> 672 408<50 173 276 399 503 624 728 849 952 1074>
VStem: 50 123<672 1079> 165 123<147 555> 276 123<672 1079> 392 123<150 557> 503 121<672 1079> 618 123<147 555> 728 121<672 1079> 841 123<147 555> 952 123<672 1079>
LayerCount: 2
Fore
SplineSet
392 557 m 1,0,-1
 515 557 l 1,1,-1
 515 150 l 1,2,-1
 392 150 l 1,3,-1
 392 557 l 1,0,-1
618 555 m 1,4,-1
 741 555 l 1,5,-1
 741 147 l 1,6,-1
 618 147 l 1,7,-1
 618 555 l 1,4,-1
841 555 m 1,8,-1
 964 555 l 1,9,-1
 964 147 l 1,10,-1
 841 147 l 1,11,-1
 841 555 l 1,8,-1
165 555 m 1,12,-1
 288 555 l 1,13,-1
 288 147 l 1,14,-1
 165 147 l 1,15,-1
 165 555 l 1,12,-1
503 1079 m 1,16,-1
 624 1079 l 1,17,-1
 624 672 l 1,18,-1
 503 672 l 1,19,-1
 503 1079 l 1,16,-1
728 1079 m 1,20,-1
 849 1079 l 1,21,-1
 849 672 l 1,22,-1
 728 672 l 1,23,-1
 728 1079 l 1,20,-1
952 1079 m 1,24,-1
 1074 1079 l 1,25,-1
 1074 672 l 1,26,-1
 952 672 l 1,27,-1
 952 1079 l 1,24,-1
276 1079 m 1,28,-1
 399 1079 l 1,29,-1
 399 672 l 1,30,-1
 276 672 l 1,31,-1
 276 1079 l 1,28,-1
50 1079 m 1,32,-1
 173 1079 l 1,33,-1
 173 672 l 1,34,-1
 50 672 l 1,35,-1
 50 1079 l 1,32,-1
EndSplineSet
EndChar

StartChar: unie075
Encoding: 372 57461 116
Width: 1616
VWidth: 0
Flags: W
HStem: 147 408<417 538 644 765 870 990 1093 1214> 672 408<302 423 528 648 755 876 980 1101 1203 1324> 1204 156<194 1418>
VStem: 50 139<741 1202> 302 121<672 1079> 417 121<147 555> 528 121<672 1079> 644 121<150 557> 755 121<672 1079> 870 121<147 555> 980 121<672 1079> 1093 121<147 555> 1203 121<672 1079> 1418 147<741 1204>
LayerCount: 2
Fore
SplineSet
644 557 m 1,0,-1
 765 557 l 1,1,-1
 765 150 l 1,2,-1
 644 150 l 1,3,-1
 644 557 l 1,0,-1
870 555 m 1,4,-1
 990 555 l 1,5,-1
 990 147 l 1,6,-1
 870 147 l 1,7,-1
 870 555 l 1,4,-1
1093 555 m 1,8,-1
 1214 555 l 1,9,-1
 1214 147 l 1,10,-1
 1093 147 l 1,11,-1
 1093 555 l 1,8,-1
417 555 m 1,12,-1
 538 555 l 1,13,-1
 538 147 l 1,14,-1
 417 147 l 1,15,-1
 417 555 l 1,12,-1
755 1079 m 1,16,-1
 876 1079 l 1,17,-1
 876 672 l 1,18,-1
 755 672 l 1,19,-1
 755 1079 l 1,16,-1
980 1079 m 1,20,-1
 1101 1079 l 1,21,-1
 1101 672 l 1,22,-1
 980 672 l 1,23,-1
 980 1079 l 1,20,-1
1203 1079 m 1,24,-1
 1324 1079 l 1,25,-1
 1324 672 l 1,26,-1
 1203 672 l 1,27,-1
 1203 1079 l 1,24,-1
528 1079 m 1,28,-1
 648 1079 l 1,29,-1
 648 672 l 1,30,-1
 528 672 l 1,31,-1
 528 1079 l 1,28,-1
302 1079 m 1,32,-1
 423 1079 l 1,33,-1
 423 672 l 1,34,-1
 302 672 l 1,35,-1
 302 1079 l 1,32,-1
50 1362 m 1,36,37
 218 1360 218 1360 808 1360 c 0,38,39
 1396 1360 1396 1360 1564 1358 c 1,40,41
 1564 1333 1564 1333 1565 1229.5 c 128,-1,42
 1566 1126 1566 1126 1566 1049 c 2,43,-1
 1566 741 l 1,44,45
 1525 741 1525 741 1492 739 c 128,-1,46
 1459 737 1459 737 1421 737 c 1,47,48
 1421 756 1421 756 1419.5 834 c 128,-1,49
 1418 912 1418 912 1418 971 c 2,50,51
 1418 1204 l 1,52,53
 806 1204 l 2,54,55
 653 1204 653 1204 449.5 1203 c 128,-1,56
 246 1202 246 1202 194 1202 c 1,57,58
 194 1075 194 1075 192 971 c 128,-1,59
 190 867 190 867 190 739 c 1,60,61
 185 739 185 739 161.5 740 c 128,-1,62
 138 741 138 741 120 741 c 2,63,-1
 50 741 l 1,64,-1
 50 1362 l 1,36,37
EndSplineSet
EndChar

StartChar: unie076
Encoding: 373 57462 117
Width: 1124
VWidth: 0
Flags: W
HStem: 147 408<52 175 278 399 505 626 730 851 954 1074> 672 408<50 171 274 397 501 624 726 849 949 1072>
VStem: 52 123<147 555 672 1079> 278 121<147 555 672 1079> 505 121<150 557 672 1079> 730 121<147 555 672 1079> 954 121<147 555 672 1079>
LayerCount: 2
Fore
SplineSet
505 557 m 1,0,-1
 626 557 l 1,1,-1
 626 150 l 1,2,-1
 505 150 l 1,3,-1
 505 557 l 1,0,-1
501 1079 m 1,4,-1
 624 1079 l 1,5,-1
 624 672 l 1,6,-1
 501 672 l 1,7,-1
 501 1079 l 1,4,-1
730 555 m 1,8,-1
 851 555 l 1,9,-1
 851 147 l 1,10,-1
 730 147 l 1,11,-1
 730 555 l 1,8,-1
726 1079 m 1,12,-1
 849 1079 l 1,13,-1
 849 672 l 1,14,-1
 726 672 l 1,15,-1
 726 1079 l 1,12,-1
954 555 m 1,16,-1
 1074 555 l 1,17,-1
 1074 147 l 1,18,-1
 954 147 l 1,19,-1
 954 555 l 1,16,-1
949 1079 m 1,20,-1
 1072 1079 l 1,21,-1
 1072 672 l 1,22,-1
 949 672 l 1,23,-1
 949 1079 l 1,20,-1
278 555 m 1,24,-1
 399 555 l 1,25,-1
 399 147 l 1,26,-1
 278 147 l 1,27,-1
 278 555 l 1,24,-1
274 1079 m 1,28,-1
 397 1079 l 1,29,-1
 397 672 l 1,30,-1
 274 672 l 1,31,-1
 274 1079 l 1,28,-1
52 555 m 1,32,-1
 175 555 l 1,33,-1
 175 147 l 1,34,-1
 52 147 l 1,35,-1
 52 555 l 1,32,-1
50 1079 m 1,36,-1
 171 1079 l 1,37,-1
 171 672 l 1,38,-1
 50 672 l 1,39,-1
 50 1079 l 1,36,-1
EndSplineSet
EndChar

StartChar: unie077
Encoding: 374 57463 118
Width: 916
VWidth: 0
Flags: W
HStem: 2 43G<50 209 315 474 579 740>
LayerCount: 2
Fore
SplineSet
460 1227 m 1,0,-1
 601 1227 l 1,1,-1
 456 891 l 1,2,-1
 315 891 l 1,3,-1
 460 1227 l 1,0,-1
194 1227 m 1,4,-1
 337 1227 l 1,5,-1
 192 891 l 1,6,-1
 50 891 l 1,7,-1
 194 1227 l 1,4,-1
192 782 m 1,8,-1
 337 446 l 1,9,-1
 194 446 l 1,10,-1
 50 782 l 1,11,-1
 192 782 l 1,8,-1
456 782 m 1,12,-1
 601 446 l 1,13,-1
 460 446 l 1,14,-1
 315 782 l 1,15,-1
 456 782 l 1,12,-1
722 782 m 1,16,-1
 866 446 l 1,17,-1
 724 446 l 1,18,-1
 579 782 l 1,19,-1
 722 782 l 1,16,-1
724 338 m 1,20,-1
 866 338 l 1,21,-1
 722 2 l 1,22,-1
 579 2 l 1,23,-1
 724 338 l 1,20,-1
460 338 m 1,24,-1
 601 338 l 1,25,-1
 456 2 l 1,26,-1
 315 2 l 1,27,-1
 460 338 l 1,24,-1
194 338 m 1,28,-1
 337 338 l 1,29,-1
 192 2 l 1,30,-1
 50 2 l 1,31,-1
 194 338 l 1,28,-1
EndSplineSet
EndChar

StartChar: unie078
Encoding: 375 57464 119
Width: 916
VWidth: 0
Flags: W
HStem: 2 43G<50 209 315 474 579 740>
LayerCount: 2
Fore
SplineSet
194 338 m 1,0,-1
 337 338 l 1,1,-1
 192 2 l 1,2,-1
 50 2 l 1,3,-1
 194 338 l 1,0,-1
460 338 m 1,4,-1
 601 338 l 1,5,-1
 456 2 l 1,6,-1
 315 2 l 1,7,-1
 460 338 l 1,4,-1
724 338 m 1,8,-1
 866 338 l 1,9,-1
 722 2 l 1,10,-1
 579 2 l 1,11,-1
 724 338 l 1,8,-1
722 782 m 1,12,-1
 866 446 l 1,13,-1
 724 446 l 1,14,-1
 579 782 l 1,15,-1
 722 782 l 1,12,-1
456 782 m 1,16,-1
 601 446 l 1,17,-1
 460 446 l 1,18,-1
 315 782 l 1,19,-1
 456 782 l 1,16,-1
192 782 m 1,20,-1
 337 446 l 1,21,-1
 194 446 l 1,22,-1
 50 782 l 1,23,-1
 192 782 l 1,20,-1
194 1227 m 1,24,-1
 337 1227 l 1,25,-1
 192 891 l 1,26,-1
 50 891 l 1,27,-1
 194 1227 l 1,24,-1
460 1227 m 1,28,-1
 601 1227 l 1,29,-1
 456 891 l 1,30,-1
 315 891 l 1,31,-1
 460 1227 l 1,28,-1
724 1227 m 1,32,-1
 866 1227 l 1,33,-1
 722 891 l 1,34,-1
 579 891 l 1,35,-1
 724 1227 l 1,32,-1
EndSplineSet
EndChar

StartChar: unie079
Encoding: 376 57465 120
Width: 784
VWidth: 0
Flags: W
HStem: 0 338<52 163 243 354 431 542 622 732> 444 336<54 165 245 356 433 546 624 734> 887 338<50 161 239 351 429 540 620 730>
VStem: 52 111<0 338 444 780 887 1225> 243 111<0 338 444 780 887 1225> 431 111<0 338 444 780 887 1225> 622 111<0 338 444 780 887 1225>
CounterMasks: 1 e0
LayerCount: 2
Fore
SplineSet
622 338 m 1,0,-1
 732 338 l 1,1,-1
 732 0 l 1,2,-1
 622 0 l 1,3,-1
 622 338 l 1,0,-1
624 780 m 1,4,-1
 734 780 l 1,5,-1
 734 444 l 1,6,-1
 624 444 l 1,7,-1
 624 780 l 1,4,-1
620 1225 m 1,8,-1
 730 1225 l 1,9,-1
 730 887 l 1,10,-1
 620 887 l 1,11,-1
 620 1225 l 1,8,-1
431 338 m 1,12,-1
 542 338 l 1,13,-1
 542 0 l 1,14,-1
 431 0 l 1,15,-1
 431 338 l 1,12,-1
433 780 m 1,16,-1
 546 780 l 1,17,-1
 546 444 l 1,18,-1
 433 444 l 1,19,-1
 433 780 l 1,16,-1
429 1225 m 1,20,-1
 540 1225 l 1,21,-1
 540 887 l 1,22,-1
 429 887 l 1,23,-1
 429 1225 l 1,20,-1
243 338 m 1,24,-1
 354 338 l 1,25,-1
 354 0 l 1,26,-1
 243 0 l 1,27,-1
 243 338 l 1,24,-1
245 780 m 1,28,-1
 356 780 l 1,29,-1
 356 444 l 1,30,-1
 245 444 l 1,31,-1
 245 780 l 1,28,-1
239 1225 m 1,32,-1
 351 1225 l 1,33,-1
 351 887 l 1,34,-1
 239 887 l 1,35,-1
 239 1225 l 1,32,-1
52 338 m 1,36,-1
 163 338 l 1,37,-1
 163 0 l 1,38,-1
 52 0 l 1,39,-1
 52 338 l 1,36,-1
54 780 m 1,40,-1
 165 780 l 1,41,-1
 165 444 l 1,42,-1
 54 444 l 1,43,-1
 54 780 l 1,40,-1
50 1225 m 1,44,-1
 161 1225 l 1,45,-1
 161 887 l 1,46,-1
 50 887 l 1,47,-1
 50 1225 l 1,44,-1
EndSplineSet
EndChar

StartChar: unie07a
Encoding: 377 57466 121
Width: 1464
VWidth: 0
Flags: W
HStem: 0 338<394 505 585 696 773 884 964 1074> 444 336<397 507 587 698 775 888 966 1076> 887 338<392 503 581 693 771 882 962 1072>
VStem: 50 113<288 845> 394 111<0 338 444 780 887 1225> 585 111<0 338 444 780 887 1225> 773 111<0 338 444 780 887 1225> 964 111<0 338 444 780 887 1225> 1302 113<292 849>
CounterMasks: 1 e0
LayerCount: 2
Fore
SplineSet
964 338 m 1,0,-1
 1074 338 l 1,1,-1
 1074 0 l 1,2,-1
 964 0 l 1,3,-1
 964 338 l 1,0,-1
966 780 m 1,4,-1
 1076 780 l 1,5,-1
 1076 444 l 1,6,-1
 966 444 l 1,7,-1
 966 780 l 1,4,-1
962 1225 m 1,8,-1
 1072 1225 l 1,9,-1
 1072 887 l 1,10,-1
 962 887 l 1,11,-1
 962 1225 l 1,8,-1
773 338 m 1,12,-1
 884 338 l 1,13,-1
 884 0 l 1,14,-1
 773 0 l 1,15,-1
 773 338 l 1,12,-1
775 780 m 1,16,-1
 888 780 l 1,17,-1
 888 444 l 1,18,-1
 775 444 l 1,19,-1
 775 780 l 1,16,-1
771 1225 m 1,20,-1
 882 1225 l 1,21,-1
 882 887 l 1,22,-1
 771 887 l 1,23,-1
 771 1225 l 1,20,-1
585 338 m 1,24,-1
 696 338 l 1,25,-1
 696 0 l 1,26,-1
 585 0 l 1,27,-1
 585 338 l 1,24,-1
587 780 m 1,28,-1
 698 780 l 1,29,-1
 698 444 l 1,30,-1
 587 444 l 1,31,-1
 587 780 l 1,28,-1
581 1225 m 1,32,-1
 693 1225 l 1,33,-1
 693 887 l 1,34,-1
 581 887 l 1,35,-1
 581 1225 l 1,32,-1
394 338 m 1,36,-1
 505 338 l 1,37,-1
 505 0 l 1,38,-1
 394 0 l 1,39,-1
 394 338 l 1,36,-1
397 780 m 1,40,-1
 507 780 l 1,41,-1
 507 444 l 1,42,-1
 397 444 l 1,43,-1
 397 780 l 1,40,-1
392 1225 m 1,44,-1
 503 1225 l 1,45,-1
 503 887 l 1,46,-1
 392 887 l 1,47,-1
 392 1225 l 1,44,-1
188 2 m 1,48,49
 50 362 50 362 50 571 c 0,50,51
 50 648 50 648 73 756 c 0,52,53
 83 805 83 805 112 905 c 0,54,55
 121 938 121 938 181 1081 c 0,56,57
 196 1117 196 1117 210 1151 c 128,-1,58
 224 1185 224 1185 231.5 1203.5 c 128,-1,59
 239 1222 239 1222 241 1227 c 1,60,-1
 347 1227 l 1,61,62
 263 1033 263 1033 255 1012 c 0,63,64
 224 930 224 930 194 807 c 0,65,66
 163 680 163 680 163 578 c 0,67,68
 163 572 163 572 167 506 c 0,69,70
 169 472 169 472 181 406 c 0,71,72
 189 360 189 360 206 295 c 0,73,74
 214 262 214 262 235 203 c 0,75,76
 238 193 238 193 249.5 157 c 128,-1,77
 261 121 261 121 270 96 c 0,78,79
 277 77 277 77 284 55.5 c 128,-1,80
 291 34 291 34 295 20.5 c 128,-1,81
 299 7 299 7 302 0 c 1,82,-1
 188 2 l 1,48,49
1277 6 m 1,83,-1
 1162 2 l 1,84,85
 1164 11 1164 11 1193 98 c 0,86,87
 1196 108 1196 108 1230 205 c 0,88,89
 1249 259 1249 259 1259 299 c 0,90,91
 1272 350 1272 350 1283 410 c 0,92,93
 1297 484 1297 484 1298 510 c 0,94,95
 1302 576 1302 576 1302 582 c 0,96,97
 1302 684 1302 684 1271 811 c 0,98,99
 1240 937 1240 937 1210 1014 c 0,100,101
 1199 1042 1199 1042 1166.5 1115.5 c 128,-1,102
 1134 1189 1134 1189 1117 1229 c 1,103,-1
 1224 1229 l 1,104,105
 1226 1224 1226 1224 1233.5 1205.5 c 128,-1,106
 1241 1187 1241 1187 1254.5 1153.5 c 128,-1,107
 1268 1120 1268 1120 1283 1083 c 0,108,109
 1346 932 1346 932 1353 907 c 0,110,111
 1382 807 1382 807 1392 758 c 0,112,113
 1414 654 1414 654 1414 573 c 0,114,115
 1414 363 1414 363 1277 6 c 1,83,-1
EndSplineSet
EndChar

StartChar: unie07b
Encoding: 378 57467 122
Width: 510
VWidth: 0
Flags: W
HStem: 0 43G<206 333>
VStem: 50 123<717 1229>
LayerCount: 2
Fore
SplineSet
337 1229 m 1,0,-1
 460 1229 l 1,1,-1
 329 0 l 1,2,-1
 206 0 l 1,3,-1
 337 1229 l 1,0,-1
50 1229 m 1,4,-1
 173 1229 l 1,5,-1
 173 717 l 1,6,-1
 50 717 l 1,7,-1
 50 1229 l 1,4,-1
EndSplineSet
EndChar

StartChar: unie07c
Encoding: 379 57468 123
Width: 813
VWidth: 0
Flags: W
HStem: 2 43G<64 216 611 763>
LayerCount: 2
Fore
SplineSet
511 412 m 1,0,-1
 614 514 l 1,1,-1
 763 2 l 1,2,-1
 622 2 l 1,3,-1
 511 412 l 1,0,-1
356 1229 m 1,4,-1
 519 1229 l 1,5,-1
 427 627 l 1,6,-1
 216 6 l 1,7,-1
 50 2 l 1,8,-1
 272 647 l 1,9,-1
 356 1229 l 1,4,-1
EndSplineSet
EndChar

StartChar: unie07d
Encoding: 380 57469 124
Width: 813
VWidth: 0
Flags: W
HStem: 2 43G<50 235>
LayerCount: 2
Fore
SplineSet
265 1227 m 1,0,-1
 437 1227 l 1,1,-1
 392 682 l 1,2,-1
 763 385 l 1,3,-1
 675 205 l 1,4,-1
 376 520 l 1,5,-1
 222 2 l 1,6,-1
 50 2 l 1,7,-1
 210 614 l 1,8,-1
 265 1227 l 1,0,-1
EndSplineSet
EndChar

StartChar: unie07e
Encoding: 381 57470 125
Width: 715
VWidth: 0
Flags: W
HStem: 0 43G<50 233 482 665>
VStem: 276 164<512 1229>
LayerCount: 2
Fore
SplineSet
214 0 m 1,0,-1
 50 0 l 1,1,-1
 276 512 l 1,2,-1
 276 1229 l 1,3,-1
 440 1229 l 1,4,-1
 440 512 l 1,5,-1
 665 0 l 1,6,-1
 501 0 l 1,7,-1
 358 307 l 1,8,-1
 214 0 l 1,0,-1
EndSplineSet
EndChar

StartChar: unie07f
Encoding: 382 57471 126
Width: 612
VWidth: 0
Flags: W
HStem: 0 43G<399 562> 1065 164<214 399>
VStem: 50 164<768 1065> 399 164<0 1065>
LayerCount: 2
Fore
SplineSet
52 1229 m 1,0,-1
 562 1229 l 1,1,-1
 562 0 l 1,2,-1
 399 0 l 1,3,-1
 399 1065 l 1,4,-1
 214 1065 l 1,5,-1
 214 768 l 1,6,-1
 50 768 l 1,7,-1
 52 1229 l 1,0,-1
EndSplineSet
EndChar

StartChar: unie080
Encoding: 383 57472 127
Width: 612
VWidth: 0
Flags: W
HStem: 2 43G<437 562> 1108 123<171 437>
VStem: 50 121<575 1108> 276 61<514 719> 437 125<2 1108>
LayerCount: 2
Fore
SplineSet
50 575 m 1,0,-1
 50 1231 l 1,1,-1
 556 1223 l 1,2,-1
 562 2 l 1,3,-1
 437 2 l 1,4,-1
 437 1108 l 1,5,-1
 171 1108 l 1,6,-1
 171 575 l 1,7,-1
 50 575 l 1,0,-1
276 719 m 1,8,-1
 337 719 l 1,9,-1
 337 514 l 1,10,-1
 276 514 l 1,11,-1
 276 719 l 1,8,-1
EndSplineSet
EndChar

StartChar: unie081
Encoding: 384 57473 128
Width: 811
VWidth: 0
Flags: W
HStem: 0 43G<50 219>
LayerCount: 2
Fore
SplineSet
50 0 m 1,0,-1
 194 1225 l 1,1,-1
 308 1223 l 1,2,-1
 761 647 l 1,3,-1
 624 535 l 1,4,-1
 317 922 l 1,5,-1
 214 0 l 1,6,-1
 50 0 l 1,0,-1
EndSplineSet
EndChar

StartChar: unie082
Encoding: 385 57474 129
Width: 817
VWidth: 0
Flags: W
HStem: 0 43G<237 423>
LayerCount: 2
Fore
SplineSet
50 461 m 1,0,-1
 214 461 l 1,1,-1
 313 246 l 1,2,-1
 388 1229 l 1,3,-1
 552 1229 l 1,4,-1
 767 768 l 1,5,-1
 603 768 l 1,6,-1
 505 983 l 1,7,-1
 419 0 l 1,8,-1
 255 0 l 1,9,-1
 50 461 l 1,0,-1
EndSplineSet
EndChar

StartChar: unie083
Encoding: 386 57475 130
Width: 1288
VWidth: 0
Flags: W
HStem: 0 43G<441 600> 696 532<50 214 1074 1238> 1106 123<235 1054>
VStem: 50 184<819 1106> 50 164<696 983> 1054 184<819 1106> 1074 164<696 983>
LayerCount: 2
Fore
SplineSet
50 696 m 1,0,-1
 50 1229 l 1,1,-1
 1238 1229 l 1,2,-1
 1238 696 l 1,3,-1
 1074 696 l 1,4,-1
 1054 1106 l 1,5,-1
 235 1106 l 1,6,-1
 214 696 l 1,7,-1
 50 696 l 1,0,-1
337 532 m 1,8,-1
 474 238 l 1,9,-1
 726 819 l 1,10,-1
 870 819 l 1,11,-1
 1115 287 l 1,12,-1
 992 287 l 1,13,-1
 843 606 l 1,14,-1
 583 0 l 1,15,-1
 460 0 l 1,16,-1
 214 532 l 1,17,-1
 337 532 l 1,8,-1
EndSplineSet
EndChar

